<svg width="460" height="437" viewBox="0 0 460 437" fill="none" xmlns="http://www.w3.org/2000/svg">
<g clip-path="url(#clip0_808_182)">
<path d="M230.7 436.8C356.842 436.8 459.1 383.522 459.1 317.8C459.1 252.078 356.842 198.8 230.7 198.8C104.558 198.8 2.2998 252.078 2.2998 317.8C2.2998 383.522 104.558 436.8 230.7 436.8Z" fill="#F5F5F5"/>
<path d="M377 333.4C410.634 333.4 437.9 317.64 437.9 298.2C437.9 278.76 410.634 263 377 263C343.365 263 316.1 278.76 316.1 298.2C316.1 317.64 343.365 333.4 377 333.4Z" fill="#E6E6E6"/>
<path d="M131.6 277.3C154.9 290.8 155.9 313 132.5 326.4C109.2 339.9 70.4 339.5 47.1 326C23.8 312.5 23.8 290.7 47.1 277.3C70.5 263.9 108.3 263.9 131.6 277.3Z" fill="#E6E6E6"/>
<path d="M321.8 349.8L245.3 305.6C242.9 304.2 239 304.2 236.6 305.6L160.1 349.8C157.7 351.2 157.7 353.4 160.1 354.8L195 374.9L162.5 393.7C155.9 397.5 145.1 397.5 138.5 393.7L87.3004 364.1C84.5004 362.5 82.9004 360.4 82.9004 358.3C82.9004 356.2 84.5004 354.2 87.3004 352.5L132.7 326.3C133.7 325.7 134 324.5 133.4 323.6C132.8 322.6 131.6 322.3 130.7 322.9L85.3004 349.1C81.2004 351.5 78.9004 354.8 78.9004 358.3C78.9004 361.9 81.2004 365.2 85.3004 367.5L136.5 397.1C140.4 399.4 145.5 400.5 150.5 400.5C155.5 400.5 160.6 399.4 164.5 397.1L199.1 377.2L236.8 398.9C239.2 400.3 243.1 400.3 245.5 398.9L322 354.7C324.2 353.5 324.2 351.2 321.8 349.8Z" fill="#E6E6E6"/>
<path d="M409.202 281.7C409.202 281.7 412.002 240.5 411.202 225.3C410.602 213.3 408.902 208.3 408.602 205.6C408.602 205.6 405.702 177.5 405.402 153.7C405.302 142.2 404.202 134.1 397.902 120.4L357.502 130.1C356.702 136.2 353.902 176.5 353.202 212.3C352.602 243.7 353.502 271.1 353.502 271.1V272.8C353.502 274.6 353.102 275.9 351.902 278.9C350.702 281.9 348.502 286.1 345.602 289.3C344.802 290.2 339.002 295.2 338.202 296.3C335.702 299.2 340.902 300.8 344.702 300.3C348.702 299.8 355.002 298.2 356.702 295.8C357.902 294.2 358.802 288.5 360.002 286.8C364.102 281.2 365.802 278.8 365.802 277C365.902 273.8 364.702 272.5 364.402 270.7C364.702 266.9 372.902 235.6 373.102 224.6C373.202 219.3 372.802 212.1 372.802 212.1L379.202 175.6C381.702 184.7 386.002 207.4 387.402 216.1C389.202 226.7 393.802 254 396.502 270.2C397.602 276.5 398.002 279.6 398.502 282.5L398.602 283.7C398.702 285.3 399.802 302.2 400.502 305.7C401.802 313.1 408.402 312.2 409.402 306.2C410.302 301.1 409.202 285.4 409.202 283.4V281.7Z" fill="#FFA8A7"/>
<path d="M409.202 281.7C411.102 281.7 409.802 288.9 410.302 293.5C410.802 298.4 412.402 302.1 412.902 306.1C413.402 310.7 413.002 312.7 411.402 316.5C410.102 319.5 403.602 323.5 401.102 319.3C398.602 315 398.102 310.2 398.402 305.6C398.702 300.8 398.402 297.9 398.502 294.2C398.602 291 396.202 282.8 398.602 282.4L398.702 283.6C399.602 285.3 408.302 285.7 409.202 283.3V281.7Z" fill="#37474F"/>
<path d="M366.302 280.8C366.902 283.1 366.302 289.5 366.302 289.5C366.302 289.5 365.302 291.7 361.702 293.1L360.102 284.3L366.302 280.8Z" fill="#263238"/>
<path d="M361.7 293.1L353.9 290.6L352 283.6L360.8 288.1L361.7 293.1Z" fill="black"/>
<path d="M353.601 272.8V271.1C352.501 271.6 350.201 280.2 347.001 286.1C344.101 291.5 338.301 294.5 336.501 296.8C334.001 299.9 338.901 304 346.701 302.3C350.601 301.5 356.401 299 358.001 296.4C359.601 293.8 360.101 289 361.401 287.1C362.701 285.2 365.801 283 366.401 280.8C366.801 279.6 367.001 276.9 366.401 274.8C365.801 272.8 365.301 270.4 364.601 270.6V272.1C364.101 273.2 362.201 274.4 358.301 274.6C356.201 274.8 354.401 274.5 353.601 272.8Z" fill="#37474F"/>
<path d="M356.701 129.6C356.701 129.6 354.001 159.3 353.201 185.5C352.301 211.8 353.101 245.7 353.101 245.7C353.101 245.7 355.801 247.6 361.801 247.9C367.801 248.2 369.801 246.2 369.801 246.2C369.801 246.2 373.401 234.3 374.001 225.9C374.601 217.5 374.001 212.3 374.001 212.3L379.301 177.2C379.301 177.2 386.101 211.7 386.801 215.9C387.601 220.1 394.001 257 394.001 257C394.001 257 396.501 259.3 403.101 259.2C408.901 259.1 410.501 257 410.501 257C410.501 257 411.901 234.4 411.601 224.7C411.301 216.2 409.401 209.4 409.001 203.9C408.601 198.4 408.401 166.9 408.001 154.9C407.601 142.9 406.501 132.5 396.301 118.1L356.701 129.6Z" fill="#455A64"/>
<path d="M379.302 177.2L374.902 155.2C374.902 155.2 367.202 153.2 363.602 148.5C363.602 148.5 364.602 153.7 372.602 157.1L377.302 179L375.702 201.6L379.302 177.2Z" fill="#37474F"/>
<path d="M300.202 124.1C304.302 124.9 308.702 123.5 308.702 123.5C307.202 122.6 306.001 121.9 305.301 121.3C304.001 120 304.401 118.6 304.901 118.1C305.301 117.7 306.201 118.6 308.301 119.2C311.001 120 312.901 120.1 315.501 121.6C316.501 122.2 317.602 122.4 318.702 122.2C324.902 121 339.502 114.2 346.202 110.6C347.602 105.1 349.901 96.8998 352.801 86.6998C355.501 77.2998 359.802 73.1998 366.702 73.3998L365.801 93.7998C365.801 93.7998 362.501 107.9 358.501 119.4C357.801 121.4 354.902 123.7 349.702 125.7C342.902 128.2 334.801 130.6 324.801 133.3C321.101 134.3 316.101 135.4 312.401 135.7C301.901 136.6 297.801 133.7 296.401 131.6C292.201 125.8 294.702 123 300.202 124.1Z" fill="#FFA8A7"/>
<path d="M384.301 73.1998L393.901 73.8998C391.301 87.8998 401.101 95.3998 401.101 95.3998L396.801 112.7C396.901 114.8 400.501 122 403.901 129.8C397.401 138.4 365.801 141.4 355.501 133.8C357.101 125.7 358.301 119.5 358.601 116.4L358.101 105.2C345.201 94.5998 360.801 78.3998 366.501 73.2998L373.701 72.9998L384.301 73.1998Z" fill="#6687FF"/>
<path d="M424.901 159.3C423.501 158.3 422.701 156.3 422.801 154.7C423.001 153.1 423.301 151.1 424.001 150.3C424.701 149.5 428.901 143.8 430.701 147.1C432.701 150.7 432.301 152.2 432.301 152.2L424.901 159.3Z" fill="#F28F8F"/>
<path d="M411.9 235.6C407.9 235.6 403.6 234.3 399.1 231.7L349.2 202.9C341.5 198.4 335.2 187.6 335.2 178.7V136.8C335.2 133.9 333.7 131.3 331.2 129.9C328.7 128.5 325.7 128.5 323.2 129.9L305.7 140C304.7 140.6 303.5 140.2 303 139.3C302.4 138.3 302.8 137.1 303.7 136.6L321.2 126.5C324.9 124.3 329.4 124.3 333.2 126.5C336.9 128.7 339.2 132.5 339.2 136.9V178.8C339.2 186.3 344.7 195.8 351.2 199.6L401.1 228.4C407.5 232.1 413.4 232.7 417.8 230.2C422.2 227.7 424.6 222.2 424.6 214.9V161.4C424.6 152.3 430.4 141.9 437.8 137.6L450 130.6C451 130 452.2 130.4 452.7 131.3C453.3 132.3 452.9 133.5 452 134L439.8 141C433.7 144.5 428.6 153.8 428.6 161.3V214.8C428.6 223.7 425.5 230.3 419.8 233.6C417.4 234.9 414.8 235.6 411.9 235.6Z" fill="#37474F"/>
<path d="M325.601 142.9V146.2C325.601 151.4 321.901 157.8 317.401 160.4L287.101 177.9L256.301 160.1V133.4L286.201 119.6C291.001 117.4 298.501 117.7 303.001 120.4L317.401 128.7C321.901 131.3 325.601 137.6 325.601 142.9Z" fill="#37474F"/>
<path d="M286.201 119.6C291.001 117.4 298.501 117.7 303.001 120.4L317.401 128.7C321.901 131.3 321.801 135.2 317.001 137.4L287.101 151.2L256.301 133.4L286.201 119.6Z" fill="#455A64"/>
<path opacity="0.15" d="M290.001 144.8C292.301 146.1 294.101 149.3 294.101 151.9V173.8L287.101 177.8L256.301 160V133.3L264.101 129.7L290.001 144.8Z" fill="black"/>
<path d="M253.7 128.8C254.4 128.4 255.5 128.4 256.6 129.1L286.9 146.6C289.2 147.9 291 151.1 291 153.7V179.8C291 181.1 290.5 182 289.8 182.4C289.1 182.8 286.6 184.2 285.9 184.6C285.2 185 284.1 185 283 184.3L252.7 166.8C250.4 165.5 248.6 162.3 248.6 159.7V133.6C248.6 132.3 249.1 131.4 249.8 130.9C250.5 130.6 253 129.2 253.7 128.8Z" fill="#37474F"/>
<path d="M283 148.8L252.7 131.3C250.4 130 248.6 131.1 248.6 133.7V159.8C248.6 162.4 250.4 165.6 252.7 166.9L283 184.4C285.3 185.7 287.1 184.6 287.1 182V155.9C287.1 153.3 285.3 150.1 283 148.8Z" fill="#455A64"/>
<path d="M247.1 179.2V183.7C247.1 185.5 247.7 186.8 248.8 187.4C249.3 187.7 251.1 188.7 251.5 189C252.5 189.6 254 189.5 255.6 188.6L280.6 174.1V156.3L277.9 154.7L252.9 169.2C249.7 171 247.1 175.5 247.1 179.2ZM258.5 173.5C258.6 173.8 258.6 174.2 258.6 174.6C258.6 177.1 256.9 180 254.8 181.3C254.5 181.5 254.1 181.6 253.8 181.7C253.7 181.4 253.7 181 253.7 180.6C253.7 178.1 255.4 175.2 257.5 173.9C257.8 173.8 258.2 173.6 258.5 173.5Z" fill="#6485FF"/>
<path opacity="0.2" d="M251.4 188.8C251.5 188.8 251.5 188.9 251.6 188.9C251.5 188.9 251.5 188.9 251.4 188.8C250.9 188.5 249.2 187.6 248.8 187.3C247.7 186.7 247.1 185.4 247.1 183.6V179.1C247.1 177.3 247.7 175.2 248.8 173.4L251.5 175C250.5 176.8 249.8 178.8 249.8 180.7V185.2C249.8 186.6 250.2 187.7 250.9 188.4C251.1 188.6 251.2 188.7 251.4 188.8Z" fill="black"/>
<path opacity="0.5" d="M280.599 156.3L255.599 170.8C253.999 171.7 252.599 173.3 251.499 175.1L248.799 173.5C249.799 171.7 251.299 170.1 252.899 169.2L277.999 154.7L280.599 156.3Z" fill="white"/>
<path opacity="0.2" d="M258.6 174.6C258.6 174.2 258.5 173.8 258.5 173.5C260.1 173 261.4 174.1 261.4 176.1C261.4 178.6 259.7 181.5 257.6 182.8C255.8 183.8 254.3 183.3 253.9 181.6C254.2 181.5 254.5 181.4 254.9 181.2C256.9 180 258.6 177.1 258.6 174.6Z" fill="black"/>
<path d="M224 165.8V170.3C224 172.1 224.6 173.4 225.7 174C226.2 174.3 228 175.3 228.4 175.6C229.4 176.2 230.9 176.1 232.5 175.2L257.5 160.7V142.9L254.8 141.3L229.8 155.8C226.6 157.7 224 162.2 224 165.8ZM235.4 160.2C235.5 160.5 235.5 160.9 235.5 161.3C235.5 163.8 233.8 166.7 231.7 168C231.4 168.2 231 168.3 230.7 168.4C230.6 168.1 230.6 167.7 230.6 167.3C230.6 164.8 232.3 161.9 234.4 160.6C234.7 160.4 235.1 160.3 235.4 160.2Z" fill="#6485FF"/>
<path opacity="0.2" d="M228.6 175.7C228.5 175.7 228.5 175.7 228.6 175.7C228.5 175.7 228.5 175.6 228.5 175.6C228 175.3 226.2 174.3 225.8 174C224.8 173.4 224.1 172.1 224.1 170.3V165.8C224.1 164.9 224.3 163.9 224.5 163C224.8 162 225.2 161.1 225.7 160.2L228.4 161.8C228.1 162.2 227.9 162.7 227.7 163.2C227.1 164.6 226.7 166.1 226.7 167.5V172C226.7 173.4 227.1 174.5 227.8 175.2C228 175.3 228.3 175.5 228.6 175.7Z" fill="black"/>
<path opacity="0.5" d="M257.499 143L232.499 157.5C230.899 158.4 229.499 160 228.399 161.8L225.699 160.2C226.699 158.4 228.199 156.8 229.799 155.9L254.799 141.4L257.499 143Z" fill="white"/>
<path opacity="0.2" d="M235.501 161.3C235.501 160.9 235.401 160.5 235.401 160.2C237.001 159.7 238.301 160.8 238.301 162.8C238.301 165.3 236.601 168.2 234.501 169.5C232.701 170.5 231.201 170 230.801 168.3C231.101 168.2 231.401 168.1 231.801 167.9C233.801 166.7 235.501 163.7 235.501 161.3Z" fill="black"/>
<path d="M231.602 147.6L227.602 131.9" stroke="#E0E0E0" stroke-width="3" stroke-miterlimit="10" stroke-linecap="round" stroke-linejoin="round"/>
<path d="M220.4 154.2L205.5 142.4" stroke="#E0E0E0" stroke-width="3" stroke-miterlimit="10" stroke-linecap="round" stroke-linejoin="round"/>
<path d="M217.301 167.2L199.801 168.5" stroke="#E0E0E0" stroke-width="3" stroke-miterlimit="10" stroke-linecap="round" stroke-linejoin="round"/>
<path d="M438.501 142.9C438.101 139.9 437.801 135.6 436.901 131.9C434.601 122.5 429.501 110.3 427.801 107.1C426.101 103.9 422.401 99.2999 419.701 95.2999C415.901 89.6999 413.301 86.5999 410.401 82.8999C404.101 74.5999 401.401 74.1999 394.001 73.8999C393.001 76.4999 390.701 87.2999 398.101 95.9999L413.901 112.7C414.801 114.1 424.501 130.7 426.101 136.8C426.401 137.9 426.201 139 425.701 140C424.301 142.7 423.501 146 422.901 148.8C422.401 150.9 421.201 152.6 421.601 152.9C422.101 153.3 423.501 153.8 425.101 152.6C425.901 152 427.001 150.1 427.801 148.5C429.101 148.5 430.001 149.3 430.101 150.7C430.201 151.9 429.601 153.6 429.201 155.8C429.101 156.2 429.001 156.7 428.801 157.9C428.701 158.5 428.501 159.4 428.501 160.3C430.501 160.7 432.601 159.4 435.901 156.3C439.101 153.3 439.301 149.5 438.501 142.9Z" fill="#FFA8A7"/>
<path d="M386.101 68.2998C386.201 66.2998 392.7 61.5998 395.9 56.5998C398.9 51.9998 403.201 39.2998 393.101 35.1998C393.101 35.1998 395.3 29.0998 391.3 25.4998C387.3 21.8998 382.001 24.0998 381.201 25.5998C381.201 25.5998 379.701 19.2998 372.701 18.9998C365.701 18.6998 364.4 25.1998 364.4 25.1998C364.4 25.1998 358.901 22.6998 355.201 27.7998C351.501 32.8998 356.4 37.5998 356.4 37.5998C356.4 37.5998 354.2 38.9998 354.5 41.4998C354.8 43.6998 356.901 44.1998 357.101 45.2998C357.301 46.3998 356 46.9998 355.3 46.1998C355.3 46.1998 355.5 48.0998 357.9 47.8998C360.2 47.7998 362.3 44.5998 362.3 44.5998L386.101 68.2998Z" fill="#263238"/>
<path d="M364.9 34.5999C361.9 35.8999 359.1 40.4999 359.1 53.1999C359.1 63.9999 362.5 66.7999 364.1 67.5999C365.8 68.3999 369.1 67.9999 372.2 67.4999V73.6999C372.2 73.6999 366.4 80.8999 371.6 84.3999C385 82.1999 386 73.3999 386 73.3999L386.2 59.7999C386.2 59.7999 388 61.6999 391.3 58.8999C394 56.5999 394.9 52.5999 392.9 50.3999C390.9 48.1999 388.3 47.9999 386 50.4999C386 50.4999 381.7 50.7999 375.4 46.7999C368.8 42.6999 366.6 38.6999 364.9 34.5999Z" fill="#FFA8A7"/>
<path d="M372.5 60.0998C372.5 60.9998 371.9 61.6998 371 61.7998C370.1 61.7998 369.4 61.0998 369.4 60.1998C369.4 59.2998 370 58.5998 370.9 58.4998C371.8 58.4998 372.5 59.1998 372.5 60.0998Z" fill="#B16668"/>
<path d="M364.3 49.5997C364.3 50.3997 363.7 51.0997 362.9 51.0997C362.1 51.0997 361.4 50.4997 361.4 49.6997C361.4 48.8997 362 48.1997 362.8 48.1997C363.6 48.0997 364.3 48.7997 364.3 49.5997Z" fill="#263238"/>
<path d="M375.401 50.1999C375.401 51.0999 374.801 51.7999 373.901 51.8999C373.001 51.8999 372.301 51.1999 372.301 50.2999C372.301 49.3999 372.901 48.6999 373.801 48.5999C374.601 48.6999 375.301 49.3999 375.401 50.1999Z" fill="#263238"/>
<path d="M363.301 43.8999L360.301 45.6999C360.701 46.5999 361.901 46.7999 362.701 46.3999C363.501 45.7999 363.701 44.7999 363.301 43.8999Z" fill="#263238"/>
<path d="M386 48.7998V54.7998C384.4 54.8998 383.1 53.5998 383.1 51.8998C383.1 50.1998 384.4 48.7998 386 48.7998Z" fill="#263238"/>
<path d="M368.2 48.1997L367.6 56.7997L363.1 55.6997L368.2 48.1997Z" fill="#F28F8F"/>
<path d="M372.301 67.5998C375.701 67.1998 382.601 65.2998 383.701 62.4998C383.701 62.4998 383.301 64.2998 381.201 66.0998C379.101 67.8998 372.301 69.7998 372.301 69.7998V67.5998Z" fill="#F28F8F"/>
<path d="M412.502 0.799902C413.802 1.2999 415.002 1.8999 416.002 2.6999C417.102 3.4999 418.002 4.3999 418.602 5.4999C419.302 6.5999 419.702 7.6999 419.902 8.8999C420.102 10.0999 419.902 11.3999 419.402 12.7999C419.002 13.8999 418.502 14.7999 417.802 15.4999C417.202 16.1999 416.402 16.6999 415.702 17.1999C414.902 17.5999 414.102 17.9999 413.302 18.2999C412.502 18.5999 411.702 18.8999 410.902 19.0999C410.202 19.3999 409.502 19.6999 408.902 19.9999C408.302 20.3999 407.802 20.7999 407.502 21.3999C407.302 21.6999 407.102 21.8999 406.802 21.9999C406.502 22.0999 406.202 22.1999 405.902 22.0999L402.802 20.8999C402.502 20.7999 402.302 20.5999 402.102 20.2999C402.002 19.9999 401.902 19.6999 402.102 19.3999C402.602 18.3999 403.102 17.4999 403.802 16.7999C404.502 16.0999 405.302 15.5999 406.102 15.1999C406.902 14.7999 407.702 14.3999 408.602 14.0999C409.402 13.7999 410.202 13.4999 410.902 13.2999C411.602 12.9999 412.302 12.6999 412.802 12.3999C413.302 12.0999 413.702 11.5999 413.902 10.9999C414.302 9.9999 414.202 8.8999 413.602 7.8999C413.002 6.8999 411.902 6.0999 410.502 5.5999C408.202 4.6999 406.002 5.1999 404.102 7.1999C403.902 7.3999 403.602 7.5999 403.402 7.6999C403.202 7.7999 402.902 7.7999 402.602 7.5999L399.302 6.3999C399.102 6.2999 398.902 6.0999 398.802 5.8999C398.702 5.6999 398.702 5.3999 398.802 5.0999C399.202 4.1999 399.802 3.2999 400.802 2.4999C401.702 1.6999 402.802 1.0999 404.102 0.599902C405.302 0.0999024 406.702 -0.100098 408.202 -0.100098C409.602 -9.76548e-05 411.102 0.199902 412.502 0.799902ZM405.402 24.6999C405.702 24.7999 405.902 24.9999 406.102 25.2999C406.202 25.5999 406.202 25.8999 406.102 26.1999L404.702 29.7999C404.602 30.0999 404.402 30.2999 404.102 30.4999C403.802 30.5999 403.502 30.5999 403.202 30.4999L399.702 29.1999C399.402 29.0999 399.202 28.8999 399.002 28.5999C398.902 28.2999 398.902 27.9999 399.002 27.6999L400.402 24.0999C400.502 23.7999 400.702 23.5999 401.002 23.3999C401.302 23.2999 401.602 23.2999 401.902 23.3999L405.402 24.6999Z" fill="#315DFF"/>
<path d="M414.301 43.9C414.501 44.1 414.601 44.4 414.601 44.7C414.601 45 414.501 45.3 414.301 45.5L411.801 48.1C411.601 48.3 411.301 48.4 411.001 48.4C410.701 48.4 410.401 48.3 410.201 48.1L407.601 45.7C407.401 45.5 407.301 45.2 407.301 44.9C407.301 44.6 407.401 44.3 407.601 44.1L410.101 41.5C410.301 41.3 410.601 41.2 410.901 41.2C411.201 41.2 411.501 41.3 411.701 41.5L414.301 43.9ZM429.201 25.7C430.101 26.6 430.901 27.6 431.601 28.7C432.201 29.8 432.701 30.9 432.901 32.1C433.101 33.3 433.101 34.4 432.801 35.6C432.501 36.7 431.901 37.8 431.001 38.8C430.201 39.6 429.501 40.2 428.701 40.5C427.901 40.9 427.101 41.1 426.201 41.2C425.401 41.3 424.501 41.3 423.701 41.3C422.901 41.3 422.101 41.2 421.301 41.2C420.601 41.2 419.901 41.2 419.201 41.3C418.501 41.4 418.001 41.6 417.501 42C417.301 42.2 417.001 42.3 416.701 42.3C416.401 42.3 416.201 42.2 415.901 42L413.601 39.8C413.401 39.6 413.301 39.3 413.201 39C413.201 38.7 413.301 38.4 413.501 38.2C414.301 37.5 415.101 36.9 415.901 36.6C416.701 36.3 417.601 36.1 418.501 36C419.401 35.9 420.201 35.9 421.001 36C421.801 36.1 422.601 36.1 423.301 36.1C424.001 36.1 424.701 36.1 425.301 36C425.901 35.9 426.401 35.6 426.801 35.2C427.501 34.4 427.801 33.5 427.601 32.4C427.401 31.3 426.801 30.3 425.801 29.3C424.101 27.7 422.101 27.4 419.601 28.3C419.301 28.4 419.001 28.5 418.801 28.5C418.601 28.5 418.301 28.4 418.101 28.1L415.701 25.8C415.501 25.6 415.401 25.4 415.401 25.2C415.401 25 415.501 24.7 415.701 24.5C416.401 23.8 417.301 23.3 418.401 23C419.501 22.7 420.701 22.5 421.901 22.6C423.101 22.7 424.401 22.9 425.701 23.5C427.001 24 428.201 24.7 429.201 25.7Z" fill="#315DFF"/>
<g opacity="0.6">
<path d="M414.301 43.9C414.501 44.1 414.601 44.4 414.601 44.7C414.601 45 414.501 45.3 414.301 45.5L411.801 48.1C411.601 48.3 411.301 48.4 411.001 48.4C410.701 48.4 410.401 48.3 410.201 48.1L407.601 45.7C407.401 45.5 407.301 45.2 407.301 44.9C407.301 44.6 407.401 44.3 407.601 44.1L410.101 41.5C410.301 41.3 410.601 41.2 410.901 41.2C411.201 41.2 411.501 41.3 411.701 41.5L414.301 43.9ZM429.201 25.7C430.101 26.6 430.901 27.6 431.601 28.7C432.201 29.8 432.701 30.9 432.901 32.1C433.101 33.3 433.101 34.4 432.801 35.6C432.501 36.7 431.901 37.8 431.001 38.8C430.201 39.6 429.501 40.2 428.701 40.5C427.901 40.9 427.101 41.1 426.201 41.2C425.401 41.3 424.501 41.3 423.701 41.3C422.901 41.3 422.101 41.2 421.301 41.2C420.601 41.2 419.901 41.2 419.201 41.3C418.501 41.4 418.001 41.6 417.501 42C417.301 42.2 417.001 42.3 416.701 42.3C416.401 42.3 416.201 42.2 415.901 42L413.601 39.8C413.401 39.6 413.301 39.3 413.201 39C413.201 38.7 413.301 38.4 413.501 38.2C414.301 37.5 415.101 36.9 415.901 36.6C416.701 36.3 417.601 36.1 418.501 36C419.401 35.9 420.201 35.9 421.001 36C421.801 36.1 422.601 36.1 423.301 36.1C424.001 36.1 424.701 36.1 425.301 36C425.901 35.9 426.401 35.6 426.801 35.2C427.501 34.4 427.801 33.5 427.601 32.4C427.401 31.3 426.801 30.3 425.801 29.3C424.101 27.7 422.101 27.4 419.601 28.3C419.301 28.4 419.001 28.5 418.801 28.5C418.601 28.5 418.301 28.4 418.101 28.1L415.701 25.8C415.501 25.6 415.401 25.4 415.401 25.2C415.401 25 415.501 24.7 415.701 24.5C416.401 23.8 417.301 23.3 418.401 23C419.501 22.7 420.701 22.5 421.901 22.6C423.101 22.7 424.401 22.9 425.701 23.5C427.001 24 428.201 24.7 429.201 25.7Z" fill="white"/>
</g>
<path d="M58.3994 295.3C61.5994 297.2 65.7994 297.3 69.7994 295.9L72.7994 274.9L58.6994 271.3L58.3994 295.3Z" fill="#FFA8A7"/>
<path d="M80.9996 315.4C81.2996 315.8 81.0996 318.4 80.6996 319C80.1996 319.6 77.8996 321.6 73.3996 321.7C69.1996 321.8 65.3996 321 62.9996 319.3C60.5996 317.6 59.4996 315.8 59.3996 313.4C59.2996 311 59.6996 308.7 58.5996 306.8C57.5996 305 56.2996 303.3 55.9996 302.4C55.2996 300.3 55.9996 297.2 55.9996 297.2L80.9996 315.4Z" fill="#263238"/>
<path d="M70.7993 295C70.7993 295.9 70.8993 296.8 71.1993 297.7C71.6993 299.6 72.4993 301.4 73.4993 303.1C73.9993 304 74.4993 304.9 75.0993 305.7C76.2993 307.3 77.7993 308.6 79.0993 310.1C80.3993 311.6 81.3993 313.5 81.3993 315.4C81.3993 318.7 77.7993 319.6 74.9993 320C71.9993 320.4 68.8993 320 65.9993 319.1C62.7993 318 60.6993 315.4 60.2993 312.2C60.1993 311.3 60.2993 310.3 60.1993 309.4C60.0993 307.3 59.0993 305.3 57.8993 303.5C57.1993 302.4 56.4993 301.4 56.0993 300.2C55.2993 298.1 56.1993 295.8 56.7993 293.8C57.3993 292.1 57.7993 290 58.3993 290.2C58.3993 290.6 58.3993 291.3 58.3993 291.3C58.5993 291.7 58.9993 292 59.0993 292.4C59.1993 292.9 59.2993 293.3 59.4993 293.8C59.7993 294.5 60.1993 295.1 60.8993 295.5C60.9993 294.3 61.0993 293 61.1993 291.8C61.1993 291.4 61.2993 291 61.4993 290.7C61.7993 290.4 62.1993 290.3 62.5993 290.3C64.9993 290 67.3993 289.7 69.6993 290.1C70.0993 290.2 70.3993 290.3 70.5993 290.6C70.7993 290.8 70.6993 291.2 70.6993 291.5C70.7993 292.7 70.6993 293.9 70.7993 295Z" fill="#97B2FF"/>
<path opacity="0.2" d="M70.7993 295C70.7993 295.9 70.8993 296.8 71.1993 297.7C71.6993 299.6 72.4993 301.4 73.4993 303.1C73.9993 304 74.4993 304.9 75.0993 305.7C76.2993 307.3 77.7993 308.6 79.0993 310.1C80.3993 311.6 81.3993 313.5 81.3993 315.4C81.3993 318.7 77.7993 319.6 74.9993 320C71.9993 320.4 68.8993 320 65.9993 319.1C62.7993 318 60.6993 315.4 60.2993 312.2C60.1993 311.3 60.2993 310.3 60.1993 309.4C60.0993 307.3 59.0993 305.3 57.8993 303.5C57.1993 302.4 56.4993 301.4 56.0993 300.2C55.2993 298.1 56.1993 295.8 56.7993 293.8C57.3993 292.1 57.7993 290 58.3993 290.2C58.3993 290.6 58.3993 291.3 58.3993 291.3C58.5993 291.7 58.9993 292 59.0993 292.4C59.1993 292.9 59.2993 293.3 59.4993 293.8C59.7993 294.5 60.1993 295.1 60.8993 295.5C60.9993 294.3 61.0993 293 61.1993 291.8C61.1993 291.4 61.2993 291 61.4993 290.7C61.7993 290.4 62.1993 290.3 62.5993 290.3C64.9993 290 67.3993 289.7 69.6993 290.1C70.0993 290.2 70.3993 290.3 70.5993 290.6C70.7993 290.8 70.6993 291.2 70.6993 291.5C70.7993 292.7 70.6993 293.9 70.7993 295Z" fill="black"/>
<path d="M73.7994 303.9C72.5994 302.9 69.8994 302.8 68.2994 302.8C66.3994 302.9 64.7994 303.5 63.8994 304.1C63.4994 304.4 62.9994 304.3 62.5994 303.9C62.1994 303.5 62.2994 302.8 62.7994 302.5C63.7994 301.9 65.4994 301 67.6994 301C71.3994 300.9 72.4994 301.6 72.4994 301.6C72.4994 301.6 74.2994 302.8 73.7994 303.9Z" fill="#455A64"/>
<path d="M76.4996 307.4C74.9996 306.4 71.9996 306.4 70.3996 306.5C68.4996 306.6 66.9995 307.3 66.0995 307.9C65.6995 308.2 65.1996 308.1 64.7996 307.7C64.3996 307.3 64.4996 306.6 64.9996 306.3C65.9996 305.7 67.7996 304.7 69.9996 304.6C73.6996 304.5 74.6995 305.3 74.6995 305.3C74.6995 305.3 76.2996 306 76.4996 307.4Z" fill="#455A64"/>
<path d="M66.5992 297.3C69.1992 297.2 70.2992 297.5 71.1992 297.9C71.7992 298.3 72.1992 299.4 71.7992 299.6C70.9992 299.1 69.4992 298.8 67.6992 298.8C66.4992 298.8 64.8992 299.2 63.5992 299.7C63.2992 299.8 62.8992 300 62.4992 300.2C61.9992 300.4 61.4992 300.2 61.2992 299.8C61.0992 299.4 61.2992 299 61.6992 298.8C62.5992 298.2 64.4992 297.4 66.5992 297.3Z" fill="#455A64"/>
<path d="M97.899 287.4C100.299 293.5 104.199 291.6 109.999 288.1L110.899 267.2L95.999 265.9L97.899 287.4Z" fill="#FFA8A7"/>
<path d="M132.299 302.1C132.599 302.8 132.399 304.2 131.999 305C131.499 305.8 126.899 308.1 120.899 307.4C114.899 306.7 110.799 304 108.599 302.3C106.399 300.6 103.999 300.2 100.999 299.9C97.9994 299.6 95.6994 298.5 95.1994 297.1C94.5994 295.7 95.4994 293.3 95.4994 293.3L132.299 302.1Z" fill="#263238"/>
<path d="M108.799 282.9C109.399 282.8 109.799 282.6 110.399 282.4C110.699 282.3 110.999 282.2 111.299 282.3C111.699 282.5 111.799 282.9 111.899 283.3C112.099 284.1 112.099 285.2 112.399 286C112.699 286.7 113.499 287.4 113.999 287.9C115.399 289.2 116.999 290.3 118.699 291.3C120.599 292.5 122.499 293.4 124.499 294.4C126.499 295.5 129.299 296.2 130.899 297.4C133.199 299.1 133.299 303.2 130.499 304.6C128.099 305.8 121.799 307 115.499 304.8C111.999 303.6 108.299 299.6 103.699 299C100.799 298.6 96.8994 298.2 95.0994 295.8C94.4994 294.8 94.9994 291.9 95.4994 288.5C95.9994 285.5 96.3994 280.7 97.3994 281L97.4994 281.9C97.4994 281.9 98.3994 283 98.6994 283.3C98.9994 283.6 99.1994 283.8 99.4994 284.1C99.8994 284.5 100.099 284.8 100.499 285.2C100.999 285.6 101.599 285.9 102.199 285.9C102.499 285.9 102.799 285.9 103.099 285.7C103.599 285.4 103.699 284.8 104.099 284.4C104.599 283.9 105.099 283.6 105.699 283.3C106.499 283 107.499 282.8 108.399 282.8C108.399 282.9 108.599 282.9 108.799 282.9Z" fill="#97B2FF"/>
<path opacity="0.2" d="M108.799 282.9C109.399 282.8 109.799 282.6 110.399 282.4C110.699 282.3 110.999 282.2 111.299 282.3C111.699 282.5 111.799 282.9 111.899 283.3C112.099 284.1 112.099 285.2 112.399 286C112.699 286.7 113.499 287.4 113.999 287.9C115.399 289.2 116.999 290.3 118.699 291.3C120.599 292.5 122.499 293.4 124.499 294.4C126.499 295.5 129.299 296.2 130.899 297.4C133.199 299.1 133.299 303.2 130.499 304.6C128.099 305.8 121.799 307 115.499 304.8C111.999 303.6 108.299 299.6 103.699 299C100.799 298.6 96.8994 298.2 95.0994 295.8C94.4994 294.8 94.9994 291.9 95.4994 288.5C95.9994 285.5 96.3994 280.7 97.3994 281L97.4994 281.9C97.4994 281.9 98.3994 283 98.6994 283.3C98.9994 283.6 99.1994 283.8 99.4994 284.1C99.8994 284.5 100.099 284.8 100.499 285.2C100.999 285.6 101.599 285.9 102.199 285.9C102.499 285.9 102.799 285.9 103.099 285.7C103.599 285.4 103.699 284.8 104.099 284.4C104.599 283.9 105.099 283.6 105.699 283.3C106.499 283 107.499 282.8 108.399 282.8C108.399 282.9 108.599 282.9 108.799 282.9Z" fill="black"/>
<path d="M116 289.6C116 289.6 115.6 288.5 113.9 288C112.6 287.7 110.2 288.5 108.6 289.7C108 290.2 108 291.1 108.7 291.5C109.1 291.7 109.6 291.7 110 291.4C111 290.7 113.2 289.3 116 289.6Z" fill="#455A64"/>
<path d="M120 292.2C120 292.2 119.2 290.8 117.5 290.7C117.5 290.7 114 290.6 111.7 292.5C111.1 293 111.1 293.9 111.8 294.3C112.2 294.5 112.7 294.5 113 294.2C114.1 293.4 116.1 291.6 120 292.2Z" fill="#455A64"/>
<path d="M124.499 294.5C124.499 294.5 123.599 293.2 121.899 293.2C121.899 293.2 118.599 293.1 116.399 295C115.799 295.5 115.799 296.4 116.499 296.8C116.899 297 117.399 297 117.699 296.7C118.699 295.9 120.599 294 124.499 294.5Z" fill="#455A64"/>
<path d="M57.9993 239C58.4993 228.9 60.5993 223.7 60.8993 220.9C60.8993 220.9 61.6993 165.5 63.0993 148.7L112.699 146.6C113.399 164.6 114.099 213 113.699 219.4C113.299 225.5 110.799 278.7 110.799 278.7C103.799 280.9 96.2993 277.7 96.2993 277.7C96.2993 277.7 92.0993 247.5 91.4993 240.8C90.5993 232.2 91.9993 222.8 91.9993 222.8L88.7993 179.7C88.7993 179.7 84.9993 213.1 83.0993 225.7C80.8993 240.1 71.5993 284.8 71.5993 284.8C64.8993 286.5 58.3993 283.6 58.3993 283.6C58.3993 283.6 57.3993 253.6 57.9993 239Z" fill="#455A64"/>
<path d="M88.7998 179.7L89.6998 173.8C92.5998 173.4 99.8998 168.8 104.2 164.8C104.2 164.8 100.3 171.4 91.9998 176V222.7L88.7998 179.7Z" fill="#37474F"/>
<path d="M109.2 117.4C105.8 109.7 100 96.8 100 96.8L98.5 75.8C98.5 75.8 101.8 75.9 104.9 76.4C108 76.9 113 79.9 115.2 85.5C116.9 89.7 125.7 115.1 125.7 115.1L141 107C144.9 104.5 146.3 100.4 148.8 98C151.3 95.7 153.8 95.3 156.6 93.4C159.3 91.5 160.5 90 161.2 91.9C161.9 93.8 158.8 96.7 158.2 97.5C157.6 98.2 154.6 99.8 158.4 100C162.2 100.2 170 96.5 171.9 95.8C173.8 95.2 173.6 97.4 172.6 98.7C171.6 100.1 171.5 104.1 169.9 106.3C168.2 108.7 167.3 109.7 163.6 111.2C160.2 112.5 153.1 112.9 149.4 115C145.7 117.1 136.9 125.1 131 129.2C123.1 134.7 118.6 135.1 115.5 130.7C112.4 126.2 110.4 120.1 109.2 117.4Z" fill="#FFA8A7"/>
<path d="M96.5 75.3C101.7 74.9 107.8 75.2 111.2 78.3C113.9 80.8 114.9 82.3 117.9 90.8C119.9 96.5 124.2 109.7 124.2 109.7C124.2 109.7 115.2 111.3 109.2 118.9L99.5 97L96.5 75.3Z" fill="#E0E0E0"/>
<path d="M125.699 115C122.299 116.2 119.999 118.6 119.199 120C119.199 120 119.599 116 125.199 113.6L125.699 115Z" fill="#F28F8F"/>
<path d="M84 74.3999C84 74.3999 80.7 74.0999 76.7 75.1999C72.1 76.3999 63.9 78.6999 63.9 78.6999C61.3 80.0999 60.3 84.5999 59.7 87.0999C57.8 95.3999 62.7 114.1 63.5 121.4C64.2 128.7 62.7 151 62.7 151C68.3 157.5 98.6 161.8 113.3 151C113.3 151 113.9 99.6999 112.5 92.3999C110.3 81.2999 107 75.9999 95.5 75.2999L84 74.3999Z" fill="#F5F5F5"/>
<path d="M90.5002 46.9L87.2002 48.7C86.7002 47.8 87.1002 46.6 88.0002 46.1C88.9002 45.5 90.0002 45.9 90.5002 46.9Z" fill="#263238"/>
<path d="M104.8 48.2L101.8 45.9C102.4 45 103.6 44.9 104.4 45.5C105.2 46.1 105.4 47.3 104.8 48.2Z" fill="#263238"/>
<path d="M75.4 36.4001C75.4 36.4001 71.9 36.9001 70.6 39.6001C69.5 41.9001 69.9 47.5001 71.4 53.6001C72.9 59.7001 74.3 63.4001 75.2 65.1001C76.1 66.8001 77.9 67.3001 77.9 67.3001L77.6 60.0001L77.3 55.0001C77.3 55.0001 80.5 50.6001 80.9 47.0001C81.4 42.3001 80.4 40.4001 80.4 40.4001L75.4 36.4001Z" fill="#263238"/>
<path d="M81.0996 43.4001C81.0996 50.9001 87.1996 56.9001 94.6996 56.9001C102.2 56.9001 107.8 50.8001 107.7 43.3001C107.7 35.8001 102 29.9001 94.5996 29.9001C87.0996 29.9001 81.0996 35.9001 81.0996 43.4001Z" fill="#263238"/>
<path d="M77.5999 54.0999C76.3999 55.1999 75.3999 52.4 74.3999 51.4C73.3999 50.3 69.9999 48.9 68.3999 52.4C66.6999 55.9999 69.8999 60.9999 72.3999 61.9999C75.1999 63.0999 76.7999 60.6999 76.7999 60.6999V76.6999C80.5999 83.5999 87.3999 83.4 91.0999 83C94.6999 82.6 95.4999 78.8 92.8999 75.8V70.8C92.8999 70.8 96.9999 71.3999 98.9999 71.0999C102.3 70.5999 104.1 68.0999 105.1 64.4999C106.7 58.6999 107.3 48.9999 105.1 37.7999C101.4 34.8999 88.4999 35.3999 80.6999 40.2999C80.9999 50.2999 78.7999 52.9999 77.5999 54.0999Z" fill="#FFA8A7"/>
<path d="M105.5 32.1C106 30 106.2 27.9 106.2 25.7C106.2 24.9 106 23.8 105.2 23.5C104.4 23.2 103.6 23.8 103 24.2C100.1 26.1 96.4998 26.7 93.0998 26.9C87.0998 27.2 77.8998 26.8 74.8998 33.4C74.0998 35.2 73.8998 37.1 75.5998 38.4C76.9998 39.5 78.8998 40 80.5998 40.3C83.5998 40.8 86.5998 41.5 89.6998 41.9C92.7998 42.3 96.3998 42.7 99.4998 41.8C102.1 41 104.7 40.3 106.6 38.3C108.2 36.5 109.2 34.2 109.2 31.8C109.2 31.5 109.1 31 108.8 30.9C108.6 30.9 108.5 30.9 108.3 31C107.3 31.3 106.4 31.7 105.5 32.1Z" fill="#263238"/>
<path d="M92.6996 70.8C92.6996 70.8 85.2996 69.3 82.6996 68C80.9996 67.1 79.4996 65.5 79.0996 64.5C79.0996 64.5 79.5996 66.7 81.1996 68.7C83.0996 71.1 92.7996 72.9 92.7996 72.9L92.6996 70.8Z" fill="#F28F8F"/>
<path d="M91.1998 51.8003C91.1998 52.8003 90.4998 53.5003 89.4998 53.5003C88.5998 53.5003 87.7998 52.7003 87.7998 51.8003C87.7998 50.8003 88.4998 50.1003 89.4998 50.1003C90.4998 50.0003 91.1998 50.8003 91.1998 51.8003Z" fill="#263238"/>
<path d="M93.5994 63.3002C93.5994 64.2002 92.8994 64.9002 91.9994 64.9002C91.0994 64.9002 90.3994 64.2002 90.3994 63.3002C90.3994 62.4002 91.0994 61.7002 91.9994 61.7002C92.8994 61.7002 93.5994 62.4002 93.5994 63.3002Z" fill="#B16668"/>
<path d="M89.0995 46.5L85.6995 48.7C85.0995 47.7 85.3995 46.4 86.3995 45.8C87.2995 45.2 88.4995 45.5 89.0995 46.5Z" fill="#263238"/>
<path d="M101.3 44.4001L104.9 46.0001C104.5 47.0001 103.3 47.5001 102.3 47.0001C101.3 46.6001 100.9 45.4001 101.3 44.4001Z" fill="#263238"/>
<path d="M103.199 51.3001C103.199 52.2001 102.499 53.0001 101.599 53.0001C100.699 53.0001 99.999 52.3001 99.999 51.3001C99.999 50.4001 100.699 49.6001 101.599 49.6001C102.499 49.6001 103.199 50.3001 103.199 51.3001Z" fill="#263238"/>
<path d="M94.999 48.4001L95.599 59.6001L100.899 58.2001L94.999 48.4001Z" fill="#F28F8F"/>
<path d="M1.59968 94.2999C3.29968 95.1999 10.3997 100.2 14.1997 100.6C15.7997 100.8 16.2997 100.5 16.1997 100.1C16.0997 99.4999 15.0997 98.5999 14.7997 98.1999C14.3997 97.3999 11.7997 93.9999 12.7997 92.1999C13.7997 90.3999 14.6997 92.0999 17.0997 94.4999C19.4997 96.7999 21.8997 97.5999 23.9997 100.4C26.0997 103.1 26.7997 107.4 30.1997 110.5L43.9997 119.9C43.9997 119.9 50.3997 90.0999 53.1997 86.5999C56.1997 82.8999 69.0997 90.9999 66.3997 102.7C63.6997 114.4 57.5997 134.8 53.2997 138.8C50.4997 141.4 44.6997 138.9 37.4997 132.5C31.7997 127.4 23.8997 119.7 20.5997 117C17.2997 114.3 10.3997 112.8 7.19968 111C3.79968 109 2.99968 107.8 1.69968 105.2C0.499685 102.7 0.999685 98.6999 0.299685 97.1999C-0.300315 95.4999 -0.100315 93.2999 1.59968 94.2999Z" fill="#FFA8A7"/>
<path d="M63.9 78.7C68.3 81.5 68.5 85.5 68.8 90.1C69 94.3 68.2 100.2 66.3 105.9C64.4 111.7 61.5 122.3 61.5 122.3C61.5 122.3 50 122.6 44 117.4C44 117.4 46.7 106 48.6 97.4C50.5 88.9 52.8 79.6 63.9 78.7Z" fill="#E0E0E0"/>
<path d="M44 119.8C47.1 121.5 49 125.3 49.6 126.8C49.6 126.8 49.5 121.5 44.4 118.3L44 119.8Z" fill="#F28F8F"/>
<path d="M163.699 335.9L240.899 380.5V396.9L163.699 352.3V335.9Z" fill="#315DFF"/>
<path opacity="0.35" d="M163.699 335.9L240.899 380.5V396.9L163.699 352.3V335.9Z" fill="black"/>
<path d="M318.098 335.9L240.898 380.5V396.9L318.098 352.3V335.9Z" fill="#315DFF"/>
<path opacity="0.2" d="M318.098 335.9L240.898 380.5V396.9L318.098 352.3V335.9Z" fill="black"/>
<path d="M318.099 335.9L240.899 291.4L163.699 335.9L240.899 380.5L318.099 335.9Z" fill="#315DFF"/>
<path opacity="0.15" d="M318.099 335.9L240.899 291.4L163.699 335.9L240.899 380.5L318.099 335.9Z" fill="black"/>
<path opacity="0.1" d="M240.899 380.5V375.8L171.899 335.9H163.699L240.899 380.5Z" fill="black"/>
<path opacity="0.1" d="M240.898 291.4V296.1L309.998 335.9H318.098L240.898 291.4Z" fill="black"/>
<path d="M318.098 335.9H309.998L240.898 375.8V380.5L318.098 335.9Z" fill="#315DFF"/>
<path d="M240.899 291.4V296.1L171.899 335.9H163.699L240.899 291.4Z" fill="#315DFF"/>
<path d="M241.2 316.6L274.4 335.7C276.9 337.1 276.9 339.5 274.4 340.9L249.7 355.2C247.2 356.6 243.2 356.6 240.7 355.2L207.5 336.1C205 334.7 205 332.3 207.5 330.9L232.2 316.6C234.7 315.2 238.7 315.2 241.2 316.6Z" fill="#37474F"/>
<path d="M249.599 355.2L273.499 341.4L241.199 322.7C238.699 321.3 234.699 321.3 232.199 322.7L208.299 336.5L240.599 355.2C243.099 356.7 247.099 356.7 249.599 355.2Z" fill="#455A64"/>
<path d="M221.199 336L235.699 327.6C236.199 327.3 236.999 327.3 237.399 327.6L239.199 328.6C239.699 328.9 239.699 329.3 239.199 329.6L224.699 338C224.199 338.3 223.399 338.3 222.999 338L221.199 337C220.699 336.7 220.699 336.2 221.199 336Z" fill="#263238"/>
<path d="M242.8 348.5L257.3 340.1C257.8 339.8 258.6 339.8 259 340.1L260.8 341.1C261.3 341.4 261.3 341.8 260.8 342.1L246.3 350.5C245.8 350.8 245 350.8 244.6 350.5L242.8 349.5C242.4 349.2 242.4 348.8 242.8 348.5Z" fill="#263238"/>
<path d="M207.399 368.4C207.399 365.6 205.399 362.2 202.999 360.8C201.799 360.1 200.699 360 199.899 360.5C199.699 360.6 198.199 361.5 197.999 361.6C197.199 362.1 196.699 363 196.699 364.4C196.699 367.2 198.699 370.6 201.099 372C202.299 372.7 203.399 372.8 204.199 372.3C204.399 372.2 205.899 371.3 206.099 371.2C206.899 370.7 207.399 369.7 207.399 368.4Z" fill="#002EFF"/>
<path opacity="0.1" d="M201.099 361.9C203.499 363.3 205.499 366.7 205.499 369.5C205.499 372.3 203.499 373.4 201.099 372C198.699 370.6 196.699 367.2 196.699 364.4C196.699 361.6 198.699 360.5 201.099 361.9Z" fill="black"/>
<path d="M150.4 393.9C145.4 393.9 140.3 392.8 136.4 390.5L85.1998 360.9C81.0998 358.5 78.7998 355.2 78.7998 351.7C78.7998 348.1 81.0998 344.8 85.1998 342.5L144.5 308.2C151 304.4 156.5 294.9 156.5 287.4V99.7C156.5 98.6 157.4 97.7 158.5 97.7C159.6 97.7 160.5 98.6 160.5 99.7V287.4C160.5 296.5 154.4 307.1 146.5 311.6L87.1998 345.9C84.3998 347.5 82.7998 349.6 82.7998 351.7C82.7998 353.8 84.3998 355.8 87.1998 357.5L138.4 387.1C145 390.9 155.8 390.9 162.4 387.1L200.2 365.3C201.2 364.7 202.4 365.1 202.9 366C203.5 367 203.1 368.2 202.2 368.7L164.4 390.5C160.4 392.7 155.4 393.9 150.4 393.9Z" fill="#37474F"/>
<path d="M60.5002 27.9C60.4002 27.6 60.5002 27.4 60.7002 27.1C60.9002 26.9 61.1002 26.7 61.4002 26.7L66.3002 25.8C66.6002 25.7 66.8002 25.8 67.1002 26C67.3002 26.2 67.5002 26.4 67.6002 26.7L68.4002 30.6C68.5002 30.9 68.4002 31.1 68.2002 31.4C68.0002 31.6 67.8002 31.8 67.5002 31.9L62.6002 32.8C62.3002 32.9 62.1002 32.8 61.8002 32.6C61.6002 32.4 61.4002 32.2 61.4002 31.9L60.5002 27.9ZM56.5002 6.80002C56.4002 6.50002 56.5002 6.30002 56.7002 6.00002C56.9002 5.80002 57.1002 5.60002 57.4002 5.50002L62.3002 4.60002C62.6002 4.50002 62.8002 4.60002 63.1002 4.80002C63.3002 5.00002 63.5002 5.20002 63.6002 5.50002L66.8002 22.2C66.9002 22.5 66.8002 22.7 66.6002 23C66.4002 23.2 66.2002 23.4 65.9002 23.5L61.0002 24.4C60.7002 24.5 60.5002 24.4 60.2002 24.2C60.0002 24 59.8002 23.8 59.7002 23.5L56.5002 6.80002Z" fill="#315DFF"/>
<path d="M52.3998 44.2001C52.1998 44.0001 52.0998 43.7001 52.0998 43.4001C52.0998 43.1001 52.1998 42.9001 52.3998 42.7001L56.0998 39.4001C56.2998 39.2001 56.5998 39.1001 56.8998 39.1001C57.1998 39.1001 57.3998 39.2001 57.5998 39.4001L60.2998 42.4001C60.4998 42.6001 60.5998 42.9001 60.5998 43.2001C60.5998 43.5001 60.4998 43.7001 60.2998 43.9001L56.5998 47.2001C56.3998 47.4001 56.0998 47.5001 55.7998 47.5001C55.4998 47.5001 55.2998 47.4001 55.0998 47.2001L52.3998 44.2001ZM38.0998 28.2001C37.8998 28.0001 37.7998 27.7001 37.7998 27.4001C37.7998 27.1001 37.8998 26.9001 38.0998 26.7001L41.7998 23.4001C41.9998 23.2001 42.2998 23.1001 42.5998 23.1001C42.8998 23.1001 43.0998 23.2001 43.2998 23.4001L54.5998 36.0001C54.7998 36.2001 54.8998 36.5001 54.8998 36.8001C54.8998 37.1001 54.7998 37.3001 54.5998 37.5001L50.8998 40.8001C50.6998 41.0001 50.3998 41.1001 50.0998 41.1001C49.7998 41.1001 49.5998 41.0001 49.3998 40.8001L38.0998 28.2001Z" fill="#315DFF"/>
<g opacity="0.6">
<path d="M52.3998 44.2001C52.1998 44.0001 52.0998 43.7001 52.0998 43.4001C52.0998 43.1001 52.1998 42.9001 52.3998 42.7001L56.0998 39.4001C56.2998 39.2001 56.5998 39.1001 56.8998 39.1001C57.1998 39.1001 57.3998 39.2001 57.5998 39.4001L60.2998 42.4001C60.4998 42.6001 60.5998 42.9001 60.5998 43.2001C60.5998 43.5001 60.4998 43.7001 60.2998 43.9001L56.5998 47.2001C56.3998 47.4001 56.0998 47.5001 55.7998 47.5001C55.4998 47.5001 55.2998 47.4001 55.0998 47.2001L52.3998 44.2001ZM38.0998 28.2001C37.8998 28.0001 37.7998 27.7001 37.7998 27.4001C37.7998 27.1001 37.8998 26.9001 38.0998 26.7001L41.7998 23.4001C41.9998 23.2001 42.2998 23.1001 42.5998 23.1001C42.8998 23.1001 43.0998 23.2001 43.2998 23.4001L54.5998 36.0001C54.7998 36.2001 54.8998 36.5001 54.8998 36.8001C54.8998 37.1001 54.7998 37.3001 54.5998 37.5001L50.8998 40.8001C50.6998 41.0001 50.3998 41.1001 50.0998 41.1001C49.7998 41.1001 49.5998 41.0001 49.3998 40.8001L38.0998 28.2001Z" fill="white"/>
</g>
</g>
<defs>
<clipPath id="clip0_808_182">
<rect width="459.1" height="436.8" fill="white"/>
</clipPath>
</defs>
</svg>
