<svg width="98" height="100" viewBox="0 0 98 100" fill="none" xmlns="http://www.w3.org/2000/svg">
<path d="M40.5527 80.2715H37.0598H20.3284L0.600098 99.9998H17.3099H40.5527H57.284V80.2715H40.5527Z" fill="#2453BC"/>
<path d="M80.5269 0H57.2841H40.5527V20.0733H57.2841H60.4536H77.1849L97.2582 0H80.5269Z" fill="#2453BC"/>
<path d="M91.9324 40.1251L80.3541 60.1984L68.7758 80.2717L57.3701 100H57.2838V59.8749H22.6353L34.0195 40.1251L34.2135 39.8016L45.5977 20.0733L45.7918 19.7283L57.1976 0H57.2838V40.1251H91.9324Z" fill="#0036A3"/>
<path d="M75.2227 40.1251L63.6229 60.1984L52.0446 80.2717L40.6604 100H40.5526V59.8749H5.90405L17.2883 40.1251L17.4823 39.8016L28.8881 20.0733L29.0821 19.7283L40.4664 0H40.5526V40.1251H75.2227Z" fill="#3467C1"/>
</svg>
