<svg width="193" height="47" viewBox="0 0 193 47" fill="none" xmlns="http://www.w3.org/2000/svg">
<g clip-path="url(#clip0_139_102)">
<path d="M54.1099 16.8049V11.9678H55.0683V12.6424C55.192 12.3922 55.3451 12.2011 55.5377 12.076C55.7302 11.9509 55.9579 11.8863 56.2164 11.8863C56.6451 11.8863 56.9824 12.0507 57.2184 12.3725C57.4545 12.6972 57.5712 13.123 57.5712 13.6486C57.5712 14.2079 57.4391 14.6717 57.1777 15.0469C56.9135 15.4207 56.5425 15.6048 56.0689 15.6048C55.9424 15.6048 55.8244 15.5921 55.7162 15.5668C55.6065 15.5387 55.5039 15.498 55.4084 15.4418C55.3086 15.3842 55.1962 15.2928 55.0655 15.1649V16.8049H54.1099ZM55.0683 14.5972C55.2004 14.7489 55.3269 14.8501 55.4421 14.9021C55.5573 14.9541 55.6782 14.985 55.7948 14.985C56.0534 14.985 56.2403 14.8572 56.3682 14.6042C56.4905 14.3526 56.5537 14.0603 56.5537 13.7315C56.5537 13.3928 56.4947 13.1258 56.3767 12.9319C56.2558 12.7365 56.0858 12.6424 55.8679 12.6424C55.7302 12.6424 55.5925 12.6901 55.4548 12.7885C55.317 12.8869 55.1877 13.0204 55.0683 13.1876V14.5972Z" fill="#001680"/>
<path d="M64.5108 15.6048C64.1243 15.6048 63.7941 15.5303 63.5214 15.3813C63.2432 15.2324 63.0324 15.0103 62.889 14.7194C62.7443 14.4257 62.6726 14.1011 62.6726 13.7441C62.6726 13.3914 62.7429 13.0696 62.8848 12.7773C63.0268 12.4892 63.2361 12.2657 63.513 12.1126C63.7898 11.9622 64.1201 11.8849 64.5094 11.8849C64.8986 11.8849 65.2289 11.9622 65.5043 12.1126C65.7784 12.2643 65.9892 12.4878 66.1325 12.7773C66.2773 13.0696 66.3489 13.3914 66.3489 13.7441C66.3489 14.0997 66.2773 14.4257 66.1325 14.7194C65.985 15.0103 65.777 15.2324 65.5015 15.3813C65.2275 15.5303 64.8972 15.6048 64.5108 15.6048ZM64.5108 15.0089C64.782 15.0089 64.9858 14.8881 65.1249 14.652C65.2626 14.4117 65.3301 14.1095 65.3301 13.7455C65.3301 13.3872 65.2626 13.0864 65.1249 12.8461C64.9858 12.6058 64.7834 12.4878 64.5108 12.4878C64.2381 12.4878 64.0358 12.6058 63.8995 12.8461C63.7617 13.0864 63.6929 13.3886 63.6929 13.7455C63.6929 14.1081 63.7631 14.4117 63.8995 14.652C64.0358 14.8881 64.2381 15.0089 64.5108 15.0089Z" fill="#001680"/>
<path d="M72.2443 15.5261L71.2563 11.9678H72.1501L72.85 14.4594L73.592 11.9678H74.4225L75.0943 14.4721L75.8475 11.9678H76.5165L75.4583 15.5261H74.5406L73.8927 13.0864L73.1634 15.5261H72.2443Z" fill="#001680"/>
<path d="M84.6083 15.4052C84.1572 15.5401 83.7286 15.6048 83.321 15.6048C82.9374 15.6048 82.6015 15.5345 82.312 15.3912C82.0239 15.2464 81.7991 15.0244 81.6459 14.7166C81.4899 14.4103 81.4126 14.0772 81.4126 13.7174C81.4126 13.3858 81.4772 13.0808 81.6108 12.7969C81.7429 12.5159 81.9354 12.2952 82.1883 12.1308C82.4399 11.9664 82.7505 11.8863 83.1187 11.8863C83.5726 11.8863 83.9352 12.031 84.2064 12.3219C84.4762 12.61 84.6097 13.1483 84.6097 13.9367H82.423C82.4441 14.177 82.4975 14.3653 82.5846 14.5058C82.6746 14.6435 82.7926 14.7532 82.9388 14.8333C83.0849 14.9162 83.2817 14.9555 83.5318 14.9555C83.8494 14.9555 84.2106 14.8825 84.6097 14.7321V15.4052H84.6083ZM82.4048 13.3956H83.6653C83.6653 13.0724 83.6119 12.8363 83.5051 12.6972C83.3955 12.558 83.2592 12.4878 83.0892 12.4878C82.9037 12.4878 82.7491 12.5637 82.6324 12.7182C82.5102 12.8714 82.4371 13.0977 82.4048 13.3956Z" fill="#001680"/>
<path d="M90.0046 15.5261V11.9678H90.9617V12.6395C91.0783 12.4105 91.2343 12.2264 91.4296 12.0915C91.6306 11.9537 91.8526 11.8877 92.0958 11.8877C92.1562 11.8877 92.2124 11.8933 92.2742 11.906V12.7632C92.1421 12.7126 92.0157 12.6887 91.8962 12.6887C91.7065 12.6887 91.5336 12.7379 91.3776 12.8335C91.2217 12.929 91.0825 13.0738 90.9617 13.2677V15.5275H90.0046V15.5261Z" fill="#001680"/>
<path d="M97.6328 10.5667H98.5912V11.3677H97.6328V10.5667ZM97.6328 11.9678H98.5912V15.5261H97.6328V11.9678Z" fill="#001680"/>
<path d="M104.18 15.5261V11.9678H105.139V12.6395C105.31 12.3641 105.504 12.1702 105.712 12.0591C105.921 11.9453 106.135 11.8877 106.349 11.8877C106.631 11.8877 106.871 11.979 107.074 12.1589C107.275 12.3402 107.377 12.6227 107.377 13.0134V15.5275H106.416V13.2509C106.416 13.0583 106.399 12.9234 106.364 12.8546C106.329 12.7843 106.281 12.7323 106.216 12.6972C106.157 12.6634 106.09 12.6438 106.011 12.6438C105.879 12.6438 105.743 12.6859 105.601 12.7759C105.458 12.8616 105.306 13.033 105.137 13.2874V15.5261H104.18Z" fill="#001680"/>
<path d="M112.952 16.6293L113.03 15.9336C113.422 16.1149 113.796 16.2063 114.148 16.2063C114.48 16.2063 114.73 16.136 114.899 15.9941C115.065 15.8549 115.146 15.6048 115.146 15.2408V14.7574C115.045 14.9836 114.896 15.1691 114.699 15.3111C114.502 15.4516 114.272 15.5261 113.999 15.5261C113.725 15.5261 113.482 15.4558 113.276 15.3167C113.065 15.179 112.906 14.971 112.796 14.6955C112.682 14.4173 112.628 14.1081 112.628 13.7652C112.628 13.2326 112.764 12.7843 113.03 12.4259C113.298 12.0662 113.672 11.8863 114.148 11.8863C114.273 11.8863 114.389 11.8989 114.494 11.9256C114.601 11.9509 114.701 11.9917 114.796 12.0465C114.893 12.1027 115.013 12.1955 115.146 12.3248L115.25 11.9664H116.107V14.6815C116.107 15.3982 116.038 15.8816 115.902 16.1304C115.762 16.3777 115.551 16.5646 115.267 16.6925C114.979 16.8176 114.651 16.8808 114.285 16.8808C113.874 16.8822 113.429 16.7979 112.952 16.6293ZM115.146 14.1995V12.8869C115.013 12.7323 114.885 12.6269 114.767 12.5721C114.65 12.5201 114.539 12.4934 114.431 12.4934C114.193 12.4934 114.003 12.603 113.863 12.8251C113.721 13.0443 113.648 13.345 113.648 13.7174C113.648 14.0421 113.706 14.295 113.822 14.4805C113.933 14.6632 114.096 14.7574 114.313 14.7574C114.466 14.7574 114.612 14.7096 114.753 14.6182C114.892 14.5241 115.024 14.385 115.146 14.1995Z" fill="#001680"/>
<path d="M129.85 15.5064C129.618 15.5697 129.441 15.6034 129.309 15.6034C128.996 15.6034 128.752 15.5612 128.578 15.4727C128.407 15.3828 128.277 15.2633 128.189 15.1101C128.105 14.9598 128.061 14.7363 128.061 14.4398V12.5665H127.663V11.9678H128.061V11.3677L129.019 11.2567V11.9664H129.778V12.5651H129.019V14.3077C129.019 14.5649 129.066 14.7377 129.156 14.8262C129.244 14.9162 129.379 14.9612 129.552 14.9612C129.635 14.9612 129.732 14.9471 129.85 14.919V15.5064Z" fill="#001680"/>
<path d="M136.837 15.6048C136.454 15.6048 136.123 15.5303 135.849 15.3813C135.572 15.2324 135.364 15.0103 135.22 14.7194C135.072 14.4257 135 14.1011 135 13.7441C135 13.3914 135.072 13.0696 135.216 12.7773C135.357 12.4892 135.568 12.2657 135.842 12.1126C136.119 11.9622 136.451 11.8849 136.839 11.8849C137.227 11.8849 137.558 11.9622 137.835 12.1126C138.109 12.2643 138.321 12.4878 138.463 12.7773C138.608 13.0696 138.68 13.3914 138.68 13.7441C138.68 14.0997 138.608 14.4257 138.463 14.7194C138.318 15.0103 138.108 15.2324 137.831 15.3813C137.554 15.5303 137.224 15.6048 136.837 15.6048ZM136.837 15.0089C137.11 15.0089 137.314 14.8881 137.45 14.652C137.588 14.4117 137.657 14.1095 137.657 13.7455C137.657 13.3872 137.588 13.0864 137.45 12.8461C137.314 12.6058 137.11 12.4878 136.837 12.4878C136.566 12.4878 136.362 12.6058 136.226 12.8461C136.088 13.0864 136.019 13.3886 136.019 13.7455C136.019 14.1081 136.088 14.4117 136.226 14.652C136.362 14.8881 136.566 15.0089 136.837 15.0089Z" fill="#001680"/>
<path d="M144.167 15.5261V11.9678H145.088V12.6395C145.209 12.4231 145.366 12.2432 145.564 12.1013C145.761 11.9594 146.001 11.8877 146.288 11.8877C146.46 11.8877 146.609 11.913 146.736 11.9664C146.861 12.0198 146.974 12.1041 147.072 12.2165C147.172 12.329 147.234 12.4709 147.262 12.6395C147.44 12.3711 147.619 12.1786 147.802 12.0634C147.984 11.9453 148.205 11.8877 148.468 11.8877C148.756 11.8877 148.989 11.9706 149.17 12.1421C149.352 12.3107 149.44 12.5861 149.44 12.9642V15.5261H148.523V13.2733C148.523 13.0091 148.479 12.8363 148.392 12.7604C148.312 12.6803 148.212 12.6424 148.108 12.6424C147.963 12.6424 147.823 12.6958 147.681 12.7983C147.539 12.9037 147.403 13.0583 147.263 13.2663V15.5261H146.344V13.2776C146.344 13.0134 146.302 12.8419 146.221 12.7618C146.136 12.6817 146.038 12.6424 145.92 12.6424C145.781 12.6424 145.64 12.6958 145.503 12.7983C145.363 12.8995 145.224 13.0555 145.088 13.2663V15.5261H144.167Z" fill="#001680"/>
<path d="M156.733 15.6048C156.349 15.6048 156.016 15.5303 155.745 15.3813C155.468 15.2324 155.26 15.0103 155.112 14.7194C154.969 14.4257 154.896 14.1011 154.896 13.7441C154.896 13.3914 154.969 13.0696 155.111 12.7773C155.253 12.4892 155.464 12.2657 155.738 12.1126C156.014 11.9622 156.346 11.8849 156.734 11.8849C157.122 11.8849 157.456 11.9622 157.73 12.1126C158.007 12.2643 158.217 12.4878 158.361 12.7773C158.503 13.0696 158.575 13.3914 158.575 13.7441C158.575 14.0997 158.503 14.4257 158.358 14.7194C158.212 15.0103 158.003 15.2324 157.729 15.3813C157.453 15.5303 157.12 15.6048 156.733 15.6048ZM156.733 15.0089C157.005 15.0089 157.209 14.8881 157.347 14.652C157.487 14.4117 157.555 14.1095 157.555 13.7455C157.555 13.3872 157.489 13.0864 157.347 12.8461C157.209 12.6058 157.005 12.4878 156.733 12.4878C156.46 12.4878 156.26 12.6058 156.124 12.8461C155.985 13.0864 155.915 13.3886 155.915 13.7455C155.915 14.1081 155.985 14.4117 156.124 14.652C156.26 14.8881 156.46 15.0089 156.733 15.0089Z" fill="#001680"/>
<path d="M164.063 15.5261V11.9678H165.024V12.6395C165.138 12.4105 165.292 12.2264 165.492 12.0915C165.69 11.9537 165.911 11.8877 166.157 11.8877C166.216 11.8877 166.275 11.8933 166.335 11.906V12.7632C166.2 12.7126 166.074 12.6887 165.959 12.6887C165.766 12.6887 165.595 12.7379 165.439 12.8335C165.284 12.929 165.145 13.0738 165.024 13.2677V15.5275H164.063V15.5261Z" fill="#001680"/>
<path d="M171.691 15.5261V11.9678H172.651V12.6395C172.762 12.4105 172.922 12.2264 173.118 12.0915C173.318 11.9537 173.54 11.8877 173.785 11.8877C173.844 11.8877 173.9 11.8933 173.963 11.906V12.7632C173.828 12.7126 173.7 12.6887 173.582 12.6887C173.391 12.6887 173.22 12.7379 173.065 12.8335C172.908 12.929 172.769 13.0738 172.649 13.2677V15.5275H171.691V15.5261Z" fill="#001680"/>
<path d="M180.841 15.6048C180.457 15.6048 180.127 15.5303 179.85 15.3813C179.576 15.2324 179.364 15.0103 179.219 14.7194C179.076 14.4257 179.004 14.1011 179.004 13.7441C179.004 13.3914 179.076 13.0696 179.218 12.7773C179.36 12.4892 179.57 12.2657 179.845 12.1126C180.121 11.9622 180.453 11.8849 180.841 11.8849C181.229 11.8849 181.563 11.9622 181.837 12.1126C182.114 12.2643 182.324 12.4878 182.465 12.7773C182.61 13.0696 182.682 13.3914 182.682 13.7441C182.682 14.0997 182.607 14.4257 182.464 14.7194C182.319 15.0103 182.11 15.2324 181.836 15.3813C181.559 15.5303 181.226 15.6048 180.841 15.6048ZM180.841 15.0089C181.114 15.0089 181.317 14.8881 181.454 14.652C181.591 14.4117 181.662 14.1095 181.662 13.7455C181.662 13.3872 181.591 13.0864 181.454 12.8461C181.316 12.6058 181.112 12.4878 180.841 12.4878C180.571 12.4878 180.369 12.6058 180.231 12.8461C180.092 13.0864 180.022 13.3886 180.022 13.7455C180.022 14.1081 180.092 14.4117 180.231 14.652C180.369 14.8881 180.572 15.0089 180.841 15.0089Z" fill="#001680"/>
<path d="M188.567 15.5261L187.575 11.9678H188.468L189.167 14.4594L189.914 11.9678H190.741L191.416 14.4721L192.171 11.9678H192.84L191.78 15.5261H190.862L190.212 13.0864L189.485 15.5261H188.567Z" fill="#001680"/>
<path d="M54.1099 46.359V23.2807H60.3312V27.6302C61.0719 26.1447 62.0879 24.9586 63.3766 24.0775C64.6667 23.1949 66.1015 22.7509 67.6881 22.7509C68.0676 22.7509 68.4498 22.7958 68.8433 22.8787V28.4284C67.9734 28.1052 67.1541 27.9407 66.3854 27.9407C65.1515 27.9407 64.0287 28.2541 63.0196 28.8809C62.0134 29.5006 61.1168 30.4422 60.3312 31.7056V46.3561H54.1099V46.359Z" fill="#001680"/>
<path d="M83.4375 46.8845C80.943 46.8845 78.8013 46.3997 77.018 45.4258C75.2318 44.4533 73.87 43.0171 72.9299 41.1283C71.9911 39.2339 71.5217 37.133 71.5217 34.8212C71.5217 32.5207 71.9827 30.4282 72.9088 28.545C73.8335 26.6619 75.1924 25.2228 76.9842 24.2363C78.7816 23.2483 80.9276 22.7509 83.4375 22.7509C85.9573 22.7509 88.1116 23.2469 89.9006 24.2363C91.684 25.2228 93.0443 26.6619 93.9746 28.545C94.9092 30.4268 95.3729 32.5207 95.3729 34.8212C95.3729 37.1316 94.9022 39.2339 93.9662 41.1283C93.0275 43.0171 91.6643 44.4533 89.8795 45.4258C88.0905 46.3997 85.946 46.8845 83.4375 46.8845ZM83.4375 42.996C85.2012 42.996 86.5306 42.2217 87.4202 40.673C88.307 39.1257 88.7525 37.1737 88.7525 34.8212C88.7525 32.4799 88.307 30.5322 87.4202 28.9765C86.5306 27.4222 85.2026 26.6422 83.4375 26.6422C81.6851 26.6422 80.3655 27.4208 79.4745 28.9765C78.5849 30.5336 78.1422 32.4799 78.1422 34.8212C78.1422 37.1723 78.5863 39.1257 79.4745 40.673C80.3655 42.2217 81.6851 42.996 83.4375 42.996Z" fill="#001680"/>
<path d="M105.16 46.3589L98.7375 23.2806H104.52L109.064 39.4461L113.895 23.2806H119.268L123.629 39.529L128.525 23.2806H132.86L125.998 46.3589H120.035L115.832 30.5293L111.123 46.3589H105.16Z" fill="#001680"/>
<path d="M149.508 43.8785C148.611 44.7499 147.831 45.3738 147.174 45.7504C146.514 46.1299 145.831 46.4124 145.115 46.6021C144.399 46.7918 143.645 46.8845 142.847 46.8845C140.784 46.8845 139.136 46.2437 137.896 44.9621C136.656 43.6762 136.035 42.105 136.035 40.2444C136.035 37.9734 136.965 36.0776 138.822 34.5556C140.677 33.035 143.686 32.2762 147.845 32.2762H149.508V30.1738C149.508 28.7586 149.114 27.8058 148.327 27.3154C147.546 26.8263 146.552 26.579 145.348 26.579C142.963 26.579 140.533 27.2648 138.054 28.6392V24.3529C140.872 23.2877 143.671 22.7523 146.46 22.7523C148.167 22.7523 149.693 22.9855 151.041 23.4479C152.386 23.9102 153.46 24.6284 154.266 25.6009C155.069 26.5776 155.476 28.0307 155.476 29.963V40.1825C155.476 41.4277 155.667 42.1908 156.057 42.4718C156.439 42.7515 156.82 42.8906 157.199 42.8906C157.424 42.8906 157.851 42.8639 158.186 42.8077L158.187 46.2985C156.872 46.6906 155.701 46.8845 154.675 46.8845C153.527 46.8845 152.536 46.692 151.703 46.3084C150.87 45.9233 150.227 45.1152 149.78 43.8785H149.508ZM149.508 40.5381V35.8485H148.035C146.004 35.8485 144.492 36.2111 143.497 36.932C142.501 37.6529 142.005 38.5552 142.005 39.6331C142.005 40.517 142.305 41.2407 142.91 41.8071C143.511 42.3763 144.217 42.6587 145.032 42.6587C145.76 42.6587 146.499 42.4831 147.248 42.1233C147.997 41.7677 148.749 41.2379 149.508 40.5381Z" fill="#001680"/>
<path d="M175.395 46.2367C173.913 46.6682 172.74 46.8846 171.886 46.8846C169.857 46.8846 168.279 46.5993 167.159 46.0273C166.038 45.4511 165.197 44.6684 164.637 43.6776C164.077 42.6911 163.798 41.2394 163.798 39.3197V27.1706H161.211V23.2821H174.954V27.1706H170.016V38.4849C170.016 40.1517 170.311 41.2745 170.901 41.8507C171.487 42.4325 172.348 42.7248 173.483 42.7248C174.018 42.7248 174.652 42.6391 175.395 42.4719V46.2367Z" fill="#001680"/>
<path d="M192.839 46.2367C191.354 46.6682 190.182 46.8846 189.33 46.8846C187.3 46.8846 185.723 46.5993 184.6 46.0273C183.48 45.4511 182.641 44.6684 182.082 43.6776C181.521 42.6911 181.239 41.2394 181.239 39.3197V27.1706H178.656V23.2821H192.397V27.1706H187.461V38.4849C187.461 40.1517 187.755 41.2745 188.342 41.8507C188.93 42.4325 189.793 42.7248 190.927 42.7248C191.459 42.7248 192.096 42.6391 192.839 42.4719V46.2367Z" fill="#001680"/>
<path d="M23.9474 23.2442V31.9178H35.4837C32.8473 35.4171 28.6581 37.6867 23.9474 37.6867C15.9848 37.6867 9.50907 31.2053 9.50907 23.2456C9.50907 15.283 15.9862 8.80582 23.9474 8.80582C27.8022 8.80582 31.428 10.3081 34.1557 13.0345V13.0387L39.5971 7.59724L40.2857 6.90723V6.90441C36.1035 2.72216 30.329 0.133545 23.9474 0.133545C11.187 0.133545 0.8396 10.4824 0.8396 23.2442C0.8396 36.0088 11.187 46.359 23.9474 46.359C29.4127 46.359 34.4297 44.4562 38.3857 41.2872V46.359H47.0566V31.9178V23.2442H23.9474Z" fill="#001680"/>
</g>
<defs>
<clipPath id="clip0_139_102">
<rect width="192" height="46.751" fill="white" transform="translate(0.8396 0.133545)"/>
</clipPath>
</defs>
</svg>
