<svg width="26" height="26" viewBox="0 0 26 26" fill="none" xmlns="http://www.w3.org/2000/svg">
<path d="M23.7758 17.9937V21.1437C23.777 21.4362 23.7171 21.7256 23.6 21.9936C23.4828 22.2615 23.311 22.502 23.0955 22.6997C22.88 22.8974 22.6256 23.0479 22.3486 23.1416C22.0716 23.2353 21.7781 23.2701 21.4868 23.2437C18.2558 22.8927 15.1522 21.7886 12.4253 20.0202C9.88835 18.4081 7.73744 16.2572 6.12533 13.7202C4.35081 10.981 3.24649 7.86228 2.90183 4.61674C2.87559 4.32638 2.9101 4.03374 3.00316 3.75744C3.09622 3.48115 3.24578 3.22726 3.44234 3.01194C3.63889 2.79662 3.87813 2.62458 4.14481 2.50679C4.4115 2.38899 4.69979 2.32801 4.99133 2.32774H8.14133C8.65091 2.32272 9.14491 2.50317 9.53128 2.83545C9.91765 3.16772 10.17 3.62916 10.2413 4.13374C10.3743 5.14181 10.6209 6.1316 10.9763 7.08424C11.1176 7.46006 11.1482 7.8685 11.0644 8.26116C10.9807 8.65383 10.7861 9.01426 10.5038 9.29974L9.17033 10.6332C10.6651 13.262 12.8416 15.4385 15.4703 16.9332L16.8038 15.5997C17.0893 15.3174 17.4497 15.1229 17.8424 15.0391C18.2351 14.9554 18.6435 14.986 19.0193 15.1272C19.972 15.4827 20.9618 15.7293 21.9698 15.8622C22.4799 15.9342 22.9457 16.1911 23.2787 16.5841C23.6117 16.9771 23.7886 17.4788 23.7758 17.9937Z" stroke="white" stroke-width="1.6" stroke-linecap="round" stroke-linejoin="round"/>
</svg>
