<svg width="49" height="49" viewBox="0 0 49 49" fill="none" xmlns="http://www.w3.org/2000/svg">
<path d="M5.65918 9.34321L9.45918 5.54321L13.2592 8.39321L17.0592 5.54321L20.8592 8.39321L24.6592 5.54321L28.4592 8.39321L32.2592 5.54321L36.0592 8.39321L39.8592 5.54321L43.6592 9.34321L40.8092 13.1432L43.6592 16.9432L40.8092 20.7432L43.6592 24.5432L40.8092 28.3432L43.6592 32.1432L40.8092 35.9432L43.6592 39.7432L39.8592 43.5432L36.0592 40.6932L32.2592 43.5432L28.4592 40.6932L24.6592 43.5432L20.8592 40.6932L17.0592 43.5432L13.2592 40.6932L9.45918 43.5432L5.65918 39.7432L8.50918 35.9432L5.65918 32.1432L8.50918 28.3432L5.65918 24.5432L8.50918 20.7432L5.65918 16.9432L8.50918 13.1432L5.65918 9.34321Z" stroke="#001680" stroke-width="1.8" stroke-linecap="round" stroke-linejoin="round"/>
<path d="M24.6597 35.7712C30.8607 35.7712 35.8877 30.7443 35.8877 24.5432C35.8877 18.3421 30.8607 13.3152 24.6597 13.3152C18.4586 13.3152 13.4316 18.3421 13.4316 24.5432C13.4316 30.7443 18.4586 35.7712 24.6597 35.7712Z" stroke="#001680" stroke-width="1.8" stroke-linecap="round" stroke-linejoin="round"/>
<path d="M28.1663 21.7688L23.1247 26.8105L20.833 24.5188" stroke="#001680" stroke-width="1.8" stroke-linecap="round" stroke-linejoin="round"/>
</svg>
