<svg width="26" height="26" viewBox="0 0 26 26" fill="none" xmlns="http://www.w3.org/2000/svg">
<path d="M23.0998 18.5287V21.6787C23.101 21.9711 23.0411 22.2606 22.9239 22.5285C22.8068 22.7965 22.635 23.037 22.4195 23.2347C22.204 23.4324 21.9496 23.5829 21.6726 23.6766C21.3956 23.7702 21.102 23.805 20.8108 23.7787C17.5798 23.4276 14.4762 22.3236 11.7493 20.5552C9.21233 18.9431 7.06141 16.7922 5.44931 14.2552C3.67478 11.516 2.57046 8.39726 2.22581 5.15171C2.19957 4.86135 2.23408 4.56871 2.32713 4.29242C2.42019 4.01612 2.56976 3.76224 2.76631 3.54691C2.96287 3.33159 3.2021 3.15956 3.46879 3.04176C3.73547 2.92396 4.02377 2.86299 4.31531 2.86271H7.46531C7.97488 2.8577 8.46889 3.03814 8.85526 3.37042C9.24163 3.7027 9.49399 4.16413 9.56531 4.66871C9.69826 5.67678 9.94483 6.66657 10.3003 7.61921C10.4416 7.99503 10.4722 8.40347 10.3884 8.79614C10.3047 9.1888 10.1101 9.54923 9.82781 9.83471L8.49431 11.1682C9.98904 13.7969 12.1656 15.9735 14.7943 17.4682L16.1278 16.1347C16.4133 15.8524 16.7737 15.6579 17.1664 15.5741C17.559 15.4904 17.9675 15.5209 18.3433 15.6622C19.2959 16.0177 20.2857 16.2643 21.2938 16.3972C21.8039 16.4692 22.2697 16.7261 22.6027 17.1191C22.9357 17.5121 23.1126 18.0138 23.0998 18.5287Z" stroke="#002EFF" stroke-width="1.6" stroke-linecap="round" stroke-linejoin="round"/>
</svg>
