<svg width="24" height="25" viewBox="0 0 24 25" fill="none" xmlns="http://www.w3.org/2000/svg">
<g clip-path="url(#clip0_298_216)">
<path d="M21 10.9868C21 17.9868 12 23.9868 12 23.9868C12 23.9868 3 17.9868 3 10.9868C3 8.59987 3.94821 6.31068 5.63604 4.62286C7.32387 2.93503 9.61305 1.98682 12 1.98682C14.3869 1.98682 16.6761 2.93503 18.364 4.62286C20.0518 6.31068 21 8.59987 21 10.9868Z" stroke="#002EFF" stroke-width="1.4" stroke-linecap="round" stroke-linejoin="round"/>
<path d="M12 13.9868C13.6569 13.9868 15 12.6437 15 10.9868C15 9.32996 13.6569 7.98682 12 7.98682C10.3431 7.98682 9 9.32996 9 10.9868C9 12.6437 10.3431 13.9868 12 13.9868Z" stroke="#002EFF" stroke-width="1.4" stroke-linecap="round" stroke-linejoin="round"/>
</g>
<defs>
<clipPath id="clip0_298_216">
<rect width="24" height="24" fill="white" transform="translate(0 0.986816)"/>
</clipPath>
</defs>
</svg>
