<svg width="27" height="27" viewBox="0 0 27 27" fill="none" xmlns="http://www.w3.org/2000/svg">
<path d="M24 18.6659V21.8159C24.0011 22.1083 23.9412 22.3977 23.8241 22.6657C23.7069 22.9336 23.5351 23.1741 23.3196 23.3718C23.1042 23.5695 22.8498 23.72 22.5727 23.8137C22.2957 23.9074 22.0022 23.9422 21.711 23.9159C18.4799 23.5648 15.3763 22.4607 12.6495 20.6924C10.1125 19.0803 7.96156 16.9293 6.34945 14.3924C4.57493 11.6531 3.47061 8.5344 3.12595 5.28886C3.09972 4.9985 3.13422 4.70586 3.22728 4.42956C3.32034 4.15327 3.4699 3.89938 3.66646 3.68406C3.86301 3.46874 4.10225 3.2967 4.36893 3.17891C4.63562 3.06111 4.92391 3.00013 5.21545 2.99986H8.36545C8.87503 2.99484 9.36904 3.17529 9.7554 3.50757C10.1418 3.83984 10.3941 4.30128 10.4655 4.80586C10.5984 5.81393 10.845 6.80372 11.2005 7.75636C11.3417 8.13218 11.3723 8.54062 11.2886 8.93328C11.2048 9.32595 11.0103 9.68637 10.728 9.97186L9.39445 11.3054C10.8892 13.9341 13.0657 16.1106 15.6945 17.6054L17.028 16.2719C17.3134 15.9896 17.6739 15.795 18.0665 15.7113C18.4592 15.6275 18.8676 15.6581 19.2435 15.7994C20.1961 16.1548 21.1859 16.4014 22.194 16.5344C22.704 16.6063 23.1698 16.8632 23.5028 17.2562C23.8358 17.6492 24.0127 18.1509 24 18.6659Z" stroke="#001680" stroke-width="1.6" stroke-linecap="round" stroke-linejoin="round"/>
</svg>
