<svg width="26" height="26" viewBox="0 0 26 26" fill="none" xmlns="http://www.w3.org/2000/svg">
<path d="M18.1265 2.87646H7.62646C4.72697 2.87646 2.37646 5.22697 2.37646 8.12646V18.6265C2.37646 21.526 4.72697 23.8765 7.62646 23.8765H18.1265C21.026 23.8765 23.3765 21.526 23.3765 18.6265V8.12646C23.3765 5.22697 21.026 2.87646 18.1265 2.87646Z" stroke="white" stroke-width="1.6" stroke-linecap="round" stroke-linejoin="round"/>
<path d="M17.0763 12.7148C17.2058 13.5887 17.0566 14.4811 16.6497 15.2653C16.2428 16.0494 15.5991 16.6853 14.81 17.0825C14.0209 17.4796 13.1266 17.6179 12.2544 17.4775C11.3822 17.3372 10.5765 16.9254 9.95184 16.3007C9.32717 15.676 8.91537 14.8703 8.77503 13.9981C8.63468 13.1259 8.77292 12.2317 9.1701 11.4426C9.56727 10.6535 10.2032 10.0097 10.9873 9.60285C11.7714 9.19597 12.6639 9.04671 13.5378 9.17629C14.4291 9.30847 15.2543 9.72383 15.8915 10.361C16.5287 10.9982 16.9441 11.8234 17.0763 12.7148Z" stroke="white" stroke-width="1.6" stroke-linecap="round" stroke-linejoin="round"/>
<path d="M18.6514 7.60156H18.663" stroke="white" stroke-width="1.6" stroke-linecap="round" stroke-linejoin="round"/>
</svg>
