<svg width="38" height="37" viewBox="0 0 38 37" fill="none" xmlns="http://www.w3.org/2000/svg">
<path d="M18.612 33.8809C22.8647 33.8809 26.7148 32.1571 29.5017 29.3702C32.2887 26.5832 34.0125 22.7331 34.0125 18.4804C34.0125 14.2277 32.2887 10.3775 29.5017 7.59054C26.7148 4.8036 22.8647 3.07983 18.612 3.07983C14.3593 3.07983 10.5091 4.8036 7.72213 7.59054C4.93519 10.3775 3.21143 14.2277 3.21143 18.4804C3.21143 22.7331 4.93519 26.5832 7.72213 29.3702C10.5091 32.1571 14.3593 33.8809 18.612 33.8809Z" stroke="#001680" stroke-width="2.31008" stroke-linejoin="round"/>
<g clip-path="url(#clip0_157_27)">
<path d="M18.6119 17.3916L22.4235 13.58L23.5123 14.6688L19.7007 18.4804L23.5123 22.292L22.4235 23.3809L18.6119 19.5692L14.8002 23.3809L13.7114 22.292L17.5231 18.4804L13.7114 14.6688L14.8002 13.58L18.6119 17.3916Z" fill="#001680"/>
</g>
<defs>
<clipPath id="clip0_157_27">
<rect width="18.4806" height="18.4806" fill="white" transform="translate(9.37158 9.24011)"/>
</clipPath>
</defs>
</svg>
