<svg width="76" height="76" viewBox="0 0 76 76" fill="none" xmlns="http://www.w3.org/2000/svg">
<path d="M38 68.7812C55.2589 68.7812 69.25 54.7902 69.25 37.5312C69.25 20.2723 55.2589 6.28125 38 6.28125C20.7411 6.28125 6.75 20.2723 6.75 37.5312C6.75 54.7902 20.7411 68.7812 38 68.7812Z" stroke="#001680" stroke-width="3.5"/>
<path d="M6.75 32.5944C11.4607 30.37 14.9448 30.0601 17.2022 31.6647C20.5884 34.0717 21.013 43.8812 28.7148 39.1929C36.4167 34.5047 25.4167 32.5943 27.8047 25.8029C30.1927 19.0115 38.013 24.287 38.7905 16.8479C39.3086 11.8884 33.3763 9.9908 20.9931 11.155" stroke="#001680" stroke-width="3.5"/>
<path d="M56.7501 12.5312C47.8214 20.3259 44.7029 25.033 47.3948 26.652C51.4324 29.0808 53.1457 25.6614 58.0729 26.652C63.0001 27.6428 61.9332 34.3214 59.3417 34.3214C56.7501 34.3214 43.3281 32.6122 44.0042 40.4453C44.6801 48.2783 52.7534 49.438 52.7534 53.8142C52.7534 56.7317 50.9671 61.1969 47.3948 67.2097" stroke="#001680" stroke-width="3.5" stroke-linecap="round"/>
<path d="M10.0381 51.4788C11.4623 50.8576 12.5329 50.4022 13.2498 50.1126C19.2609 47.6841 23.7212 47.1116 26.6304 48.3954C31.775 50.6655 29.7972 55.2502 31.4086 56.9393C33.0198 58.6283 37.0436 58.1369 37.0436 61.3501C37.0436 63.4922 36.324 65.9121 34.885 68.6096" stroke="#001680" stroke-width="3.5" stroke-linecap="round"/>
</svg>
