<svg width="27" height="27" viewBox="0 0 27 27" fill="none" xmlns="http://www.w3.org/2000/svg">
<path d="M18.75 3H8.25C5.3505 3 3 5.3505 3 8.25V18.75C3 21.6495 5.3505 24 8.25 24H18.75C21.6495 24 24 21.6495 24 18.75V8.25C24 5.3505 21.6495 3 18.75 3Z" stroke="#001680" stroke-width="1.6" stroke-linecap="round" stroke-linejoin="round"/>
<path d="M17.6998 12.8383C17.8294 13.7122 17.6801 14.6047 17.2732 15.3888C16.8664 16.1729 16.2226 16.8088 15.4335 17.206C14.6444 17.6032 13.7502 17.7414 12.878 17.6011C12.0058 17.4607 11.2 17.0489 10.5754 16.4242C9.9507 15.7996 9.53891 14.9938 9.39856 14.1217C9.25821 13.2495 9.39646 12.3552 9.79363 11.5661C10.1908 10.777 10.8267 10.1333 11.6108 9.72638C12.395 9.31951 13.2874 9.17025 14.1613 9.29983C15.0527 9.43201 15.8779 9.84737 16.5151 10.4846C17.1523 11.1217 17.5676 11.947 17.6998 12.8383Z" stroke="#001680" stroke-width="1.6" stroke-linecap="round" stroke-linejoin="round"/>
<path d="M19.2749 7.72485H19.2866" stroke="#001680" stroke-width="1.6" stroke-linecap="round" stroke-linejoin="round"/>
</svg>
