<svg width="66" height="66" viewBox="0 0 66 66" fill="none" xmlns="http://www.w3.org/2000/svg">
<path d="M33.0002 27.9544C38.2354 27.9544 42.4793 23.7105 42.4793 18.4753C42.4793 13.2401 38.2354 8.99609 33.0002 8.99609C27.765 8.99609 23.521 13.2401 23.521 18.4753C23.521 23.7105 27.765 27.9544 33.0002 27.9544Z" stroke="#001680" stroke-width="3" stroke-linecap="round" stroke-linejoin="round"/>
<path d="M16.75 10.6953C14.2942 12.4083 12.6875 15.2541 12.6875 18.4754C12.6875 21.9235 14.5286 24.9417 17.2814 26.6004" stroke="#001680" stroke-width="3" stroke-linecap="round" stroke-linejoin="round"/>
<path d="M49.25 10.6953C51.7058 12.4083 53.3125 15.2541 53.3125 18.4754C53.3125 21.6966 51.7058 24.5426 49.25 26.2555" stroke="#001680" stroke-width="3" stroke-linecap="round" stroke-linejoin="round"/>
<path d="M16.75 55.0378V57.7462H49.25V55.0378C49.25 49.9902 49.25 47.4663 48.4253 45.4754C47.3259 42.821 45.2169 40.712 42.5624 39.6125C40.5716 38.7878 38.0477 38.7878 33 38.7878C27.9523 38.7878 25.4284 38.7878 23.4376 39.6125C20.7831 40.712 18.6741 42.821 17.5747 45.4754C16.75 47.4663 16.75 49.9902 16.75 55.0378Z" stroke="#001680" stroke-width="3" stroke-linecap="round" stroke-linejoin="round"/>
<path d="M60.0831 57.7462V56.1212C60.0831 50.054 60.0831 47.0204 58.9024 44.703C57.8638 42.6646 56.2064 41.0074 54.168 39.9688" stroke="#001680" stroke-width="3" stroke-linecap="round" stroke-linejoin="round"/>
<path d="M5.91699 57.7462V56.1212C5.91699 50.054 5.91699 47.0204 7.09776 44.703C8.13638 42.6646 9.79367 41.0074 11.8321 39.9688" stroke="#001680" stroke-width="3" stroke-linecap="round" stroke-linejoin="round"/>
</svg>
