<svg width="80" height="81" viewBox="0 0 80 81" fill="none" xmlns="http://www.w3.org/2000/svg">
<path fill-rule="evenodd" clip-rule="evenodd" d="M40 68.3647C56.5685 68.3647 70 54.4947 70 45.0313C70 35.568 56.5685 21.698 40 21.698C23.4315 21.698 10 35.5777 10 45.0313C10 54.485 23.4315 68.3647 40 68.3647Z" stroke="#001680" stroke-width="3.5" stroke-linejoin="round"/>
<path d="M40 55.0312C45.5228 55.0312 50 50.5541 50 45.0312C50 39.5084 45.5228 35.0312 40 35.0312C34.4772 35.0312 30 39.5084 30 45.0312C30 50.5541 34.4772 55.0312 40 55.0312Z" stroke="#001680" stroke-width="3.5" stroke-linejoin="round"/>
<path d="M22.106 18.8081L26.4301 24.8418" stroke="#001680" stroke-width="3.5" stroke-linecap="round"/>
<path d="M59.3751 19.5486L55.0508 25.5824" stroke="#001680" stroke-width="3.5" stroke-linecap="round"/>
<path d="M40.0146 11.698V21.698" stroke="#001680" stroke-width="3.5" stroke-linecap="round"/>
</svg>
