<svg width="80" height="81" viewBox="0 0 80 81" fill="none" xmlns="http://www.w3.org/2000/svg">
<path d="M39.8144 66.8444C54.5478 66.8444 66.4811 54.911 66.4811 40.1777C66.4811 25.4444 54.5478 13.511 39.8144 13.511C25.0811 13.511 13.1477 25.4444 13.1477 40.1777C13.1477 54.911 25.0811 66.8444 39.8144 66.8444Z" stroke="#001680" stroke-width="3.5" stroke-miterlimit="2" stroke-linejoin="round"/>
<path d="M39.8145 53.5111C47.1812 53.5111 53.1479 47.5445 53.1479 40.1778C53.1479 32.8112 47.1812 26.8445 39.8145 26.8445C32.4479 26.8445 26.4812 32.8112 26.4812 40.1778C26.4812 47.5445 32.4479 53.5111 39.8145 53.5111Z" stroke="#001680" stroke-width="3.5" stroke-miterlimit="2" stroke-linejoin="round"/>
<path d="M39.8145 43.5111C41.6479 43.5111 43.1479 42.0111 43.1479 40.1778C43.1479 38.3445 41.6479 36.8445 39.8145 36.8445C37.9812 36.8445 36.4812 38.3445 36.4812 40.1778C36.4812 42.0111 37.9812 43.5111 39.8145 43.5111Z" fill="#001680"/>
<path d="M39.8145 13.5111V6.84448" stroke="#001680" stroke-width="3.5" stroke-miterlimit="2" stroke-linecap="round" stroke-linejoin="round"/>
<path d="M63.1479 73.5111L56.4812 61.8445" stroke="#001680" stroke-width="3.5" stroke-miterlimit="2" stroke-linecap="round" stroke-linejoin="round"/>
<path d="M23.1479 61.8445L16.4812 73.5111" stroke="#001680" stroke-width="3.5" stroke-miterlimit="2" stroke-linecap="round" stroke-linejoin="round"/>
</svg>
