<svg width="25" height="25" viewBox="0 0 25 25" fill="none" xmlns="http://www.w3.org/2000/svg">
<g clip-path="url(#clip0_298_94)">
<path d="M22.6163 6.79793C22.4975 6.32334 22.2555 5.8885 21.9149 5.53734C21.5743 5.18617 21.147 4.93111 20.6763 4.79793C18.9563 4.37793 12.0763 4.37793 12.0763 4.37793C12.0763 4.37793 5.19626 4.37793 3.47626 4.83793C3.0055 4.97111 2.57823 5.22617 2.2376 5.57734C1.89697 5.9285 1.65504 6.36334 1.53626 6.83793C1.22147 8.58349 1.06749 10.3542 1.07626 12.1279C1.06503 13.915 1.21902 15.6992 1.53626 17.4579C1.66721 17.9178 1.91456 18.3361 2.2544 18.6724C2.59424 19.0087 3.01508 19.2517 3.47626 19.3779C5.19626 19.8379 12.0763 19.8379 12.0763 19.8379C12.0763 19.8379 18.9563 19.8379 20.6763 19.3779C21.147 19.2447 21.5743 18.9897 21.9149 18.6385C22.2555 18.2874 22.4975 17.8525 22.6163 17.3779C22.9286 15.6455 23.0826 13.8883 23.0763 12.1279C23.0875 10.3409 22.9335 8.55663 22.6163 6.79793V6.79793Z" stroke="white" stroke-width="1.6" stroke-linecap="round" stroke-linejoin="round"/>
<path d="M9.82617 15.3979L15.5762 12.1279L9.82617 8.85791V15.3979Z" stroke="white" stroke-width="1.6" stroke-linecap="round" stroke-linejoin="round"/>
</g>
<defs>
<clipPath id="clip0_298_94">
<rect width="24" height="24" fill="white" transform="translate(0.0761719 0.37793)"/>
</clipPath>
</defs>
</svg>
