<svg width="51" height="49" viewBox="0 0 51 49" fill="none" xmlns="http://www.w3.org/2000/svg">
<path d="M13.7288 15.2117C18.0161 16.8271 23.0905 16.8271 23.0905 16.8271C23.0905 16.8271 28.1534 16.8271 32.435 15.2117C37.1134 20.4655 40.3918 27.3915 42.5464 33.2246C44.7278 39.1298 39.9181 44.8271 33.405 44.8271H12.7101C6.21328 44.8271 1.40963 39.1559 3.57998 33.2635C5.72458 27.4409 9.00531 20.5125 13.7288 15.2117Z" stroke="#001680" stroke-width="2" stroke-linejoin="round"/>
<path fill-rule="evenodd" clip-rule="evenodd" d="M23.0652 16.8269C30.5266 16.8269 36.5752 14.1406 36.5752 10.8269C36.5752 7.51319 30.5266 4.8269 23.0652 4.8269C15.6038 4.8269 9.55518 7.51319 9.55518 10.8269C9.55518 14.1406 15.6038 16.8269 23.0652 16.8269Z" stroke="#001680" stroke-width="2" stroke-linecap="round" stroke-linejoin="round"/>
<path d="M23.0653 22.8645V38.4478" stroke="#001680" stroke-width="1.4" stroke-linecap="round" stroke-linejoin="round"/>
<path d="M26.8758 24.2811C26.8758 24.2811 23.4015 24.2811 21.6796 24.2811C19.9577 24.2811 18.5619 25.7082 18.5619 27.4686C18.5619 29.229 19.9577 30.6561 21.6796 30.6561" stroke="#001680" stroke-width="1.4" stroke-linecap="round" stroke-linejoin="round"/>
<path d="M19.2548 37.0311C19.2548 37.0311 22.7291 37.0311 24.4509 37.0311C26.1728 37.0311 27.5686 35.604 27.5686 33.8436C27.5686 32.0832 26.1728 30.6561 24.4509 30.6561H21.6796" stroke="#001680" stroke-width="1.4" stroke-linecap="round" stroke-linejoin="round"/>
</svg>
