<svg width="51" height="49" viewBox="0 0 51 49" fill="none" xmlns="http://www.w3.org/2000/svg">
<path d="M41.0312 14.3337C43.9048 14.3337 46.2343 12.0951 46.2343 9.33374C46.2343 6.57232 43.9048 4.33374 41.0312 4.33374C38.1576 4.33374 35.8281 6.57232 35.8281 9.33374C35.8281 12.0951 38.1576 14.3337 41.0312 14.3337Z" stroke="#001680" stroke-width="2" stroke-linecap="round" stroke-linejoin="round"/>
<path d="M9.81281 44.3337C12.6864 44.3337 15.0159 42.0951 15.0159 39.3337C15.0159 36.5723 12.6864 34.3337 9.81281 34.3337C6.93924 34.3337 4.60974 36.5723 4.60974 39.3337C4.60974 42.0951 6.93924 44.3337 9.81281 44.3337Z" stroke="#001680" stroke-width="2" stroke-linecap="round" stroke-linejoin="round"/>
<path d="M15.0159 4.33374H4.60974V14.3337H15.0159V4.33374Z" stroke="#001680" stroke-width="2" stroke-linecap="round" stroke-linejoin="round"/>
<path d="M46.2343 34.3337H35.8281V44.3337H46.2343V34.3337Z" stroke="#001680" stroke-width="2" stroke-linecap="round" stroke-linejoin="round"/>
<path d="M35.8282 9.33374H15.0159" stroke="#001680" stroke-width="2" stroke-linecap="round" stroke-linejoin="round"/>
<path d="M35.8282 39.3337H15.0159" stroke="#001680" stroke-width="2" stroke-linecap="round" stroke-linejoin="round"/>
<path d="M9.81274 34.3337V14.3337" stroke="#001680" stroke-width="2" stroke-linecap="round" stroke-linejoin="round"/>
<path d="M41.0312 34.3337V14.3337" stroke="#001680" stroke-width="2" stroke-linecap="round" stroke-linejoin="round"/>
</svg>
