<svg width="25" height="25" viewBox="0 0 25 25" fill="none" xmlns="http://www.w3.org/2000/svg">
<g clip-path="url(#clip0_256_4)">
<path d="M23.1685 6.62508C23.0497 6.15049 22.8078 5.71565 22.4672 5.36448C22.1265 5.01332 21.6993 4.75826 21.2285 4.62508C19.5085 4.20508 12.6285 4.20508 12.6285 4.20508C12.6285 4.20508 5.7485 4.20508 4.0285 4.66508C3.55775 4.79826 3.13048 5.05332 2.78985 5.40448C2.44922 5.75565 2.20729 6.19049 2.0885 6.66508C1.77372 8.41063 1.61974 10.1814 1.6285 11.9551C1.61728 13.7421 1.77127 15.5264 2.0885 17.2851C2.21946 17.7449 2.46681 18.1632 2.80665 18.4996C3.14648 18.8359 3.56732 19.0789 4.0285 19.2051C5.7485 19.6651 12.6285 19.6651 12.6285 19.6651C12.6285 19.6651 19.5085 19.6651 21.2285 19.2051C21.6993 19.0719 22.1265 18.8168 22.4672 18.4657C22.8078 18.1145 23.0497 17.6797 23.1685 17.2051C23.4809 15.4727 23.6348 13.7154 23.6285 11.9551C23.6397 10.168 23.4857 8.38378 23.1685 6.62508V6.62508Z" stroke="#001680" stroke-width="1.6" stroke-linecap="round" stroke-linejoin="round"/>
<path d="M10.3784 15.2251L16.1284 11.9551L10.3784 8.68506V15.2251Z" stroke="#001680" stroke-width="1.6" stroke-linecap="round" stroke-linejoin="round"/>
</g>
<defs>
<clipPath id="clip0_256_4">
<rect width="24" height="24" fill="white" transform="translate(0.628418 0.205078)"/>
</clipPath>
</defs>
</svg>
