<svg width="162" height="61" viewBox="0 0 162 61" fill="none" xmlns="http://www.w3.org/2000/svg">
<g clip-path="url(#clip0_139_103)">
<path fill-rule="evenodd" clip-rule="evenodd" d="M8.54038 43.9678C4.84592 43.9678 1.46305 46.8766 0.928909 50.4801C0.394771 54.0836 2.97644 56.9924 6.62638 56.9924C10.3208 56.9924 13.7037 54.0836 14.2378 50.4801C14.772 46.8766 12.2348 43.9678 8.54038 43.9678ZM1.32951 56.8187C1.37402 56.7753 12.6799 64.7203 17.4427 47.7883C19.0006 39.7565 20.514 31.7247 22.0719 23.6928H33.1552L29.1937 44.2283C29.1937 44.2283 27.5468 60.4656 11.122 60.4656C5.69164 60.509 2.75388 58.9461 1.32951 56.8187ZM44.0606 18.7001C41.0338 18.7001 38.2295 21.0879 37.8289 24.0402C37.3838 26.9924 39.4759 29.3802 42.5027 29.3802C45.5294 29.3802 48.3337 26.9924 48.7343 24.0402C49.1794 21.0879 47.0873 18.7001 44.0606 18.7001ZM30.7516 59.6407H41.4789L46.7312 32.3759H36.004L30.7516 59.6407ZM46.2416 59.6407H56.9689L60.4853 41.2326C61.6426 40.1473 63.8237 38.5843 66.7169 38.5843C71.079 38.5843 70.4559 41.4931 70.4559 41.4931L66.895 59.5973H77.6222C77.6222 59.5973 80.6045 45.5742 81.7173 40.017C82.8301 34.4598 79.1801 31.3774 72.7705 31.3774C68.0968 31.3774 63.7791 33.4179 61.7761 34.5467L62.2212 32.2891H51.494L46.2416 59.6407ZM81.9398 59.6407H92.6671L95.2933 46.0517L90.9757 41.9273L97.2518 35.6755L99.5664 23.5192H88.8391L81.9398 59.6407ZM141.719 32.3759C136.511 32.3759 131.926 36.5004 131.481 41.58C131.036 46.6595 134.864 50.784 140.072 50.784C145.28 50.784 149.864 46.6595 150.31 41.58C150.755 36.5004 146.927 32.3759 141.719 32.3759ZM142.609 22.6943C131.926 22.6943 122.49 31.1603 121.555 41.58C120.62 51.9996 128.543 60.4656 139.226 60.4656C149.909 60.4656 159.345 51.9996 160.28 41.58C161.215 31.1603 153.292 22.6943 142.609 22.6943ZM106.555 41.8839L125.873 23.5192H112.074L93.5573 41.8839L112.074 59.6407H125.873L106.555 41.8839Z" fill="#001680"/>
<path fill-rule="evenodd" clip-rule="evenodd" d="M152.535 14.6625V13.7073C153.069 13.0995 153.47 12.5351 153.781 12.1009C153.47 11.9707 153.247 11.8405 153.069 11.7102C152.936 11.5365 152.847 11.3195 152.847 11.0156C152.847 10.6682 152.98 10.2341 153.292 9.66969C153.603 9.1487 153.959 8.62772 154.405 8.15015C154.85 7.67258 155.25 7.36868 155.606 7.23843C155.74 7.19501 155.873 7.1516 156.007 7.1516C156.185 7.1516 156.319 7.23843 156.319 7.41209C156.319 7.58575 156.141 7.93308 155.829 8.41064C157.876 8.10674 159.212 7.93307 159.746 7.93307C159.969 7.93307 160.102 7.93308 160.191 7.97649C160.369 8.06332 160.503 8.2804 160.592 8.5843C160.681 8.88821 160.77 9.23553 160.77 9.53944C160.77 9.75652 160.681 9.9736 160.503 10.1907C160.325 10.4512 160.013 10.7985 159.568 11.2326C159.034 11.797 158.589 12.4049 158.233 13.0561C157.876 13.7073 157.698 14.2283 157.698 14.5322C157.698 15.0098 158.01 15.2269 158.589 15.2269C159.212 15.2269 160.28 14.619 161.793 13.4034V14.402C160.948 15.2269 160.28 15.9215 159.746 16.3991C159.212 16.8766 158.722 17.2674 158.233 17.5713C157.787 17.8752 157.342 18.0054 156.986 18.0054C156.586 18.0054 156.23 17.8318 155.918 17.441C155.651 17.0503 155.517 16.5293 155.517 15.7913C155.517 15.3571 155.651 14.8795 155.829 14.3585C156.052 13.8376 156.363 13.2297 156.808 12.6219C157.253 11.9707 157.698 11.3629 158.233 10.7551C157.966 10.7985 157.654 10.8853 157.298 10.9287C156.942 10.9721 156.586 11.059 156.185 11.1458C155.784 11.1892 155.473 11.2761 155.295 11.3195C154.627 12.5785 153.692 13.7073 152.535 14.6625ZM149.152 9.32237C146.526 10.4946 144.701 11.4931 143.588 12.2746C142.476 13.0995 141.941 13.9244 141.941 14.7927C141.941 15.0966 141.986 15.3571 142.119 15.5742C142.253 15.7913 142.386 15.8781 142.565 15.8781C142.698 15.8781 142.876 15.7913 143.143 15.661C144.211 15.0532 145.146 14.2717 146.036 13.2732C146.882 12.318 147.95 10.9721 149.152 9.32237ZM141.941 10.9287C143.455 9.58286 144.924 8.5843 146.393 7.93307C147.817 7.28185 148.93 6.93452 149.731 6.93452C149.953 6.93452 150.131 7.02135 150.31 7.19501C150.488 7.36868 150.621 7.58575 150.755 7.80283C150.844 8.01991 150.933 8.19357 150.933 8.32381C150.933 8.49747 150.844 8.62772 150.71 8.71455C150.577 8.80138 150.31 8.88821 149.953 9.01846C150.042 9.19212 150.131 9.36578 150.221 9.62627C150.354 9.88677 150.399 10.0604 150.488 10.2341C150.532 10.4077 150.577 10.538 150.577 10.6248C150.577 10.8419 150.354 11.2761 149.864 11.9273C149.375 12.5785 149.019 13.0561 148.841 13.36C148.663 13.6639 148.529 14.0546 148.529 14.4888C148.529 15.2269 148.885 15.5742 149.553 15.5742C150.265 15.5742 151.333 14.9229 152.847 13.6639V14.5756C150.31 17.3108 148.485 18.7001 147.416 18.7001C147.016 18.7001 146.749 18.5698 146.571 18.3093C146.393 18.0488 146.303 17.7015 146.303 17.224C146.303 16.4425 146.571 15.3571 147.149 13.881C145.68 15.4439 144.612 16.5727 143.9 17.2674C143.188 17.9186 142.609 18.2659 142.119 18.2659C141.897 18.2659 141.63 18.0923 141.274 17.7015C140.962 17.3108 140.651 16.8332 140.383 16.2688C140.116 15.661 139.983 15.0532 139.983 14.4454C139.983 13.9678 140.027 13.6205 140.116 13.2732C140.205 12.9693 140.383 12.6653 140.651 12.318C140.962 11.8839 141.363 11.4497 141.941 10.9287ZM135.843 10.7551C136.377 10.2341 136.867 9.66969 137.357 9.06187C137.846 8.41064 138.291 7.75941 138.737 7.02135C139.182 6.28329 139.493 5.63206 139.76 5.06766C140.027 4.50326 140.116 4.06911 140.116 3.7652C140.116 3.54813 140.027 3.41788 139.894 3.41788C139.849 3.41788 139.716 3.4613 139.538 3.59154C138.915 4.06911 138.247 5.02425 137.49 6.45695C136.689 7.84624 136.155 9.27895 135.843 10.7551ZM140.339 13.36V14.4454C138.247 17.1371 136.555 18.483 135.22 18.483C134.508 18.483 133.974 18.0923 133.529 17.3542C133.128 16.6161 132.906 15.6176 132.906 14.3585C132.906 13.36 133.128 12.1878 133.618 10.7985C134.107 9.4092 134.73 8.01991 135.532 6.63062C136.333 5.24132 137.179 3.98228 138.024 2.94031C138.87 1.89834 139.716 1.16028 140.428 0.726129C140.74 0.552468 140.962 0.465637 141.14 0.465637C141.363 0.465637 141.496 0.552468 141.541 0.726129C141.63 0.899791 141.63 1.2037 141.63 1.63785C141.63 2.98373 141.051 4.67693 139.938 6.63062C138.826 8.62772 137.223 10.6248 135.22 12.7088C135.131 13.2297 135.087 13.6205 135.087 13.881C135.087 14.4888 135.22 15.0098 135.487 15.4005C135.754 15.7912 136.155 15.9649 136.644 15.9649C136.912 15.9649 137.179 15.8781 137.446 15.661C137.757 15.4873 138.024 15.2269 138.38 14.9664C138.781 14.7927 139.404 14.2283 140.339 13.36ZM130.057 9.66969C129.211 10.1473 128.499 10.5814 127.92 11.0156C127.342 11.4063 126.852 11.797 126.407 12.2312C126.006 12.6219 125.739 13.0561 125.561 13.4468C125.294 14.5322 125.205 15.14 125.205 15.2269C125.205 15.8781 125.65 16.182 126.585 16.182C127.03 16.182 127.742 15.8347 128.766 15.0966C128.588 14.619 128.499 14.1849 128.499 13.7941C128.499 13.1863 128.632 12.5351 128.899 11.9273C129.167 11.2326 129.567 10.4946 130.057 9.66969ZM133.173 13.4902V14.4888C132.505 15.0532 131.971 15.4439 131.57 15.661C131.17 15.8347 130.591 15.9215 129.834 15.8781C128.543 17.3976 127.386 18.1357 126.407 18.1357C125.828 18.1357 125.339 17.962 124.893 17.6147C124.448 17.2674 124.048 16.7464 123.781 16.1386C123.514 15.5308 123.38 14.7927 123.38 14.0546C123.38 13.4468 123.603 12.7522 124.003 11.9707C124.448 11.1892 124.982 10.4946 125.65 9.84335C126.318 9.19212 127.03 8.67113 127.831 8.23698C128.588 7.84624 129.3 7.62917 129.968 7.62917C130.457 7.62917 130.813 7.716 131.081 7.84624C131.348 7.97649 131.481 8.19357 131.481 8.45406C131.481 8.62772 131.348 8.88821 131.125 9.1487C131.526 9.23553 131.748 9.36578 131.926 9.53944C132.06 9.7131 132.149 10.0604 132.149 10.538C132.149 11.0156 132.015 11.58 131.793 12.318C131.57 13.0127 131.259 13.7073 130.858 14.3151L131.125 14.5756H131.348C131.526 14.5756 131.704 14.5322 131.837 14.4454C132.015 14.3585 132.149 14.2717 132.282 14.1849C132.46 14.0546 132.727 13.8376 133.173 13.4902ZM119.196 13.9244C118.929 13.4902 118.573 13.0561 118.083 12.7088C117.594 12.3614 117.015 12.0575 116.392 11.8405C115.769 11.6234 115.101 11.4497 114.433 11.3629C112.43 11.059 110.516 10.4512 108.78 9.45261C108.647 9.36578 108.469 9.19212 108.291 8.97504C108.113 8.71455 108.024 8.45406 108.024 8.23698C108.024 7.36868 108.157 6.50037 108.469 5.67548C108.78 4.80717 109.136 4.15594 109.581 3.63496C110.338 2.81007 111.674 2.11542 113.588 1.50761C115.502 0.89979 117.683 0.595883 120.086 0.595883C121.511 0.595883 122.623 0.726129 123.425 0.899791C124.226 1.11687 124.626 1.46419 124.626 1.89834C124.626 2.6364 124.537 3.2008 124.315 3.59154C124.092 3.98228 123.87 4.24277 123.647 4.37302C123.425 4.50326 122.979 4.67693 122.401 4.894C121.778 5.11108 121.199 5.32815 120.754 5.58865C120.309 5.80572 119.908 6.06622 119.552 6.28329C119.24 6.50037 119.018 6.5872 118.929 6.5872C118.84 6.5872 118.795 6.54378 118.795 6.45695C118.795 6.28329 118.973 6.0228 119.33 5.71889C119.686 5.37157 120.131 5.06766 120.62 4.80717C121.154 4.54668 121.466 4.3296 121.466 4.28619C121.466 4.15594 121.154 4.11253 120.531 4.11253C118.662 4.11253 116.97 4.28619 115.413 4.59009C113.855 4.894 112.608 5.32816 111.674 5.84914C110.783 6.37012 110.294 6.93452 110.294 7.45551C110.294 7.80283 110.472 8.01991 110.872 8.19357C111.228 8.32381 112.074 8.5843 113.365 8.88821C114.656 9.23553 115.813 9.58286 116.792 10.017C118.261 10.6248 119.33 11.2326 120.042 11.9273C120.754 12.5785 121.11 13.3166 121.11 14.1415C121.11 14.7059 120.976 15.2703 120.709 15.8347C120.442 16.3991 120.042 16.92 119.508 17.3976C118.973 17.8752 118.35 18.2659 117.683 18.5698C117.104 18.8303 116.347 19.0474 115.457 19.2645C114.567 19.4816 113.588 19.6552 112.564 19.7855C111.495 19.9157 110.516 19.9591 109.581 19.9591C107.846 19.9591 106.421 19.7855 105.353 19.4816C104.285 19.1776 103.75 18.6567 103.75 18.0054C103.75 17.7015 103.929 17.2674 104.285 16.6596C104.641 16.0517 105.086 15.6176 105.575 15.4005C106.021 15.2269 106.421 15.14 106.822 15.0966C107.222 15.0532 107.4 15.0966 107.4 15.2269C107.4 15.2703 107.4 15.2703 107.356 15.3137C107.311 15.3571 107.311 15.3571 107.267 15.4005C107.222 15.4005 107.178 15.4439 107.133 15.4439C106.955 15.5308 106.777 15.5742 106.644 15.6176C106.51 15.661 106.421 15.7044 106.332 15.7478C106.243 15.7912 106.199 15.8347 106.199 15.9215C106.199 16.1386 107.222 16.2254 109.314 16.2254C111.095 16.2254 112.608 16.182 113.721 16.0517C114.878 15.9215 115.902 15.7044 116.792 15.3571C117.638 14.9664 118.439 14.4888 119.196 13.9244Z" fill="#001680"/>
</g>
<defs>
<clipPath id="clip0_139_103">
<rect width="160.909" height="60" fill="white" transform="translate(0.839844 0.509033)"/>
</clipPath>
</defs>
</svg>
