<svg width="190" height="19" viewBox="0 0 190 19" fill="none" xmlns="http://www.w3.org/2000/svg">
<path d="M129.112 7.64155V3.44971H130.02V7.64155H129.112ZM129.906 4.22979V3.44971H131.676V4.22979H129.906ZM129.906 5.90191V5.12005H131.587V5.90191H129.906ZM129.906 7.64155V6.85969H131.717V7.64155H129.906Z" fill="#ECECEC"/>
<path d="M134.754 7.64155V3.44971H136.28L137.841 6.87746H138.033L137.92 6.98053V3.44971H138.799V7.64155H137.262L135.701 4.2138H135.507L135.622 4.11074V7.64155H134.754Z" fill="#ECECEC"/>
<path d="M143.959 7.75709C143.625 7.76421 143.294 7.69939 142.987 7.56696C142.726 7.45131 142.493 7.27903 142.304 7.06229C142.126 6.85368 141.99 6.61236 141.902 6.35151C141.814 6.10468 141.769 5.84441 141.769 5.58209V5.45593C141.768 5.1918 141.814 4.92966 141.902 4.68118C141.99 4.42912 142.125 4.19634 142.299 3.99527C142.482 3.78539 142.706 3.61703 142.958 3.50127C143.243 3.37184 143.554 3.30812 143.867 3.31469C144.21 3.30759 144.55 3.37928 144.861 3.52437C145.137 3.65475 145.375 3.85414 145.553 4.10366C145.73 4.36096 145.833 4.66307 145.85 4.97615H144.919C144.897 4.82875 144.837 4.69003 144.744 4.57455C144.643 4.45727 144.517 4.36588 144.375 4.30801C144.215 4.24261 144.045 4.21057 143.873 4.21383C143.706 4.21036 143.541 4.24245 143.388 4.30801C143.248 4.36946 143.123 4.46245 143.024 4.57989C142.921 4.70394 142.844 4.8478 142.798 5.00281C142.691 5.35851 142.691 5.73815 142.798 6.09385C142.848 6.25235 142.93 6.39872 143.038 6.52388C143.148 6.64589 143.283 6.74127 143.433 6.80287C143.601 6.87052 143.78 6.90375 143.96 6.9006C144.194 6.90661 144.424 6.85086 144.63 6.73889C144.806 6.64531 144.948 6.49629 145.033 6.3142L144.925 6.95746V5.95347H145.782V6.84195C145.605 7.13204 145.35 7.36509 145.048 7.51365C144.708 7.67939 144.335 7.76275 143.959 7.75709ZM143.839 6.14361V5.45947H146.122V6.14361H143.839Z" fill="#ECECEC"/>
<path d="M148.991 7.64155V3.44971H149.899V7.64155H148.991ZM149.787 4.22979V3.44971H151.557V4.22979H149.787ZM149.787 5.90191V5.12005H151.469V5.90191H149.787ZM149.787 7.64155V6.85969H151.596V7.64155H149.787Z" fill="#ECECEC"/>
<path d="M154.632 7.64155V3.44971H156.158L157.719 6.87746H157.913L157.798 6.98053V3.44971H158.677V7.64155H157.138L155.577 4.2138H155.385L155.498 4.11074V7.64155H154.632Z" fill="#ECECEC"/>
<path d="M161.873 7.64155V3.44971H162.804V7.64155H161.873ZM162.639 5.9481V5.12005H164.711V5.9481H162.639ZM164.546 7.64155V3.44971H165.482V7.64155H164.546Z" fill="#ECECEC"/>
<path d="M168.288 7.64155L169.654 3.44971H171.16L172.577 7.64155H171.613L170.466 4.10363L170.761 4.22446H170.03L170.336 4.10363L169.217 7.64155H168.288ZM169.326 6.60204L169.611 5.82195H171.233L171.521 6.60204H169.326Z" fill="#ECECEC"/>
<path d="M175.386 7.64173V3.41612H176.317V7.64173H175.386ZM176.067 6.29835V5.55736H177.088C177.21 5.56021 177.331 5.53146 177.439 5.47383C177.536 5.41945 177.617 5.33811 177.671 5.23928C177.731 5.13091 177.76 5.00806 177.757 4.88388C177.759 4.75985 177.729 4.63733 177.671 4.52849C177.617 4.42966 177.536 4.34832 177.439 4.29394C177.331 4.23563 177.21 4.20684 177.088 4.21042H176.067V3.41257H177.014C177.32 3.40499 177.625 3.45874 177.911 3.57071C178.149 3.66321 178.353 3.82687 178.496 4.03983C178.638 4.27337 178.709 4.54408 178.7 4.81814V4.91054C178.71 5.18357 178.638 5.45331 178.493 5.68351C178.348 5.89299 178.144 6.05293 177.908 6.14197C177.622 6.24964 177.319 6.30149 177.014 6.29479L176.067 6.29835ZM177.899 7.64173L176.68 5.83811H177.708L178.977 7.64173H177.899Z" fill="#ECECEC"/>
<path d="M181.811 7.64155V3.44971H182.741V7.64155H181.811Z" fill="#ECECEC"/>
<path d="M185.562 7.64155L186.929 3.44971H188.434L189.853 7.64155H188.887L187.742 4.10363L188.037 4.22446H187.298L187.603 4.10363L186.493 7.64155H185.562ZM186.6 6.60204L186.885 5.82195H188.508L188.798 6.60204H186.6Z" fill="#ECECEC"/>
<path d="M139.351 14.5324V10.3406H140.259V14.5324H139.351ZM140.144 11.1207V10.3406H141.916V11.1207H140.144ZM140.144 12.791V12.0109H141.825V12.7946L140.144 12.791ZM140.144 14.5324V13.7506H141.955V14.5324H140.144Z" fill="#ECECEC"/>
<path d="M144.991 14.5324V10.3406H145.922V14.5324H144.991ZM145.808 14.5324V13.7044H147.545V14.5324H145.808Z" fill="#ECECEC"/>
<path d="M150.428 14.5323V10.3405H151.336V14.5323H150.428ZM151.222 11.1205V10.3405H152.992V11.1205H151.222ZM151.222 12.7909V12.0108H152.901V12.7944L151.222 12.7909ZM151.222 14.5323V13.7504H153.032V14.5323H151.222ZM151.222 10.0241L151.924 8.99707H152.901L152.084 10.0241H151.222Z" fill="#ECECEC"/>
<path d="M155.722 11.1669V10.3406H158.992V11.1669H155.722ZM156.891 14.5324V11.0514H157.822V14.5324H156.891Z" fill="#ECECEC"/>
<path d="M161.846 14.5326V10.3069H162.777V14.5343L161.846 14.5326ZM162.527 13.1874V12.4482H163.548C163.67 12.451 163.791 12.4223 163.899 12.3647C163.996 12.3091 164.076 12.2273 164.131 12.1283C164.191 12.0201 164.221 11.8971 164.217 11.7729C164.219 11.6489 164.189 11.5264 164.131 11.4175C164.076 11.3186 163.996 11.2368 163.899 11.1812C163.791 11.1236 163.67 11.0948 163.548 11.0977H162.534V10.3069H163.481C163.787 10.3003 164.092 10.354 164.378 10.4651C164.616 10.5583 164.82 10.7225 164.963 10.936C165.105 11.1695 165.176 11.4402 165.167 11.7143V11.8067C165.177 12.0792 165.105 12.3483 164.96 12.5779C164.816 12.7885 164.612 12.9492 164.375 13.0381C164.089 13.1452 163.786 13.1964 163.481 13.1892L162.527 13.1874ZM164.359 14.5326L163.14 12.7289H164.167L165.437 14.5326H164.359Z" fill="#ECECEC"/>
<path d="M168.27 14.5324V10.3406H169.2V14.5324H168.27Z" fill="#ECECEC"/>
<path d="M174.313 14.6465C173.981 14.6551 173.651 14.5864 173.349 14.4457C173.093 14.3227 172.867 14.1444 172.687 13.9232C172.519 13.7157 172.39 13.4783 172.308 13.2231C172.229 12.9859 172.187 12.7377 172.185 12.4875V12.3613C172.185 12.0984 172.228 11.8374 172.311 11.5883C172.393 11.3346 172.524 11.0997 172.696 10.8971C172.877 10.6864 173.1 10.5174 173.351 10.4013C173.646 10.2736 173.965 10.2129 174.285 10.2236C174.628 10.2171 174.968 10.2894 175.279 10.4351C175.556 10.5682 175.793 10.7722 175.968 11.0268C176.143 11.2876 176.248 11.5902 176.271 11.9046H175.335C175.313 11.7472 175.249 11.5986 175.151 11.4746C175.053 11.3546 174.927 11.2612 174.784 11.2027C174.626 11.1366 174.456 11.1039 174.285 11.1068C174.116 11.1036 173.948 11.1362 173.792 11.2027C173.655 11.2635 173.534 11.3567 173.44 11.4746C173.34 11.5997 173.265 11.7434 173.219 11.8975C173.116 12.2495 173.116 12.6241 173.219 12.9761C173.266 13.1315 173.343 13.2759 173.446 13.4008C173.546 13.5218 173.674 13.6163 173.818 13.6762C173.978 13.7427 174.149 13.7754 174.322 13.7722C174.581 13.7806 174.836 13.706 175.051 13.559C175.148 13.4916 175.23 13.4048 175.292 13.3039C175.354 13.203 175.395 13.0902 175.413 12.9726H176.343C176.31 13.2738 176.206 13.5626 176.04 13.8148C175.865 14.0739 175.629 14.2841 175.353 14.4261C175.029 14.5842 174.672 14.6599 174.313 14.6465Z" fill="#ECECEC"/>
<path d="M178.785 14.5324L180.153 10.3406H181.657L183.076 14.5324H182.112L180.965 10.9945L181.26 11.1153H180.529L180.835 10.9945L179.716 14.5324H178.785ZM179.825 13.4929L180.108 12.711H181.732L182.02 13.4929H179.825Z" fill="#ECECEC"/>
<path d="M14.0558 13.0523V13.0754C14.0851 14.0966 13.8136 15.1035 13.276 15.9683C12.7175 16.8011 11.9209 17.4416 10.9929 17.8039C9.99535 18.2245 8.79582 18.4353 7.39432 18.4365C6.57345 18.4369 5.75475 18.3511 4.95136 18.1806C4.18008 18.0173 3.4295 17.7663 2.71389 17.4325L1.07354 16.6596C1.02613 16.6377 0.983679 16.6062 0.948837 16.567C0.913996 16.5278 0.887509 16.4817 0.871031 16.4317C0.854553 16.3817 0.848434 16.3288 0.85306 16.2763C0.857685 16.2237 0.872955 16.1728 0.897915 16.1265L2.13783 13.8964C2.16398 13.849 2.19968 13.8076 2.24264 13.7751C2.28559 13.7425 2.33483 13.7194 2.38716 13.7074C2.43949 13.6953 2.49375 13.6945 2.54641 13.705C2.59906 13.7156 2.64894 13.7372 2.69281 13.7684C3.46021 14.3234 4.32238 14.73 5.23588 14.9679C5.97278 15.1677 6.73335 15.2639 7.49619 15.254C8.52184 15.2433 9.32211 15.0591 9.89699 14.7013C10.1718 14.5482 10.4 14.3218 10.5566 14.0468C10.7133 13.7718 10.7925 13.4586 10.7857 13.1412V13.1287C10.7965 12.9251 10.7669 12.7213 10.6988 12.5293C10.6306 12.3374 10.5252 12.1612 10.3887 12.011C10.1021 11.7217 9.74635 11.5123 9.35607 11.4033C8.8199 11.2488 8.27428 11.1301 7.72274 11.0479C7.70111 11.0412 7.67864 11.0376 7.65601 11.0373C7.63332 11.0361 7.61088 11.0319 7.58927 11.0248L7.32583 10.9875C6.33775 10.8459 5.36473 10.6121 4.41922 10.2892C3.63955 10.0016 2.95965 9.49031 2.46274 8.81784C1.92767 8.11654 1.66013 7.12204 1.66013 5.83433V5.82189C1.63058 4.79261 1.89328 3.77632 2.41708 2.89346C2.94525 2.0621 3.71269 1.41461 4.61592 1.03832C5.57718 0.614217 6.73807 0.401575 8.09858 0.400391C8.74323 0.402644 9.38571 0.475934 10.0147 0.618958C10.6713 0.767337 11.3124 0.979175 11.929 1.25156C12.4472 1.48073 12.9469 1.75046 13.4236 2.05829C13.5021 2.11079 13.5589 2.19061 13.5832 2.28264C13.6074 2.37466 13.5975 2.4725 13.5553 2.55762L12.5015 4.68997C12.4785 4.73664 12.4463 4.77803 12.4068 4.81156C12.3673 4.84509 12.3215 4.87006 12.2721 4.88489C12.2226 4.89972 12.1707 4.90411 12.1196 4.89779C12.0684 4.89146 12.0191 4.87456 11.9747 4.84812C11.4229 4.49447 10.8338 4.20421 10.2184 3.98274C9.54263 3.7336 8.83006 3.60203 8.11088 3.59359C7.10161 3.59359 6.32066 3.7618 5.76803 4.09824C5.51336 4.23436 5.30103 4.43932 5.15467 4.69031C5.00831 4.94129 4.93368 5.22845 4.93907 5.51981V5.53225C4.92712 5.75284 4.95939 5.97361 5.03394 6.18126C5.10849 6.38892 5.22378 6.57917 5.37287 6.74058C5.67016 7.04339 6.03705 7.26686 6.44067 7.39095C7.02486 7.56675 7.61821 7.70971 8.21801 7.81919C8.24953 7.82838 8.2819 7.83433 8.31461 7.83696C8.34712 7.84176 8.37936 7.84829 8.4112 7.85651C8.45799 7.86384 8.50432 7.87393 8.54994 7.88672C8.59489 7.89985 8.64066 7.90994 8.68693 7.91692C9.63293 8.08814 10.56 8.353 11.4548 8.70767C12.2013 9.02346 12.8446 9.54571 13.3112 10.2145C13.8088 10.9075 14.057 11.8535 14.0558 13.0523Z" fill="#ECECEC"/>
<path d="M27.4594 0.588773V1.24447C27.4596 1.58018 27.3945 1.91265 27.2677 2.22288C27.1408 2.5331 26.9548 2.815 26.7203 3.05247C26.4858 3.28993 26.2073 3.47831 25.9008 3.60684C25.5942 3.73536 25.2657 3.80152 24.9339 3.80152H22.707V15.7071C22.707 16.3853 22.4407 17.0357 21.9667 17.5152C21.4928 17.9948 20.85 18.2642 20.1797 18.2642H19.421V3.79618H17.1818C16.5126 3.79618 15.8707 3.52746 15.3972 3.04902C14.9237 2.57058 14.6572 1.92155 14.6562 1.24447V0.597656H27.4524C27.4524 0.597656 27.4594 0.58522 27.4594 0.588773Z" fill="#ECECEC"/>
<path d="M42.0557 18.2536H40.3117C39.788 18.2534 39.2773 18.0886 38.8501 17.7821C38.4228 17.4756 38.1002 17.0424 37.9267 16.5424L37.5386 15.423L36.4357 12.2138L34.3527 6.19877H34.344L32.2558 12.2138L31.1441 15.423L30.7559 16.5424C30.583 17.0424 30.2607 17.4757 29.8338 17.7822C29.4068 18.0888 28.8962 18.2535 28.3727 18.2536H26.627L33.3007 0.594239H33.652C34.1637 0.594016 34.6634 0.751066 35.0849 1.04459C35.5064 1.33811 35.8299 1.75426 36.0124 2.23792L42.068 18.2572L42.0557 18.2536Z" fill="#ECECEC"/>
<path d="M57.6071 3.14062V18.2359H55.1325C54.6611 18.2368 54.1988 18.1042 53.7981 17.8529C53.3974 17.6017 53.0742 17.2419 52.8652 16.8143L47.3822 5.52352H47.3734V15.6842C47.3734 16.3623 47.1071 17.0127 46.6332 17.4923C46.1592 17.9718 45.5164 18.2412 44.8461 18.2412H44.2314V0.588907H46.6691C47.1432 0.589198 47.6076 0.724297 48.0095 0.978793C48.4113 1.23329 48.7343 1.59693 48.9417 2.02824L54.4511 13.5056V0.588907H55.0658C55.3984 0.587035 55.7281 0.651619 56.036 0.77895C56.3439 0.906282 56.624 1.09386 56.8601 1.33092C57.0962 1.56799 57.2837 1.84988 57.4119 2.16043C57.5401 2.47097 57.6064 2.80408 57.6071 3.14062Z" fill="#ECECEC"/>
<path d="M63.107 14.7852V10.7106C63.1066 10.6523 63.0835 10.5966 63.0427 10.5553C63.002 10.5141 62.9469 10.4908 62.8893 10.4903H59.3767C59.3575 10.49 59.3387 10.4847 59.3222 10.4749C59.3056 10.465 59.2919 10.451 59.2823 10.4341C59.2727 10.4173 59.2676 10.3982 59.2676 10.3787C59.2675 10.3593 59.2725 10.3402 59.2819 10.3233L62.9016 3.8889C62.9135 3.86723 62.9323 3.85019 62.9548 3.84048C62.9774 3.83076 63.0025 3.82891 63.0263 3.83522C63.05 3.84152 63.071 3.85563 63.0859 3.87532C63.1009 3.89501 63.1089 3.91916 63.1088 3.94398V8.02033C63.1088 8.07829 63.1316 8.13389 63.1721 8.17488C63.2126 8.21587 63.2675 8.23889 63.3248 8.23889H66.8373C66.8567 8.23884 66.8757 8.24394 66.8925 8.25366C66.9093 8.26338 66.9233 8.27739 66.9331 8.2943C66.9429 8.31121 66.9481 8.33042 66.9483 8.35C66.9484 8.36959 66.9435 8.38887 66.9339 8.40592L63.3055 14.8403C63.2927 14.8592 63.2744 14.8736 63.2531 14.8814C63.2319 14.8893 63.2087 14.8903 63.1869 14.8842C63.1651 14.8782 63.1456 14.8654 63.1313 14.8476C63.117 14.8299 63.1085 14.8081 63.107 14.7852Z" fill="#ECECEC"/>
<path d="M73.0508 6.91474V11.9222C73.0776 13.0809 72.811 14.2273 72.2763 15.2522C71.7443 16.2135 70.9323 16.9854 69.951 17.4628C68.9183 17.9911 67.6532 18.2547 66.1557 18.2535H62.0531V17.6067C62.0531 16.9285 62.3194 16.2781 62.7933 15.7986C63.2673 15.3191 63.9101 15.0497 64.5804 15.0497H66.2453C67.3272 15.0497 68.1643 14.7867 68.7568 14.2607C69.3492 13.7347 69.6454 12.989 69.6454 12.0235V6.81879C69.6454 5.85449 69.3492 5.10877 68.7568 4.58161C68.1643 4.05444 67.3272 3.79145 66.2453 3.79263H64.5804C63.9107 3.79405 63.2679 3.52649 62.793 3.04872C62.3182 2.57095 62.0502 1.92203 62.0479 1.24447V0.597656H66.168C67.6257 0.597656 68.8686 0.844656 69.8966 1.33865C70.883 1.79409 71.7041 2.55023 72.2447 3.50121C72.7821 4.44063 73.0508 5.57847 73.0508 6.91474Z" fill="#ECECEC"/>
<path d="M89.5682 18.2536H87.8242C87.2992 18.2551 86.7868 18.0912 86.3582 17.7845C85.9295 17.4778 85.6059 17.0437 85.4322 16.5424L85.0441 15.423L83.9324 12.2138L81.8494 6.19877L79.7665 12.2138L78.6548 15.423L78.2667 16.5424C78.0934 17.0426 77.7708 17.4759 77.3436 17.7824C76.9163 18.089 76.4055 18.2536 75.8817 18.2536H74.1377L80.8115 0.594238H81.1627C81.6741 0.594376 82.1734 0.751594 82.5946 1.04509C83.0158 1.33859 83.339 1.75455 83.5214 2.23792L89.577 18.2572C89.577 18.2572 89.5717 18.2536 89.5682 18.2536Z" fill="#ECECEC"/>
<path d="M91.6816 0.558527H94.9992V15.8404C94.9992 16.1754 94.934 16.5071 94.8072 16.8166C94.6804 17.1261 94.4946 17.4073 94.2604 17.6441C94.0262 17.8809 93.7482 18.0687 93.4422 18.1967C93.1362 18.3247 92.8083 18.3905 92.4772 18.3903H91.6816V0.558527ZM93.0006 7.98443H99.1317C99.4491 7.9915 99.7612 7.90171 100.027 7.72677C100.294 7.54583 100.502 7.29014 100.626 6.99112C100.774 6.64308 100.851 6.26826 100.851 5.8894C100.859 5.51044 100.787 5.13415 100.639 4.78591C100.514 4.48715 100.306 4.23157 100.04 4.05025C99.7688 3.87551 99.4529 3.78586 99.1317 3.79259H93.0023V0.558527H99.3951C100.291 0.538999 101.175 0.767569 101.952 1.21955C102.688 1.66281 103.281 2.31208 103.659 3.08891C104.059 3.96697 104.265 4.92202 104.265 5.88851C104.265 6.85501 104.059 7.81006 103.659 8.68811C103.279 9.46728 102.682 10.117 101.942 10.5575C101.167 11.0082 100.285 11.2367 99.3916 11.2185H93.0006V7.98443ZM96.7081 10.6623L100.256 10.099L104.998 18.3814H102.469C102.021 18.3816 101.581 18.2608 101.194 18.0315C100.808 17.8022 100.488 17.4728 100.27 17.0771L96.7081 10.6623Z" fill="#ECECEC"/>
<path d="M118.174 0.588867V1.24457C118.173 1.58013 118.107 1.91222 117.979 2.22188C117.852 2.53154 117.665 2.81271 117.43 3.04933C117.194 3.28595 116.915 3.47339 116.609 3.60094C116.302 3.72849 115.973 3.79366 115.642 3.79272H113.417V15.6984C113.417 16.3745 113.152 17.0231 112.68 17.5021C112.208 17.981 111.568 18.2513 110.9 18.2536H110.139V3.79628H107.914C107.581 3.79838 107.251 3.73397 106.943 3.60675C106.635 3.47952 106.355 3.29198 106.119 3.0549C105.882 2.81781 105.695 2.53584 105.566 2.22517C105.438 1.91451 105.372 1.58126 105.371 1.24457V0.59775H118.164L118.174 0.588867Z" fill="#ECECEC"/>
</svg>
