<svg width="229" height="62" viewBox="0 0 229 62" fill="none" xmlns="http://www.w3.org/2000/svg">
<g clip-path="url(#clip0_204_264)">
<path d="M74.3145 48.5905V42.9766H75.3785V48.5905H74.3145ZM75.2265 43.8995V42.9766H77.6913V43.8995H75.2265ZM75.2265 46.1975V45.2746H77.5599V46.1975H75.2265ZM75.2265 48.5905V47.6676H77.757V48.5905H75.2265Z" fill="#ECECEC"/>
<path d="M81.9349 48.5905V42.9766H83.7179L86.0595 47.6882H86.3203L86.1663 47.8266V42.9766H87.1933V48.5905H85.3899L83.0482 43.883H82.7874L82.9414 43.7446V48.5905H81.9349Z" fill="#ECECEC"/>
<path d="M94.2224 48.737C93.7883 48.7452 93.3574 48.6622 92.9571 48.4933C92.609 48.3449 92.2971 48.1223 92.043 47.8409C91.8002 47.5693 91.6118 47.2531 91.4884 46.9097C91.3632 46.5657 91.2992 46.2023 91.2994 45.836V45.6667C91.3009 45.3148 91.362 44.9657 91.4802 44.6344C91.5995 44.2968 91.7814 43.985 92.0163 43.7156C92.2595 43.4374 92.5593 43.2149 92.8954 43.0631C93.2752 42.8955 93.6865 42.8123 94.1012 42.8195C94.5528 42.8101 95.0006 42.9055 95.4096 43.0982C95.7728 43.2707 96.086 43.5336 96.3195 43.8622C96.5546 44.1941 96.6965 44.5835 96.7304 44.9895H95.6294C95.6048 44.7618 95.5141 44.5463 95.3685 44.3701C95.2232 44.1966 95.0387 44.0607 94.8304 43.9737C94.6012 43.8788 94.3552 43.8318 94.1073 43.8353C93.8649 43.8306 93.6242 43.877 93.4007 43.9716C93.1933 44.0612 93.0086 44.1967 92.8605 44.368C92.7075 44.5497 92.5923 44.7603 92.5216 44.9874C92.4391 45.2406 92.3989 45.5057 92.4025 45.772C92.3987 46.0527 92.4425 46.332 92.5319 46.5979C92.6108 46.8276 92.7359 47.0385 92.8995 47.2173C93.0591 47.3894 93.2549 47.5234 93.4726 47.6096C93.7119 47.7013 93.9663 47.7469 94.2224 47.7438C94.5651 47.7525 94.9041 47.6714 95.2062 47.5085C95.468 47.3678 95.6825 47.1522 95.8225 46.889L95.6314 47.7748V46.3295H96.6338V47.5683C96.3933 47.9396 96.0567 48.2379 95.6602 48.4314C95.2107 48.643 94.7186 48.7476 94.2224 48.737ZM94.0539 46.5525V45.7266H97.098V46.5525H94.0539Z" fill="#ECECEC"/>
<path d="M101.056 48.5905V42.9766H102.118V48.5905H101.056ZM101.966 43.8995V42.9766H104.431V43.8995H101.966ZM101.966 46.1975V45.2746H104.299V46.1975H101.966ZM101.966 48.5905V47.6676H104.493V48.5905H101.966Z" fill="#ECECEC"/>
<path d="M108.677 48.5905V42.9766H110.46L112.799 47.6882H113.06L112.908 47.8266V42.9766H113.935V48.5905H112.134L109.794 43.883H109.533L109.685 43.7446V48.5905H108.677Z" fill="#ECECEC"/>
<path d="M118.37 48.5905V42.9766H119.456V48.5905H118.37ZM119.257 46.2595V45.2994H122.233V46.2595H119.257ZM122.034 48.5905V42.9766H123.121V48.5905H122.034Z" fill="#ECECEC"/>
<path d="M127.009 48.5905L128.905 42.9766H130.688L132.648 48.5905H131.522L129.879 43.7219L130.269 43.8912H129.312L129.71 43.7219L128.102 48.5905H127.009ZM128.34 47.106L128.683 46.1748H130.943L131.288 47.106H128.34Z" fill="#ECECEC"/>
<path d="M136.536 48.5903V42.9392H137.622V48.5924L136.536 48.5903ZM137.3 46.7135V45.8298H138.723C138.904 45.8344 139.082 45.7917 139.241 45.7059C139.383 45.6258 139.5 45.507 139.578 45.3632C139.657 45.2026 139.698 45.026 139.698 44.847C139.698 44.668 139.657 44.4914 139.578 44.3308C139.5 44.1863 139.383 44.0662 139.241 43.9839C139.083 43.8969 138.904 43.8535 138.723 43.858H137.3V42.9392H138.608C139.007 42.9306 139.403 43.0007 139.775 43.1457C140.085 43.2654 140.35 43.4772 140.537 43.7527C140.727 44.062 140.82 44.4218 140.804 44.785V44.9089C140.818 45.268 140.724 45.6229 140.533 45.9268C140.347 46.2009 140.082 46.4107 139.773 46.5277C139.401 46.6661 139.005 46.7326 138.608 46.7238L137.3 46.7135ZM139.942 48.5903L138.235 46.1519H139.451L141.219 48.5903H139.942Z" fill="#ECECEC"/>
<path d="M145.118 48.5905V42.9766H146.204V48.5905H145.118Z" fill="#ECECEC"/>
<path d="M150.107 48.5905L152.005 42.9766H153.79L155.749 48.5905H154.611L152.968 43.7219L153.359 43.8912H152.401L152.8 43.7219L151.194 48.5905H150.107ZM151.438 47.106L151.783 46.1748H154.043L154.388 47.106H151.438Z" fill="#ECECEC"/>
<path d="M164.346 48.5905V42.9766H165.41V48.5905H164.346ZM165.256 43.8995V42.9766H167.72V43.8995H165.256ZM165.256 46.1975V45.2746H167.589V46.1975H165.256ZM165.256 48.5905V47.6676H167.788V48.5905H165.256Z" fill="#ECECEC"/>
<path d="M171.966 48.5905V42.9766H173.053V48.5905H171.966ZM172.899 48.5905V47.6284H175.31V48.5905H172.899Z" fill="#ECECEC"/>
<path d="M179.26 48.5905V42.9765H180.322V48.5905H179.26ZM180.17 43.8994V42.9765H182.635V43.8994H180.17ZM180.17 46.1975V45.2745H182.503V46.1975H180.17ZM180.17 48.5905V47.6675H182.703V48.5905H180.17ZM180.375 42.545L181.333 41.207H182.503L181.378 42.545H180.375Z" fill="#ECECEC"/>
<path d="M186.365 43.9367V42.9766H190.679V43.9367H186.365ZM187.98 48.5905V43.7839H189.066V48.5905H187.98Z" fill="#ECECEC"/>
<path d="M194.606 48.5903V42.9392H195.693V48.5924L194.606 48.5903ZM195.37 46.7135V45.8298H196.794C196.973 45.8345 197.151 45.7918 197.309 45.7059C197.452 45.627 197.569 45.5079 197.646 45.3632C197.726 45.203 197.768 45.0262 197.768 44.847C197.768 44.6677 197.726 44.491 197.646 44.3308C197.569 44.1854 197.452 44.0651 197.309 43.9839C197.152 43.8963 196.974 43.8528 196.794 43.858H195.37V42.9392H196.679C197.077 42.9306 197.473 43.0007 197.845 43.1457C198.154 43.2661 198.42 43.4777 198.607 43.7527C198.797 44.062 198.89 44.4218 198.874 44.785V44.9089C198.888 45.268 198.794 45.6229 198.603 45.9268C198.417 46.2014 198.151 46.4113 197.841 46.5277C197.469 46.6661 197.075 46.7327 196.679 46.7238L195.37 46.7135ZM198.01 48.5903L196.305 46.1519H197.521L199.287 48.5903H198.01Z" fill="#ECECEC"/>
<path d="M203.19 48.5905V42.9766H204.277V48.5905H203.19Z" fill="#ECECEC"/>
<path d="M211.246 48.7368C210.797 48.7496 210.35 48.6585 209.942 48.4705C209.6 48.3071 209.299 48.0678 209.062 47.7705C208.84 47.4912 208.67 47.1735 208.561 46.8332C208.458 46.5166 208.404 46.1857 208.401 45.8524V45.6831C208.4 45.3324 208.456 44.9838 208.565 44.6507C208.674 44.3135 208.845 44.0002 209.071 43.7278C209.308 43.4427 209.605 43.2148 209.942 43.0609C210.352 42.8912 210.792 42.8063 211.235 42.8112C211.679 42.8162 212.117 42.911 212.523 43.0898C212.887 43.261 213.199 43.526 213.427 43.8579C213.659 44.2014 213.801 44.5985 213.838 45.0121H212.741C212.714 44.7762 212.622 44.5525 212.476 44.3658C212.334 44.1895 212.151 44.0518 211.942 43.9653C211.71 43.8698 211.462 43.8227 211.211 43.8269C210.961 43.823 210.713 43.8729 210.484 43.9735C210.276 44.0679 210.092 44.2092 209.948 44.3865C209.801 44.5704 209.691 44.7806 209.623 45.0059C209.547 45.2582 209.51 45.5207 209.512 45.7843C209.51 46.0445 209.547 46.3036 209.623 46.5524C209.692 46.7789 209.805 46.9894 209.956 47.1718C210.104 47.3498 210.291 47.4911 210.502 47.5847C210.741 47.6861 210.997 47.736 211.256 47.7313C211.632 47.7445 212.003 47.6351 212.312 47.4195C212.453 47.3171 212.572 47.1868 212.662 47.0367C212.752 46.8866 212.81 46.7197 212.834 46.5462H213.935C213.884 46.9399 213.743 47.3165 213.524 47.6467C213.296 47.9864 212.984 48.2615 212.62 48.4457C212.192 48.6532 211.721 48.7532 211.246 48.7368Z" fill="#ECECEC"/>
<path d="M217.299 48.5905L219.195 42.9766H220.978L222.938 48.5905H221.812L220.169 43.7219L220.559 43.8912H219.602L220 43.7219L218.394 48.5905H217.299ZM218.63 47.106L218.973 46.1748H221.233L221.578 47.106H218.63Z" fill="#ECECEC"/>
<path d="M88.5942 28.9242V28.9572C88.5942 30.4713 88.2436 31.7625 87.5425 32.8306C86.7923 33.9445 85.7217 34.8017 84.4738 35.2876C83.1304 35.8534 81.5139 36.1362 79.6241 36.1362C78.5198 36.1367 77.4184 36.0219 76.3376 35.7935C75.2939 35.5764 74.2781 35.2404 73.31 34.7921L71.0978 33.7597C71.0338 33.7299 70.9767 33.687 70.93 33.6339C70.8833 33.5808 70.8481 33.5185 70.8265 33.451C70.8049 33.3836 70.7974 33.3123 70.8045 33.2418C70.8116 33.1713 70.8331 33.103 70.8677 33.0412L72.5397 30.0515C72.5748 29.9879 72.6229 29.9325 72.6809 29.8889C72.7388 29.8453 72.8052 29.8145 72.8758 29.7985C72.9464 29.7825 73.0196 29.7817 73.0905 29.7961C73.1614 29.8106 73.2285 29.8399 73.2874 29.8822C74.323 30.6248 75.4858 31.1693 76.7177 31.4886C77.7109 31.7553 78.7358 31.8845 79.7638 31.8726C81.1482 31.8581 82.2287 31.6104 83.001 31.1314C83.3721 30.9265 83.68 30.623 83.8912 30.2542C84.1024 29.8853 84.2087 29.4652 84.1985 29.0398V29.0253C84.2126 28.7524 84.1727 28.4793 84.081 28.222C83.9893 27.9647 83.8477 27.7282 83.6645 27.5264C83.2775 27.1394 82.7979 26.8592 82.2718 26.7129C81.5489 26.507 80.8133 26.349 80.0699 26.24C80.0413 26.2307 80.0115 26.2258 79.9815 26.2256C79.9508 26.2248 79.9203 26.2192 79.8912 26.2091L79.5358 26.1595C78.2037 25.9689 76.8919 25.6558 75.6167 25.2242C74.5655 24.8376 73.6486 24.1526 72.9772 23.2524C72.2542 22.315 71.8927 20.984 71.8927 19.2592V19.2427C71.8927 17.7107 72.2316 16.4058 72.9197 15.3198C73.6331 14.2093 74.6674 13.3447 75.8837 12.8421C77.1805 12.275 78.7464 11.9901 80.5813 11.9873C81.4493 11.9911 82.3143 12.0894 83.1612 12.2805C84.0479 12.4786 84.9133 12.7628 85.7452 13.1291C86.4435 13.4344 87.1166 13.7947 87.7582 14.2069C87.8648 14.2766 87.9421 14.3835 87.9751 14.5069C88.008 14.6304 87.9945 14.7618 87.9369 14.8758L86.5217 17.721C86.4902 17.7845 86.4459 17.8407 86.3917 17.886C86.3374 17.9313 86.2743 17.9648 86.2065 17.9842C86.1387 18.0036 86.0675 18.0086 85.9976 17.9989C85.9278 17.9891 85.8607 17.9648 85.8007 17.9275C85.0533 17.4535 84.2554 17.0649 83.4221 16.7692C82.5111 16.4362 81.5506 16.2603 80.5813 16.2489C79.2202 16.2489 78.1671 16.4739 77.4222 16.924C76.6773 17.3742 76.3048 18.0066 76.3048 18.8215V18.836C76.2891 19.1316 76.3327 19.4274 76.4329 19.7059C76.5331 19.9843 76.6879 20.2396 76.8881 20.4568C77.2892 20.8607 77.783 21.1593 78.326 21.326C79.1182 21.567 79.9233 21.7627 80.7374 21.9124C80.7804 21.9248 80.8244 21.9331 80.8689 21.9372L80.9962 21.962C81.0593 21.9721 81.1217 21.9859 81.1832 22.0032C81.2444 22.0209 81.3069 22.034 81.3701 22.0425C82.6453 22.2742 83.8948 22.6318 85.1002 23.1099C86.1068 23.5326 86.9746 24.2317 87.6041 25.1272C88.2642 26.0535 88.5942 27.3192 88.5942 28.9242Z" fill="#ECECEC"/>
<path d="M106.668 12.231V13.0981C106.668 13.5479 106.58 13.9932 106.408 14.4087C106.237 14.8241 105.986 15.2016 105.67 15.5195C105.353 15.8374 104.977 16.0895 104.564 16.2615C104.151 16.4334 103.708 16.5217 103.26 16.5214H100.259V32.4611C100.259 32.9108 100.172 33.3562 100 33.7717C99.8295 34.1873 99.5786 34.5649 99.2624 34.883C98.9461 35.2011 98.5706 35.4535 98.1573 35.6256C97.744 35.7978 97.3009 35.8864 96.8535 35.8864H95.8265V16.5276H92.8111C91.9079 16.5276 91.0417 16.167 90.403 15.525C89.7643 14.883 89.4055 14.0123 89.4055 13.1043V12.2372H106.66L106.668 12.231Z" fill="#ECECEC"/>
<path d="M126.348 35.8928H124.006C123.3 35.8925 122.612 35.6719 122.036 35.2614C121.46 34.8508 121.025 34.2706 120.792 33.6009L120.268 32.0999L118.77 27.8011L115.96 19.7487L113.15 27.8011L111.653 32.0999L111.129 33.5989C110.896 34.2689 110.461 34.8496 109.885 35.2605C109.31 35.6715 108.621 35.8924 107.915 35.8928H105.542L114.541 12.2373H115.016C115.705 12.2375 116.378 12.4479 116.947 12.8409C117.515 13.2339 117.951 13.7909 118.197 14.4383L126.36 35.8948L126.348 35.8928Z" fill="#ECECEC"/>
<path d="M147.311 15.6481V35.8678H143.982C143.345 35.8682 142.721 35.689 142.18 35.3507C141.639 35.0123 141.204 34.5284 140.923 33.9538L133.529 18.8319H133.516V32.4507C133.516 33.3587 133.158 34.2294 132.519 34.8714C131.88 35.5134 131.014 35.874 130.111 35.874H129.289V12.231H132.576C133.215 12.2307 133.841 12.4115 134.383 12.7525C134.924 13.0936 135.359 13.5812 135.638 14.1594L143.068 29.5374H143.08V12.231H143.902C144.804 12.2299 145.671 12.5892 146.31 13.23C146.95 13.8707 147.31 14.7405 147.311 15.6481Z" fill="#ECECEC"/>
<path d="M154.725 31.2469V25.7878C154.725 25.7492 154.717 25.711 154.703 25.6753C154.688 25.6396 154.667 25.6072 154.64 25.5799C154.613 25.5526 154.58 25.531 154.545 25.5164C154.509 25.5017 154.471 25.4943 154.433 25.4946H149.696C149.67 25.4942 149.645 25.487 149.622 25.4738C149.6 25.4606 149.581 25.4418 149.568 25.4192C149.554 25.3966 149.547 25.371 149.547 25.3448C149.546 25.3186 149.552 25.2927 149.565 25.2696L154.447 16.6514C154.463 16.6224 154.488 16.5996 154.519 16.5866C154.549 16.5736 154.583 16.5712 154.615 16.5797C154.647 16.5883 154.675 16.6073 154.695 16.6337C154.715 16.6602 154.725 16.6926 154.725 16.7258V22.1849C154.725 22.2625 154.756 22.3367 154.811 22.3916C154.865 22.4465 154.939 22.4775 155.016 22.4781H159.747C159.773 22.4784 159.798 22.4855 159.82 22.4986C159.842 22.5117 159.861 22.5304 159.874 22.5528C159.887 22.5753 159.894 22.6007 159.894 22.6267C159.895 22.6526 159.888 22.6783 159.876 22.7011L154.996 31.3212C154.978 31.3462 154.953 31.3651 154.924 31.3754C154.895 31.3857 154.864 31.3868 154.834 31.3787C154.805 31.3707 154.779 31.3537 154.759 31.3301C154.739 31.3066 154.727 31.2775 154.725 31.2469Z" fill="#ECECEC"/>
<path d="M168.131 20.7046V27.4108C168.131 29.1148 167.783 30.6014 167.088 31.8706C166.371 33.1586 165.276 34.1932 163.953 34.8334C162.561 35.5382 160.855 35.8912 158.837 35.8926H153.305V35.0234C153.305 34.5738 153.393 34.1287 153.564 33.7133C153.735 33.298 153.986 32.9206 154.303 32.6027C154.619 32.2848 154.994 32.0327 155.407 31.8607C155.821 31.6886 156.263 31.6001 156.711 31.6001H158.956C160.414 31.6001 161.542 31.2477 162.341 30.5429C163.139 29.8382 163.538 28.8395 163.538 27.547V20.5745C163.538 19.2847 163.139 18.2861 162.341 17.5786C161.542 16.8711 160.414 16.5187 158.956 16.5214H156.711C155.807 16.5214 154.941 16.1608 154.303 15.5188C153.664 14.8768 153.305 14.0061 153.305 13.0981V12.231H158.851C160.815 12.231 162.49 12.562 163.877 13.2241C165.208 13.8308 166.316 14.8418 167.045 16.1147C167.769 17.3852 168.131 18.9151 168.131 20.7046Z" fill="#ECECEC"/>
<path d="M190.403 35.8928H188.051C187.345 35.8921 186.657 35.671 186.081 35.2601C185.505 34.8492 185.07 34.2688 184.837 33.5989L184.315 32.0999L182.816 27.8011L180.008 19.7487H179.995L177.188 27.8011L175.688 32.0999L175.164 33.6009C174.931 34.2706 174.496 34.8508 173.92 35.2614C173.344 35.6719 172.656 35.8925 171.95 35.8928H169.606L178.605 12.2373H179.079C179.769 12.2369 180.443 12.4471 181.011 12.8402C181.579 13.2333 182.015 13.7906 182.261 14.4383L190.424 35.8948L190.403 35.8928Z" fill="#ECECEC"/>
<path d="M193.252 12.1896H197.726V32.653C197.726 33.1019 197.638 33.5465 197.467 33.9612C197.296 34.3759 197.046 34.7527 196.73 35.07C196.414 35.3874 196.039 35.639 195.626 35.8106C195.213 35.9822 194.771 36.0704 194.325 36.0701H193.252V12.1896ZM195.031 22.1374H203.293C203.721 22.1455 204.142 22.0255 204.502 21.7926C204.86 21.5486 205.14 21.2068 205.31 20.8077C205.509 20.3406 205.612 19.8377 205.612 19.3294C205.622 18.8225 205.524 18.3193 205.326 17.8531C205.158 17.4531 204.877 17.111 204.519 16.8683C204.151 16.6328 203.722 16.5128 203.286 16.5235H195.025V12.1876H203.652C204.86 12.1616 206.052 12.4686 207.099 13.0754C208.09 13.668 208.89 14.5373 209.399 15.5778C209.938 16.754 210.217 18.0335 210.217 19.3284C210.217 20.6232 209.938 21.9027 209.399 23.0789C208.888 24.1212 208.086 24.991 207.09 25.5814C206.046 26.1848 204.857 26.491 203.652 26.4671H195.025L195.031 22.1374ZM200.029 25.73L204.813 24.9764L211.213 36.0701H207.785C207.18 36.0706 206.587 35.909 206.066 35.602C205.544 35.2949 205.114 34.8535 204.819 34.3234L200.029 25.73Z" fill="#ECECEC"/>
<path d="M228.968 12.231V13.0981C228.968 14.0061 228.609 14.8768 227.971 15.5188C227.332 16.1608 226.466 16.5214 225.563 16.5214H222.562V32.4611C222.562 32.9108 222.474 33.3562 222.303 33.7717C222.132 34.1873 221.881 34.5649 221.565 34.883C221.249 35.2011 220.873 35.4535 220.46 35.6256C220.046 35.7978 219.603 35.8864 219.156 35.8864H218.129V16.5276H215.13C214.682 16.529 214.237 16.4413 213.822 16.2694C213.407 16.0976 213.031 15.8451 212.713 15.5264C212.396 15.2078 212.144 14.8292 211.973 14.4125C211.801 13.9958 211.713 13.5491 211.714 13.0981V12.231H228.968Z" fill="#ECECEC"/>
<path d="M25.2225 49.8398H23.0904H12.9434L0.968262 61.8771H11.1153H25.2225H35.3696V49.8398H25.2225Z" fill="#D7D7D7"/>
<path d="M49.4748 0.876953H35.3696H25.2225V13.1166H35.3696H37.2983H47.4453L59.6238 0.876953H49.4748Z" fill="#D7D7D7"/>
<path d="M56.4011 25.3583L49.37 37.5979L42.339 49.8396L35.4251 61.877H35.3696V37.3956H14.3381L21.2521 25.3583L21.3692 25.1539L28.2831 13.1166L28.4002 12.9143L35.3141 0.876953H35.3696V25.3583H56.4011Z" fill="#BBBBBB"/>
<path d="M46.2519 25.3583L39.2209 37.5979L32.1919 49.8396L25.2759 61.877H25.2225V37.3956H4.19104L11.1029 25.3583L11.2221 25.1539L18.134 13.1166L18.251 12.9143L25.167 0.876953H25.2225V25.3583H46.2519Z" fill="#ECECEC"/>
</g>
<defs>
<clipPath id="clip0_204_264">
<rect width="228" height="61" fill="white" transform="translate(0.968262 0.876953)"/>
</clipPath>
</defs>
</svg>
