<svg width="153" height="37" viewBox="0 0 153 37" fill="none" xmlns="http://www.w3.org/2000/svg">
<g clip-path="url(#clip0_107_968)">
<path d="M3.4054 36.3586V30.8601H4.43459V36.3586H3.4054ZM4.28756 31.7641V30.8601H6.67179V31.7641H4.28756ZM4.28756 34.0148V33.1109H6.54463V34.0148H4.28756ZM4.28756 36.3586V35.4547H6.73736V36.3586H4.28756Z" fill="#001680"/>
<path d="M10.7766 36.3586V30.8601H12.5012L14.7662 35.4749H15.0185L14.8695 35.6104V30.8601H15.863V36.3586H14.1245L11.8594 31.7479H11.6071L11.7561 31.6124V36.3586H10.7766Z" fill="#001680"/>
<path d="M22.656 36.5022C22.2362 36.5101 21.8194 36.4288 21.4321 36.2636C21.0954 36.1182 20.7937 35.9002 20.548 35.6245C20.3131 35.3586 20.1309 35.0489 20.0115 34.7125C19.891 34.3755 19.8298 34.0195 19.8307 33.6609V33.4951C19.8315 33.1505 19.8899 32.8086 20.0036 32.484C20.119 32.1534 20.295 31.848 20.5221 31.5841C20.7574 31.3116 21.0474 31.0937 21.3725 30.9451C21.7398 30.7808 22.1377 30.6994 22.5388 30.7064C22.9757 30.6972 23.4088 30.7907 23.8044 30.9794C24.1561 31.1478 24.4592 31.4055 24.6846 31.7277C24.912 32.0528 25.0492 32.4341 25.082 32.8318H24.017C23.9932 32.6088 23.9055 32.3978 23.7647 32.2251C23.6266 32.0555 23.4509 31.9217 23.2521 31.8348C23.0304 31.7419 22.7924 31.6959 22.5527 31.6994C22.3154 31.6942 22.0797 31.7404 21.8613 31.8348C21.6606 31.9226 21.482 32.0553 21.3387 32.2231C21.1907 32.401 21.0793 32.6073 21.0109 32.8298C20.9311 33.0777 20.8922 33.3374 20.8957 33.5982C20.8921 33.8731 20.9344 34.1467 21.0208 34.4071C21.0971 34.6321 21.2182 34.8386 21.3765 35.0138C21.5308 35.1823 21.7202 35.3136 21.9308 35.398C22.1623 35.4879 22.4083 35.5324 22.656 35.5295C22.9875 35.538 23.3155 35.4585 23.6077 35.299C23.8609 35.1611 24.0684 34.95 24.2038 34.6923L24.019 35.5598V34.1442H24.9886V35.3576C24.7559 35.7212 24.4303 36.0134 24.0468 36.2029C23.612 36.4102 23.1361 36.5126 22.656 36.5022ZM22.4931 34.3627V33.5538H25.4376V34.3627H22.4931Z" fill="#001680"/>
<path d="M29.2723 36.3586V30.8601H30.3015V36.3586H29.2723ZM30.1525 31.7641V30.8601H32.5367V31.7641H30.1525ZM30.1525 34.0148V33.1109H32.4096V34.0148H30.1525ZM30.1525 36.3586V35.4547H32.6023V36.3586H30.1525Z" fill="#001680"/>
<path d="M36.6436 36.3586V30.8601H38.3681L40.6312 35.4749H40.8835L40.7365 35.6104V30.8601H41.7299V36.3586H39.9894L37.7264 31.7479H37.4741L37.6211 31.6124V36.3586H36.6436Z" fill="#001680"/>
<path d="M46.0195 36.3586V30.8601H47.0706V36.3586H46.0195ZM46.8778 34.0755V33.1351H49.7568V34.0755H46.8778ZM49.5641 36.3586V30.8601H50.6151V36.3586H49.5641Z" fill="#001680"/>
<path d="M54.3762 36.3586L56.2101 30.8601H57.9347L59.8301 36.3586H58.7413L57.1519 31.5901L57.5294 31.756H56.6035L56.9889 31.5901L55.4352 36.3586H54.3762ZM55.6637 34.9046L55.9955 33.9926H58.181L58.5148 34.9046H55.6637Z" fill="#001680"/>
<path d="M63.5853 36.3586V30.8237H64.6364V36.3606L63.5853 36.3586ZM64.3244 34.5204V33.6548H65.7013C65.8758 33.6594 66.0483 33.6176 66.202 33.5335C66.3399 33.4555 66.4529 33.339 66.5279 33.1978C66.6039 33.0405 66.6435 32.8675 66.6435 32.6922C66.6435 32.5169 66.6039 32.344 66.5279 32.1867C66.4526 32.0447 66.3397 31.927 66.202 31.8469C66.0487 31.7617 65.876 31.7192 65.7013 31.7236H64.3244V30.8237H65.5901C65.9756 30.8153 66.3591 30.884 66.7186 31.0259C67.018 31.1432 67.2751 31.3506 67.4557 31.6205C67.6403 31.9232 67.731 32.2756 67.716 32.6316V32.7529C67.7291 33.1048 67.637 33.4524 67.4518 33.7499C67.272 34.0183 67.0153 34.2238 66.7166 34.3383C66.3563 34.4739 65.9741 34.5391 65.5901 34.5305L64.3244 34.5204ZM66.8795 36.3586L65.2285 33.9703H66.4047L68.1154 36.3586H66.8795Z" fill="#001680"/>
<path d="M71.8923 36.3586V30.8601H72.9434V36.3586H71.8923Z" fill="#001680"/>
<path d="M76.7185 36.3586L78.5544 30.8601H80.275L82.1704 36.3586H81.0836L79.4802 31.5901L79.8578 31.756H78.9319L79.3173 31.5901L77.7636 36.3586H76.7185ZM78.006 34.9046L78.3398 33.9926H80.5253L80.8591 34.9046H78.006Z" fill="#001680"/>
<path d="M90.4915 36.3586V30.8601H91.5206V36.3586H90.4915ZM91.3716 31.7641V30.8601H93.7558V31.7641H91.3716ZM91.3716 34.0148V33.1109H93.6287V34.0148H91.3716ZM91.3716 36.3586V35.4547H93.8214V36.3586H91.3716Z" fill="#001680"/>
<path d="M97.8627 36.3586V30.8601H98.9137V36.3586H97.8627ZM98.7647 36.3586V35.4162H101.097V36.3586H98.7647Z" fill="#001680"/>
<path d="M104.912 36.3585V30.86H105.939V36.3585H104.912ZM105.792 31.764V30.86H108.176V31.764H105.792ZM105.792 34.0147V33.1108H108.049V34.0147H105.792ZM105.792 36.3585V35.4546H108.242V36.3585H105.792ZM105.991 30.4374L106.917 29.127H108.049L106.96 30.4374H105.991Z" fill="#001680"/>
<path d="M111.791 31.8005V30.8601H115.963V31.8005H111.791ZM113.352 36.3586V31.6508H114.403V36.3586H113.352Z" fill="#001680"/>
<path d="M119.762 36.3586V30.8237H120.807V36.3606L119.762 36.3586ZM120.501 34.5204V33.6548H121.878C122.052 33.6595 122.223 33.6177 122.376 33.5335C122.515 33.4562 122.628 33.3395 122.702 33.1978C122.78 33.0409 122.82 32.8678 122.82 32.6922C122.82 32.5167 122.78 32.3436 122.702 32.1867C122.628 32.0443 122.514 31.9264 122.376 31.8469C122.224 31.7611 122.052 31.7185 121.878 31.7236H120.501V30.8237H121.766C122.152 30.8153 122.535 30.884 122.895 31.0259C123.194 31.1439 123.451 31.3511 123.632 31.6205C123.816 31.9235 123.906 32.2758 123.89 32.6316V32.7529C123.904 33.1046 123.813 33.4522 123.628 33.7499C123.448 34.0188 123.191 34.2244 122.891 34.3383C122.531 34.474 122.15 34.5391 121.766 34.5305L120.501 34.5204ZM123.054 36.3586L121.405 33.9703H122.581L124.29 36.3586H123.054Z" fill="#001680"/>
<path d="M128.065 36.3586V30.8601H129.116V36.3586H128.065Z" fill="#001680"/>
<path d="M135.857 36.5021C135.423 36.5147 134.991 36.4254 134.596 36.2413C134.265 36.0813 133.974 35.8468 133.745 35.5557C133.53 35.2821 133.366 34.971 133.26 34.6376C133.16 34.3275 133.108 34.0035 133.105 33.6771V33.5112C133.105 33.1677 133.158 32.8263 133.264 32.5001C133.369 32.1698 133.535 31.8629 133.753 31.5962C133.982 31.3169 134.27 31.0937 134.596 30.943C134.992 30.7768 135.418 30.6936 135.847 30.6984C136.276 30.7033 136.7 30.7961 137.093 30.9713C137.445 31.139 137.746 31.3985 137.967 31.7236C138.192 32.06 138.329 32.449 138.365 32.854H137.298C137.271 32.623 137.183 32.4039 137.041 32.221C136.904 32.0484 136.727 31.9135 136.525 31.8287C136.301 31.7352 136.06 31.6891 135.818 31.6932C135.576 31.6893 135.336 31.7383 135.114 31.8368C134.913 31.9292 134.736 32.0677 134.596 32.2413C134.454 32.4214 134.348 32.6273 134.282 32.8479C134.208 33.095 134.172 33.3521 134.174 33.6103C134.172 33.8652 134.208 34.1189 134.282 34.3626C134.349 34.5845 134.458 34.7906 134.604 34.9693C134.747 35.1437 134.928 35.2821 135.132 35.3737C135.363 35.473 135.611 35.5219 135.861 35.5173C136.225 35.5302 136.583 35.4231 136.882 35.2119C137.019 35.1116 137.134 34.984 137.221 34.837C137.308 34.6899 137.364 34.5265 137.387 34.3565H138.452C138.403 34.7422 138.267 35.1111 138.055 35.4344C137.834 35.7671 137.533 36.0366 137.181 36.217C136.768 36.4193 136.314 36.5171 135.857 36.5021Z" fill="#001680"/>
<path d="M141.713 36.3586L143.547 30.8601H145.271L147.167 36.3586H146.078L144.488 31.5901L144.866 31.756H143.94L144.325 31.5901L142.772 36.3586H141.713ZM143 34.9046L143.332 33.9926H145.517L145.851 34.9046H143Z" fill="#001680"/>
<path d="M17.2181 17.0965V17.1289C17.2181 18.6119 16.879 19.8764 16.2008 20.9226C15.4751 22.0136 14.4395 22.8532 13.2324 23.3291C11.933 23.8832 10.3694 24.1602 8.54147 24.1602C7.47325 24.1606 6.40788 24.0481 5.3625 23.8245C4.35286 23.6119 3.3703 23.2828 2.43386 22.8437L0.294018 21.8326C0.232161 21.8034 0.17692 21.7614 0.131761 21.7094C0.0866022 21.6573 0.052503 21.5964 0.0316055 21.5303C0.010708 21.4642 0.00345911 21.3944 0.0103229 21.3253C0.0171867 21.2563 0.0380151 21.1894 0.0714906 21.1289L1.68878 18.2007C1.72276 18.1384 1.76929 18.0841 1.82532 18.0414C1.88135 17.9987 1.94562 17.9685 2.0139 17.9529C2.08219 17.9372 2.15296 17.9364 2.22156 17.9506C2.29017 17.9647 2.35507 17.9934 2.412 18.0349C3.41374 18.7622 4.53852 19.2955 5.73006 19.6082C6.69084 19.8694 7.68216 19.996 8.67657 19.9843C10.0157 19.9701 11.0608 19.7275 11.8079 19.2583C12.1668 19.0576 12.4646 18.7604 12.6689 18.3992C12.8732 18.0379 12.976 17.6265 12.9662 17.2098V17.1956C12.9798 16.9283 12.9412 16.6608 12.8525 16.4088C12.7639 16.1568 12.6269 15.9252 12.4496 15.7275C12.0753 15.3485 11.6114 15.074 11.1025 14.9307C10.4033 14.7291 9.69178 14.5744 8.97261 14.4676C8.94502 14.4584 8.9162 14.4537 8.88718 14.4535C8.85742 14.4525 8.82796 14.447 8.79976 14.4373L8.45604 14.3887C7.16753 14.202 5.89857 13.8954 4.66511 13.4727C3.64888 13.094 2.76212 12.424 2.11199 11.5434C1.41261 10.624 1.06293 9.31965 1.06293 7.6304V7.61423C1.06293 6.11372 1.39076 4.83566 2.05636 3.77196C2.74667 2.68374 3.74793 1.83685 4.92538 1.34527C6.1771 0.789826 7.69109 0.510753 9.46734 0.508057C10.3076 0.511867 11.1449 0.608149 11.9648 0.795218C12.8217 0.98951 13.6581 1.26786 14.4623 1.62636C15.1379 1.92491 15.789 2.27791 16.4094 2.68197C16.5126 2.75024 16.5873 2.85492 16.6192 2.97586C16.6511 3.09681 16.638 3.2255 16.5823 3.33718L15.2133 6.12383C15.1829 6.186 15.1401 6.24104 15.0876 6.28542C15.0351 6.3298 14.9741 6.36255 14.9085 6.38158C14.8429 6.40061 14.7741 6.4055 14.7065 6.39594C14.6389 6.38638 14.574 6.36258 14.516 6.32605C13.7936 5.86122 13.0217 5.48131 12.2152 5.1936C11.3343 4.86588 10.4051 4.69288 9.46734 4.68197C8.15071 4.68197 7.13212 4.9024 6.41155 5.34324C5.69098 5.78409 5.3307 6.40358 5.3307 7.20169V7.21585C5.31555 7.50542 5.35769 7.79514 5.45462 8.06783C5.55155 8.34052 5.70129 8.59062 5.89497 8.8033C6.2829 9.19896 6.76055 9.49136 7.28577 9.65467C8.05205 9.89066 8.83081 10.0824 9.61834 10.229C9.65988 10.2412 9.70246 10.2493 9.7455 10.2533L9.86869 10.2775C9.92967 10.2875 9.99003 10.301 10.0495 10.318C10.1088 10.3352 10.1692 10.3481 10.2303 10.3564C11.4638 10.5834 12.6724 10.9336 13.8384 11.4019C14.8121 11.8158 15.6514 12.5006 16.2604 13.3776C16.9002 14.2849 17.2194 15.5246 17.2181 17.0965Z" fill="#001680"/>
<path d="M34.7005 0.746582V1.59593C34.7005 2.03692 34.615 2.47357 34.449 2.88089C34.2829 3.28821 34.0396 3.65819 33.7328 3.96964C33.4261 4.28109 33.062 4.52789 32.6614 4.69591C32.2608 4.86393 31.8316 4.94987 31.3983 4.94881H28.4975V20.5605C28.4978 21.001 28.4128 21.4372 28.2473 21.8442C28.0819 22.2513 27.8393 22.6211 27.5334 22.9327C27.2274 23.2442 26.8642 23.4914 26.4644 23.66C26.0646 23.8286 25.6361 23.9154 25.2033 23.9154H24.2099V4.95487H21.2971C20.4235 4.95487 19.5856 4.60162 18.9678 3.97284C18.35 3.34405 18.0029 2.49123 18.0029 1.60199V0.752649H34.6925L34.7005 0.746582Z" fill="#001680"/>
<path d="M53.7366 23.9215H51.4656C50.7827 23.9213 50.1167 23.7052 49.5597 23.3031C49.0027 22.901 48.5821 22.3328 48.3562 21.6769L47.8495 20.2067L46.4011 15.9964L43.6831 8.10961L40.9651 15.9964L39.5166 20.2067L39.01 21.6748C38.7843 22.3311 38.3639 22.8998 37.8069 23.3023C37.2498 23.7048 36.5837 23.9212 35.9005 23.9215H33.6117L42.3161 0.752686H42.7751C43.4421 0.752848 44.0934 0.958997 44.643 1.34389C45.1925 1.72879 45.6143 2.27432 45.8527 2.9084L53.7485 23.9236L53.7366 23.9215Z" fill="#001680"/>
<path d="M74.0143 4.09342V23.8973H70.7877C70.1717 23.8976 69.5679 23.7221 69.045 23.3907C68.522 23.0594 68.1008 22.5854 67.8293 22.0226L60.6766 7.21171H60.6646V20.5504C60.6646 20.9908 60.5794 21.4267 60.4139 21.8335C60.2483 22.2403 60.0057 22.6099 59.6998 22.9213C59.3939 23.2326 59.0307 23.4796 58.6311 23.6481C58.2314 23.8166 57.803 23.9033 57.3704 23.9033H56.5757V0.746597H59.7547C60.3729 0.746339 60.9787 0.923388 61.5027 1.25745C62.0266 1.59151 62.4475 2.06906 62.7171 2.63537L69.9035 17.6971H69.9155V0.746597H70.7102C71.1431 0.745268 71.5721 0.830812 71.9725 0.998335C72.3729 1.16586 72.737 1.41208 73.0439 1.72291C73.3507 2.03375 73.5944 2.40309 73.7609 2.80984C73.9275 3.21659 74.0136 3.65277 74.0143 4.09342V4.09342Z" fill="#001680"/>
<path d="M81.185 19.3716V14.0248C81.1853 13.987 81.1781 13.9496 81.164 13.9146C81.15 13.8796 81.1292 13.8479 81.1029 13.8211C81.0767 13.7944 81.0455 13.7733 81.0111 13.759C80.9768 13.7446 80.94 13.7374 80.9028 13.7376H76.3212C76.2959 13.7375 76.2711 13.7306 76.2492 13.7176C76.2274 13.7047 76.2092 13.6862 76.1966 13.6639C76.1839 13.6416 76.1772 13.6164 76.1771 13.5906C76.177 13.5649 76.1835 13.5396 76.196 13.5172L80.9168 5.07637C80.9322 5.04794 80.9565 5.02559 80.9859 5.01286C81.0153 5.00014 81.048 4.99777 81.0788 5.00614C81.1096 5.01451 81.1369 5.03313 81.1561 5.05905C81.1753 5.08497 81.1855 5.11669 81.185 5.14917V10.496C81.1855 10.572 81.2154 10.6447 81.2682 10.6985C81.321 10.7522 81.3925 10.7826 81.4671 10.7831H86.0508C86.076 10.7829 86.1009 10.7895 86.1228 10.8022C86.1447 10.8148 86.163 10.8332 86.1757 10.8554C86.1884 10.8775 86.1951 10.9027 86.1951 10.9284C86.1952 10.9541 86.1886 10.9793 86.176 11.0015L81.4552 19.4444C81.4392 19.4723 81.4147 19.494 81.3853 19.5063C81.356 19.5186 81.3236 19.5208 81.2929 19.5126C81.2623 19.5043 81.2351 19.486 81.2156 19.4606C81.1961 19.4351 81.1854 19.4039 81.185 19.3716Z" fill="#001680"/>
<path d="M94.1532 9.04588V15.6141C94.1532 17.2831 93.8168 18.7392 93.1439 19.9822C92.4509 21.2441 91.3921 22.2576 90.112 22.8841C88.7675 23.5744 87.1178 23.9202 85.1627 23.9215H79.8121V23.0701C79.8121 22.6298 79.8973 22.1938 80.0629 21.7871C80.2284 21.3803 80.4711 21.0106 80.777 20.6993C81.0829 20.388 81.446 20.141 81.8457 19.9725C82.2453 19.804 82.6737 19.7173 83.1063 19.7173H85.278C86.6886 19.7173 87.7801 19.3721 88.5523 18.6819C89.3245 17.9916 89.7113 17.0135 89.7126 15.7476V8.91847C89.7126 7.65524 89.3258 6.67716 88.5523 5.9842C87.7787 5.29124 86.6873 4.94611 85.278 4.94881H83.1004C82.2267 4.94881 81.3888 4.59556 80.771 3.96677C80.1532 3.33798 79.8062 2.48517 79.8062 1.59593V0.746582H85.1707C87.0701 0.746582 88.6914 1.07081 90.0345 1.71928C91.3208 2.31391 92.3916 3.30406 93.0962 4.55042C93.8009 5.79478 94.1532 7.29326 94.1532 9.04588Z" fill="#001680"/>
<path d="M115.697 23.9215H113.422C112.739 23.9209 112.073 23.7044 111.516 23.3019C110.959 22.8995 110.538 22.3309 110.312 21.6748L109.808 20.2067L108.357 15.9964L105.641 8.10961H105.629L102.913 15.9964L101.463 20.2067L100.956 21.6769C100.73 22.3328 100.31 22.901 99.7527 23.3031C99.1957 23.7052 98.5297 23.9213 97.8468 23.9215H95.5739L104.278 0.752686H104.737C105.404 0.752285 106.056 0.958214 106.606 1.34318C107.155 1.72815 107.577 2.274 107.815 2.9084L115.711 23.9236L115.697 23.9215Z" fill="#001680"/>
<path d="M118.453 0.706151H122.78V20.7486C122.78 21.1883 122.695 21.6237 122.529 22.0299C122.364 22.436 122.122 22.8051 121.816 23.1159C121.511 23.4267 121.148 23.6732 120.749 23.8412C120.349 24.0093 119.922 24.0957 119.49 24.0954H118.453V0.706151ZM120.173 10.4493H128.158C128.573 10.4572 128.98 10.3397 129.329 10.1116C129.674 9.87263 129.945 9.53788 130.109 9.147C130.302 8.68956 130.402 8.19689 130.401 7.69907C130.411 7.2026 130.317 6.70969 130.125 6.25317C129.962 5.86138 129.691 5.52625 129.344 5.28856C128.989 5.05794 128.574 4.94036 128.152 4.95084H120.161V0.704127H128.506C129.674 0.678689 130.828 0.979417 131.84 1.57369C132.799 2.15409 133.572 3.00557 134.065 4.02465C134.586 5.17667 134.856 6.42984 134.856 7.69806C134.856 8.96627 134.586 10.2195 134.065 11.3715C133.571 12.3923 132.795 13.2442 131.832 13.8224C130.821 14.4134 129.671 14.7133 128.506 14.69H120.161L120.173 10.4493ZM125.007 13.968L129.635 13.2299L135.826 24.0954H132.51C131.925 24.0959 131.351 23.9376 130.847 23.6369C130.342 23.3361 129.926 22.9038 129.641 22.3846L125.007 13.968Z" fill="#001680"/>
<path d="M152.994 0.746582V1.59593C152.994 2.48517 152.647 3.33798 152.029 3.96677C151.411 4.59556 150.574 4.94881 149.7 4.94881H146.799V20.5605C146.799 21.4503 146.452 22.3036 145.834 22.9328C145.215 23.562 144.377 23.9154 143.503 23.9154H142.509V4.95487H139.609C139.175 4.9562 138.745 4.87027 138.344 4.70199C137.942 4.53371 137.578 4.2864 137.271 3.97428C136.964 3.66216 136.72 3.29138 136.554 2.88323C136.389 2.47507 136.304 2.0376 136.304 1.59593V0.746582H152.994V0.746582Z" fill="#001680"/>
</g>
<defs>
<clipPath id="clip0_107_968">
<rect width="153" height="36" fill="white" transform="translate(0 0.5)"/>
</clipPath>
</defs>
</svg>
