<svg width="192" height="43" viewBox="0 0 192 43" fill="none" xmlns="http://www.w3.org/2000/svg">
<path d="M160.083 10.2183C160.911 9.67681 161.835 9.26274 162.791 8.97608V19.8694C161.708 22.3857 153.044 22.2264 151.292 22.2264C149.54 22.2264 140.909 22.3857 139.794 19.8694V17.2894C139.794 16.6205 140.144 16.0153 140.686 15.6331C141.514 15.0916 142.437 14.6775 143.393 14.3909V18.3405C143.393 18.3724 143.52 19.0412 151.292 19.0412C159.192 19.0412 159.192 18.3405 159.192 18.3405V11.8427C159.192 11.1739 159.542 10.5687 160.083 10.2183ZM151.26 0.567196C149.509 0.567196 140.877 0.407945 139.762 2.92424V13.8494C140.717 13.5627 141.609 13.1487 142.469 12.6072C143.043 12.2568 143.361 11.6198 143.361 10.9509V4.42126C143.361 4.42126 143.361 3.68868 151.26 3.68868C159.16 3.68868 159.16 4.42126 159.16 4.42126V8.40274C160.115 8.11607 161.007 7.702 161.867 7.16052C162.44 6.81015 162.759 6.17311 162.759 5.50422V2.92424C161.676 0.407945 153.044 0.567196 151.26 0.567196ZM48.5703 18.3405C48.5703 18.3405 48.5703 19.0412 40.8303 19.0412C33.0903 19.0412 33.0903 18.3405 33.0903 18.3405V0.85387H29.491V19.8375C30.574 22.3538 39.1103 22.1946 40.8303 22.1946C42.5821 22.1946 51.0547 22.3538 52.1695 19.8375V0.85387H48.5703V18.3405ZM188.4 0.85387V17.3531L179.895 8.84866L171.423 17.3531V0.85387H168.046V21.9397H170.435C171.009 21.9397 171.55 21.7168 171.964 21.3027L179.927 13.3079L187.922 21.3027C188.336 21.7168 188.877 21.9397 189.451 21.9397H191.84V0.885714H188.4V0.85387ZM106.955 9.4857H97.4627C96.7939 9.4857 96.1887 9.83607 95.8065 10.3776C95.3287 11.142 94.9465 11.9701 94.6916 12.8301H104.502C104.502 12.8301 104.884 12.8301 104.884 15.6968C104.884 18.1812 104.502 18.1812 104.502 18.1812H88.9902C88.9902 18.1812 88.3213 18.1812 88.3213 11.3968C88.3213 4.61237 88.9902 4.61238 88.9902 4.61238H104.948C105.681 4.61238 106.349 4.26201 106.732 3.65682C107.273 2.79682 107.719 1.87312 108.006 0.885714H87.1109C84.8176 1.90497 84.945 9.83607 84.945 11.4287C84.945 13.0212 84.8176 20.9523 87.1109 21.9397H106.986C108.324 21.3346 108.26 16.6524 108.26 15.7287C108.26 14.8049 108.324 10.0909 106.955 9.4857ZM133.232 12.8301C134.57 12.225 134.506 7.79756 134.506 6.842C134.506 5.88645 134.602 1.45905 133.232 0.85387H113.293V4.61238H130.78C130.78 4.61238 131.162 4.61238 131.162 6.87386C131.162 9.51755 130.78 9.51755 130.78 9.51755H113.293V21.9716H116.701V12.862H122.371L130.812 21.3027C131.226 21.7168 131.767 21.9397 132.309 21.9397H136.577L127.499 12.8301H133.232ZM20.0311 9.4857H5.12442C4.55109 9.4857 4.07331 9.00792 4.07331 8.43459C4.07331 8.43459 4.07331 8.43459 4.07331 8.40274V5.66348C4.07331 5.09015 4.51924 4.61238 5.09257 4.58052H5.12442H21.114C21.8466 4.58052 22.5155 4.23015 22.8977 3.62497C23.4392 2.76497 23.8851 1.84128 24.1718 0.85387H5.12442C0.697021 0.85387 0.697021 4.70793 0.697021 4.70793V8.97608C0.697021 8.97608 0.697021 12.8301 5.12442 12.8301H20.0311C20.6044 12.8301 21.114 13.2761 21.114 13.8813V13.9131V17.0983C21.114 17.6716 20.6681 18.1812 20.0629 18.1812H20.0311H3.78664C3.05405 18.1812 2.38517 18.5316 2.00294 19.1368C1.46146 19.9968 1.01554 20.9205 0.728873 21.9079H20.0629C24.4903 21.9079 24.4903 18.0538 24.4903 18.0538V13.3398C24.4585 13.3398 24.4585 9.4857 20.0311 9.4857ZM76.8228 17.0983L61.2473 1.52275C60.8332 1.10868 60.2917 0.885714 59.7184 0.885714H57.425V21.9716H61.0243V5.75904L76.5998 21.3346C77.0139 21.7486 77.5554 21.9716 78.1287 21.9716H80.422V0.885714H76.8228V17.0983Z" fill="#001680"/>
<path d="M30.2553 38.9169C29.4272 37.9295 28.9813 36.6554 29.045 35.3813C28.9813 34.1073 29.3953 32.8332 30.2553 31.8458C31.0835 30.9539 32.2938 30.4762 33.5042 30.5399C34.4916 30.5399 35.4153 30.8584 36.2116 31.4317C36.9442 31.9732 37.422 32.7695 37.5494 33.6932H37.1353C36.8486 33.6932 36.5938 33.5021 36.4664 33.2473C36.2753 32.7695 35.9568 32.3554 35.5427 32.0369C34.9694 31.6228 34.2368 31.368 33.5361 31.3999C32.5805 31.368 31.6249 31.7502 30.9879 32.4828C30.319 33.311 29.9687 34.3302 30.0324 35.4132C29.9687 36.4962 30.319 37.5154 30.9879 38.3754C31.6249 39.108 32.5487 39.5221 33.5361 39.4584C34.2686 39.4902 34.9694 39.2673 35.5746 38.885C35.9886 38.6302 36.2753 38.248 36.4664 37.8021C36.562 37.5473 36.8486 37.3561 37.1353 37.3561H37.5812C37.4538 38.2161 36.9442 39.0124 36.2435 39.4902C35.4472 40.0317 34.4916 40.3184 33.5361 40.2865C32.2938 40.3184 31.1153 39.8087 30.2553 38.9169ZM39.8109 40.1591V30.4125H40.1612C40.4797 30.4125 40.7346 30.6673 40.7346 30.9858V40.191L39.8109 40.1591ZM48.5701 38.025H49.0797C48.9842 38.6621 48.602 39.2354 48.0605 39.5858C47.4553 39.9998 46.7227 40.2228 45.9901 40.191C45.0664 40.2228 44.1427 39.8724 43.5375 39.1717C42.9005 38.3754 42.582 37.388 42.6457 36.4006C42.582 35.3813 42.9005 34.3939 43.5375 33.6295C44.1427 32.9287 45.0346 32.5465 45.9583 32.5784C46.8501 32.5465 47.7101 32.8969 48.3153 33.5658C48.9205 34.2984 49.239 35.2539 49.1753 36.2095V36.6236H43.5694V36.6554C43.5375 37.388 43.7605 38.0887 44.2383 38.6621C44.6842 39.1717 45.3531 39.4265 46.022 39.3947C46.5316 39.3947 47.0094 39.2673 47.4234 39.0124C47.6783 38.8532 47.9012 38.5984 48.0286 38.3435C48.1879 38.1524 48.379 38.025 48.5701 38.025ZM44.302 34.1073C43.856 34.585 43.6012 35.2539 43.6012 35.891H48.2516C48.2834 35.2221 48.0605 34.585 47.6145 34.1073C47.2005 33.6613 46.5953 33.4065 45.9583 33.4065C45.3531 33.3747 44.7479 33.6295 44.302 34.1073ZM51.8508 39.6495C51.4049 39.2673 51.1501 38.6939 51.1501 38.0887C51.1182 37.5154 51.3731 36.9421 51.8508 36.5917C52.456 36.1776 53.1568 35.9547 53.8893 35.9547L56.1827 35.7954V35.1584C56.2145 34.6806 56.0234 34.2347 55.673 33.8843C55.2908 33.5658 54.7812 33.4065 54.2716 33.4384C53.8256 33.4065 53.3479 33.5658 52.9656 33.8206C52.7427 33.9799 52.5516 34.2347 52.4242 34.5213C52.3286 34.7443 52.1375 34.8717 51.8827 34.8717H51.4368C51.4686 34.2347 51.7871 33.6295 52.2968 33.2791C52.8701 32.8332 53.5708 32.6102 54.2716 32.6421C55.0042 32.6102 55.7367 32.8332 56.3101 33.311C56.8197 33.7569 57.1064 34.4258 57.0745 35.0947V40.191H56.1827V38.7576C55.9597 39.2036 55.6093 39.5858 55.1953 39.8406C54.7175 40.1273 54.176 40.2547 53.6345 40.2547C53.0294 40.2547 52.3923 40.0317 51.8508 39.6495ZM55.5456 38.8213C55.9916 38.471 56.2464 37.8976 56.2145 37.3243V36.4961L54.0168 36.6554C52.7427 36.751 52.1056 37.1969 52.1056 38.0569C52.1056 38.4391 52.2649 38.7895 52.5834 39.0443C52.9338 39.2991 53.3797 39.4584 53.8575 39.4265C54.4945 39.4584 55.0997 39.2354 55.5456 38.8213ZM59.0493 40.1591V32.7058H59.336C59.6545 32.7058 59.9093 32.9606 59.9093 33.2473V34.0754H59.9412C60.1323 33.6295 60.4827 33.2473 60.8967 32.9925C61.3745 32.7376 61.916 32.5784 62.4575 32.6102C63.1901 32.5784 63.8908 32.8332 64.4323 33.3428C64.9419 33.8843 65.1967 34.6169 65.1649 35.3495V40.1591H64.273V35.5087C64.3049 34.9354 64.1138 34.3939 63.7315 33.9799C63.3175 33.5976 62.776 33.4065 62.2345 33.4384C61.6293 33.4065 61.0241 33.6613 60.6101 34.1073C60.196 34.5532 59.973 35.1902 60.0049 35.7954V40.191L59.0493 40.1591ZM84.2441 39.2036C83.5752 38.4391 83.2567 37.4517 83.2885 36.4324C83.2248 35.4132 83.5752 34.4258 84.2441 33.6613C85.6456 32.2917 87.8752 32.2917 89.2767 33.6613C89.9456 34.4258 90.2641 35.4132 90.2322 36.4324C90.2959 37.4517 89.9456 38.4391 89.2767 39.2036C87.8752 40.5732 85.6456 40.5732 84.2441 39.2036ZM88.6078 38.5984C89.0856 37.9613 89.3404 37.1969 89.2767 36.4006C89.3085 35.6043 89.0856 34.8399 88.6078 34.2028C87.6522 33.1836 86.0915 33.1199 85.0722 34.0754C85.0404 34.1073 84.9767 34.171 84.9448 34.2028C84.4671 34.8399 84.2441 35.6043 84.276 36.4006C84.2441 37.1969 84.4671 37.9613 84.9448 38.5984C85.9004 39.6176 87.493 39.6495 88.4804 38.7258C88.5122 38.6939 88.5441 38.6302 88.6078 38.5984ZM108.451 38.025H108.961C108.834 38.6621 108.483 39.2354 107.942 39.5858C107.337 39.9998 106.604 40.2228 105.871 40.191C104.948 40.2228 104.024 39.8724 103.419 39.1717C102.782 38.3754 102.463 37.388 102.527 36.4006C102.463 35.3813 102.782 34.3939 103.419 33.6295C104.024 32.9287 104.916 32.5465 105.84 32.5784C106.731 32.5465 107.591 32.8969 108.197 33.5658C108.802 34.2984 109.12 35.2539 109.088 36.2095V36.6236H103.483V36.6554C103.451 37.388 103.674 38.0887 104.151 38.6621C104.597 39.1717 105.266 39.4265 105.935 39.3947C106.445 39.3947 106.923 39.2673 107.337 39.0124C107.591 38.8532 107.814 38.5984 107.942 38.3435C108.069 38.1524 108.26 38.025 108.451 38.025ZM104.215 34.1073C103.769 34.585 103.514 35.2539 103.514 35.891H108.165C108.197 35.2221 107.974 34.585 107.528 34.1073C106.604 33.1836 105.139 33.1836 104.215 34.1073C104.215 34.0754 104.215 34.0754 104.215 34.1073ZM80.8678 33.6613C81.5048 34.4576 81.8234 35.4132 81.7597 36.4324C81.7915 37.4198 81.473 38.4073 80.8678 39.2036C79.9123 40.3502 78.256 40.605 77.0137 39.8087C76.5678 39.5221 76.2175 39.108 76.0263 38.6302V42.4524H75.1345V32.7058H75.4212C75.7397 32.7058 75.9945 32.9606 75.9945 33.2473V34.2347C76.1856 33.7569 76.536 33.3428 76.9819 33.0562C78.256 32.2599 79.9123 32.5147 80.8678 33.6613ZM80.1671 38.5984C80.6448 37.9613 80.8678 37.1969 80.836 36.4324C80.8678 35.668 80.6448 34.8717 80.1671 34.2665C79.3708 33.311 77.9693 33.1517 77.0137 33.948C76.8863 34.0436 76.7908 34.1391 76.6952 34.2665C76.2175 34.8717 75.9626 35.6361 75.9945 36.4324C75.9626 37.1969 76.1856 37.9613 76.6634 38.5984C77.4597 39.5539 78.8611 39.7132 79.8167 38.9169C79.9441 38.7895 80.0397 38.6939 80.1671 38.5984ZM101.317 32.6739L99.1826 40.1273H98.227L96.3478 33.9162L94.4685 40.1273H93.513L91.3789 32.6739H91.8567C92.1115 32.6739 92.3345 32.8332 92.3982 33.088L93.9907 39.108L95.87 32.6739H96.7937L98.673 39.108L100.266 33.088C100.329 32.8332 100.552 32.6739 100.807 32.6739H101.317ZM111.286 40.1591V32.7058H111.573C111.891 32.7058 112.146 32.9606 112.146 33.2791V34.0436H112.178C112.401 33.1836 113.197 32.6102 114.057 32.6421C114.153 32.6421 114.248 32.6421 114.376 32.6739C114.471 32.6739 114.535 32.7058 114.631 32.7058V33.5976C114.535 33.5658 114.44 33.5339 114.344 33.5339C114.217 33.5021 114.089 33.5021 113.962 33.5021C113.484 33.4702 113.006 33.6932 112.688 34.0754C112.369 34.4895 112.178 34.9991 112.21 35.5406V40.1591H111.286ZM151.547 39.6495C151.101 39.2673 150.846 38.6939 150.846 38.0887C150.814 37.5154 151.069 36.9421 151.547 36.5917C152.152 36.1776 152.853 35.9547 153.585 35.9547L155.879 35.7954V35.1584C155.911 34.6806 155.72 34.2347 155.369 33.8843C154.987 33.5658 154.477 33.4065 153.968 33.4384C153.49 33.4065 153.044 33.5658 152.662 33.8206C152.439 34.0117 152.248 34.2347 152.12 34.5213C152.025 34.7443 151.834 34.8717 151.579 34.8717H151.133C151.165 34.2347 151.483 33.6295 151.993 33.2791C152.566 32.8332 153.267 32.6102 153.968 32.6421C154.7 32.6102 155.433 32.8332 156.006 33.311C156.516 33.7569 156.802 34.4258 156.771 35.0947V40.191H155.879V38.7576C155.656 39.2036 155.305 39.5858 154.891 39.8406C154.414 40.1273 153.872 40.2547 153.331 40.2547C152.694 40.2865 152.057 40.0635 151.547 39.6495ZM155.242 38.8213C155.688 38.471 155.942 37.8976 155.911 37.3243V36.4961L153.713 36.6554C152.439 36.751 151.802 37.1969 151.802 38.0569C151.802 38.4391 151.961 38.8213 152.28 39.0443C152.63 39.2991 153.076 39.4584 153.554 39.4265C154.191 39.4584 154.796 39.2354 155.242 38.8213ZM159.319 40.1591V30.4125H159.669C159.988 30.4125 160.242 30.6673 160.242 30.9858V40.191H159.319V40.1591ZM162.504 40.1591V30.4125H162.854C163.173 30.4125 163.428 30.6673 163.428 30.9858V40.191H162.504V40.1591ZM129.92 39.2036C129.251 38.4391 128.932 37.4517 128.964 36.4324C128.9 35.4132 129.251 34.4258 129.92 33.6613C131.321 32.2917 133.551 32.2917 134.952 33.6613C135.621 34.4258 135.94 35.445 135.908 36.4324C135.971 37.4517 135.621 38.4391 134.952 39.2036C133.551 40.5732 131.321 40.5732 129.92 39.2036ZM134.283 38.5984C134.761 37.9613 134.984 37.1969 134.952 36.4006C134.984 35.6043 134.761 34.8399 134.283 34.2028C133.328 33.1836 131.767 33.1199 130.748 34.0754C130.716 34.1073 130.652 34.171 130.62 34.2028C130.143 34.8399 129.888 35.6043 129.951 36.4006C129.92 37.1969 130.143 37.9613 130.62 38.5984C131.576 39.6176 133.168 39.6495 134.188 38.7258C134.188 38.6939 134.22 38.6621 134.283 38.5984ZM138.01 40.1591V32.7058H138.297C138.615 32.7058 138.87 32.9606 138.87 33.2791V34.0436H138.902C139.125 33.1836 139.921 32.6102 140.781 32.6421C140.972 32.6421 141.163 32.6739 141.323 32.7058V33.5976C141.227 33.5658 141.131 33.5339 141.036 33.5339C140.908 33.5021 140.781 33.5021 140.654 33.5021C140.176 33.4702 139.698 33.6932 139.38 34.0754C139.061 34.4895 138.87 34.9991 138.902 35.5406V40.1591H138.01ZM126.766 30.3806C126.257 30.3169 125.779 30.4762 125.365 30.7947C125.046 31.0813 124.919 31.3999 124.919 32.2599V33.1199H123.868V33.8843H124.919V40.1273H125.843V33.8843H127.371V33.1199H125.843V32.2599C125.843 31.7184 125.906 31.5273 126.066 31.368C126.288 31.1769 126.543 31.1132 126.83 31.145C127.021 31.145 127.18 31.1769 127.34 31.2088V30.4443C127.18 30.4125 126.989 30.3806 126.766 30.3806Z" fill="#001680"/>
</svg>
