<svg width="193" height="65" viewBox="0 0 193 65" fill="none" xmlns="http://www.w3.org/2000/svg">
<g clip-path="url(#clip0_139_124)">
<path d="M16.2728 52.8942H13.2498V51.7912H20.6439V52.8942H17.58V61.7998H16.2728V52.8942ZM74.0776 56.8159C74.0776 55.9581 74.0776 55.2636 74.0367 54.5691H75.1806L75.2214 55.9989H75.2623C75.5891 55.0185 76.4061 54.4057 77.264 54.4057C77.3866 54.4057 77.5091 54.4057 77.6317 54.4465V55.6721C77.5091 55.6312 77.3457 55.6312 77.1823 55.6312C76.2836 55.6312 75.6299 56.3257 75.4257 57.3062C75.3848 57.4696 75.3848 57.7147 75.3848 57.9189V61.759H74.0776V56.8159ZM67.6231 58.4091C67.6639 60.1658 68.7669 60.9011 70.0741 60.9011C71.0137 60.9011 71.5856 60.7377 72.0759 60.5334L72.321 61.473C71.8716 61.6773 71.0546 61.9224 69.9107 61.9224C67.7048 61.9224 66.3975 60.4517 66.3975 58.2866C66.3975 56.1215 67.6639 54.4465 69.7473 54.4465C72.1167 54.4465 72.7295 56.4891 72.7295 57.7964C72.7295 58.0823 72.7295 58.2457 72.6886 58.4091H67.6231ZM71.4631 57.4696C71.4631 56.6525 71.1363 55.3453 69.6656 55.3453C68.3175 55.3453 67.7865 56.53 67.6639 57.4696H71.4631ZM56.8791 54.61L57.8596 58.2457C58.0638 59.0628 58.2272 59.7981 58.3906 60.5334H58.4315C58.5949 59.7981 58.84 59.0219 59.0851 58.2457L60.2698 54.5691H61.3728L62.4758 58.164C62.7617 59.0219 62.966 59.7981 63.1294 60.4926H63.1702C63.2928 59.7572 63.4971 59.0219 63.7013 58.164L64.7226 54.5691H66.0298L63.7013 61.759H62.5166L61.4136 58.3274C61.1685 57.5104 60.9643 56.8159 60.76 55.9581H60.7192C60.5558 56.8159 60.3106 57.5513 60.0655 58.3274L58.9217 61.7181H57.737L55.5719 54.5282H56.8791V54.61ZM55.1225 58.1232C55.1225 60.7785 53.2842 61.9224 51.5684 61.9224C49.6484 61.9224 48.1369 60.4926 48.1369 58.2457C48.1369 55.8763 49.7301 54.4465 51.691 54.4465C53.7336 54.4465 55.1225 55.9581 55.1225 58.1232ZM49.4442 58.2049C49.4442 59.7572 50.3429 60.9828 51.6093 60.9828C52.8348 60.9828 53.7744 59.7981 53.7744 58.2049C53.7744 56.9793 53.1616 55.4678 51.6093 55.4678C50.0978 55.427 49.4442 56.8568 49.4442 58.2049ZM40.2934 56.9385C40.2934 55.9989 40.2526 55.2636 40.2526 54.61H41.3964L41.4781 55.8355H41.519C42.05 54.9776 42.9079 54.4465 44.0518 54.4465C45.8084 54.4465 47.1156 55.9172 47.1156 58.0823C47.1156 60.656 45.5224 61.9224 43.8475 61.9224C42.9079 61.9224 42.05 61.5139 41.6415 60.7785H41.6007V64.6594H40.2934V56.9385ZM41.6007 58.8585C41.6007 59.0628 41.6007 59.2262 41.6415 59.3896C41.8866 60.2883 42.6628 60.9011 43.6024 60.9011C44.9913 60.9011 45.7675 59.7572 45.7675 58.1232C45.7675 56.6934 45.0322 55.4678 43.6432 55.4678C42.7445 55.4678 41.9275 56.0806 41.6824 57.061C41.6415 57.2244 41.6007 57.4287 41.6007 57.5921V58.8585ZM30.2848 58.4091C30.3257 60.1658 31.4287 60.9011 32.7359 60.9011C33.6755 60.9011 34.2474 60.7377 34.7376 60.5334L34.9827 61.473C34.5334 61.6773 33.7163 61.9224 32.5725 61.9224C30.3665 61.9224 29.0593 60.4517 29.0593 58.2866C29.0593 56.1215 30.3257 54.4465 32.4091 54.4465C34.7785 54.4465 35.3913 56.4891 35.3913 57.7964C35.3913 58.0823 35.3912 58.2457 35.3504 58.4091H30.2848ZM34.1249 57.4696C34.1249 56.6525 33.798 55.3453 32.3274 55.3453C30.9793 55.3453 30.4482 56.53 30.3257 57.4696H34.1249ZM21.5835 51.2601H22.8907V55.7538H22.9316C23.1358 55.3861 23.4626 55.0593 23.8711 54.8142C24.2388 54.61 24.729 54.4465 25.2192 54.4465C26.1997 54.4465 27.7112 55.0593 27.7112 57.5104V61.7998H26.4039V57.6738C26.4039 56.53 25.9546 55.5495 24.729 55.5495C23.8711 55.5495 23.2175 56.1623 22.9724 56.8568C22.8907 57.061 22.8907 57.2244 22.8907 57.4696V61.7998H21.5835V51.2601Z" fill="#001680"/>
<path d="M82.2071 51.2601H83.5144V55.7538H83.5552C84.0046 54.9368 84.8625 54.4465 86.0063 54.4465C87.8038 54.4465 89.0293 55.9172 89.0293 58.0823C89.0293 60.656 87.3952 61.9224 85.802 61.9224C84.7808 61.9224 83.9229 61.5139 83.3918 60.5743H83.3509L83.2692 61.759H82.1663C82.2071 61.2687 82.2071 60.5334 82.2071 59.9206V51.2601ZM122.936 51.2601V59.9206C122.936 60.5743 122.977 61.2687 122.977 61.759H121.833L121.792 60.5334H121.751C121.384 61.3504 120.526 61.9224 119.341 61.9224C117.584 61.9224 116.236 60.4517 116.236 58.2866C116.236 55.9172 117.707 54.4465 119.464 54.4465C120.567 54.4465 121.302 54.9776 121.629 55.5495H121.67V51.2601H122.936ZM121.629 57.5104C121.629 57.347 121.629 57.1427 121.588 56.9793C121.384 56.1623 120.689 55.4678 119.709 55.4678C118.361 55.4678 117.544 56.6525 117.544 58.2457C117.544 59.7164 118.279 60.9011 119.668 60.9011C120.526 60.9011 121.343 60.3292 121.588 59.3487C121.629 59.1853 121.629 58.9811 121.629 58.7768V57.5104ZM108.761 56.53C108.761 55.7538 108.761 55.1819 108.72 54.5691H109.864L109.945 55.7538H109.986C110.354 55.1002 111.171 54.4057 112.355 54.4057C113.336 54.4057 114.888 55.0185 114.888 57.4696V61.759H113.581V57.633C113.581 56.4891 113.132 55.5087 111.906 55.5087C111.048 55.5087 110.395 56.1215 110.15 56.8568C110.109 57.0202 110.068 57.2244 110.068 57.4696V61.7998H108.761V56.53ZM107.086 52.5674C107.086 53.0167 106.759 53.3844 106.269 53.3844C105.778 53.3844 105.492 53.0167 105.492 52.5674C105.492 52.118 105.819 51.7504 106.309 51.7504C106.759 51.7504 107.086 52.118 107.086 52.5674ZM105.615 54.61H106.922V61.7998H105.615V54.61ZM97.7307 51.2601H99.0379V55.7538H99.0788C99.283 55.3861 99.6098 55.0593 100.018 54.8142C100.386 54.61 100.876 54.4465 101.366 54.4465C102.347 54.4465 103.858 55.0593 103.858 57.5104V61.7998H102.551V57.6738C102.551 56.53 102.102 55.5495 100.876 55.5495C100.018 55.5495 99.3647 56.1623 99.1196 56.8568C99.0379 57.061 99.0379 57.2244 99.0379 57.4696V61.7998H97.7307V51.2601ZM91.2761 58.4091C91.317 60.1658 92.42 60.9011 93.7272 60.9011C94.6668 60.9011 95.2387 60.7377 95.7289 60.5334L95.9741 61.473C95.5247 61.6773 94.7077 61.9224 93.5638 61.9224C91.3578 61.9224 90.0506 60.4517 90.0506 58.2866C90.0506 56.1215 91.317 54.4465 93.4004 54.4465C95.7698 54.4465 96.3826 56.4891 96.3826 57.7964C96.3826 58.0823 96.3826 58.2457 96.3417 58.4091H91.2761ZM95.0753 57.4696C95.0753 56.6525 94.7485 55.3453 93.2779 55.3453C91.9298 55.3453 91.3987 56.53 91.2761 57.4696H95.0753ZM83.5144 58.8994C83.5144 59.0628 83.5144 59.2262 83.5552 59.3896C83.8003 60.2883 84.5765 60.9011 85.5161 60.9011C86.905 60.9011 87.6812 59.7981 87.6812 58.1232C87.6812 56.6934 86.9459 55.4678 85.5161 55.4678C84.6582 55.4678 83.8003 56.0806 83.5552 57.061C83.5144 57.2244 83.4735 57.3879 83.4735 57.5921V58.8994H83.5144Z" fill="#001680"/>
<path d="M129.962 52.8942V54.61H131.841V55.5904H129.962V59.4713C129.962 60.37 130.207 60.8602 130.943 60.8602C131.31 60.8602 131.515 60.8194 131.719 60.7785L131.76 61.759C131.515 61.8407 131.106 61.9224 130.616 61.9224C130.003 61.9224 129.513 61.7181 129.227 61.3913C128.859 60.9828 128.737 60.37 128.737 59.5121V55.5904H127.634V54.61H128.737V53.2619L129.962 52.8942ZM182.007 51.2601H183.314V61.7998H182.007V51.2601ZM175.512 58.4091C175.553 60.1658 176.656 60.9011 177.963 60.9011C178.902 60.9011 179.474 60.7377 179.965 60.5334L180.21 61.473C179.76 61.6773 178.943 61.9224 177.799 61.9224C175.593 61.9224 174.286 60.4517 174.286 58.2866C174.286 56.1215 175.553 54.4465 177.636 54.4465C180.005 54.4465 180.618 56.4891 180.618 57.7964C180.618 58.0823 180.618 58.2457 180.577 58.4091H175.512ZM179.311 57.4696C179.311 56.6525 178.984 55.3453 177.513 55.3453C176.165 55.3453 175.634 56.53 175.512 57.4696H179.311ZM166.769 56.53C166.769 55.7538 166.769 55.1819 166.729 54.5691H167.872L167.954 55.7538H167.995C168.363 55.1002 169.18 54.4057 170.364 54.4057C171.345 54.4057 172.897 55.0185 172.897 57.4696V61.759H171.59V57.633C171.59 56.4891 171.141 55.5087 169.915 55.5087C169.057 55.5087 168.404 56.1215 168.158 56.8568C168.118 57.0202 168.077 57.2244 168.077 57.4696V61.7998H166.769V56.53ZM164.972 60.0432C164.972 60.656 165.013 61.2687 165.095 61.759H163.91L163.787 60.8602H163.746C163.338 61.4321 162.562 61.9224 161.541 61.9224C160.07 61.9224 159.335 60.9011 159.335 59.8798C159.335 58.1232 160.887 57.1836 163.665 57.2244V57.061C163.665 56.4891 163.501 55.3861 162.031 55.427C161.336 55.427 160.642 55.6312 160.152 55.9581L159.866 55.1002C160.478 54.7325 161.336 54.4874 162.235 54.4874C164.441 54.4874 164.972 55.9989 164.972 57.4287V60.0432ZM163.746 58.1232C162.317 58.0823 160.723 58.3274 160.723 59.7572C160.723 60.6151 161.295 60.9828 161.949 60.9828C162.889 60.9828 163.501 60.4109 163.706 59.7981C163.746 59.6347 163.746 59.5121 163.746 59.3896V58.1232ZM151.695 56.9385C151.695 55.9989 151.654 55.2636 151.654 54.61H152.798L152.88 55.8355H152.921C153.452 54.9776 154.31 54.4465 155.454 54.4465C157.21 54.4465 158.518 55.9172 158.518 58.0823C158.518 60.656 156.924 61.9224 155.249 61.9224C154.31 61.9224 153.452 61.5139 153.043 60.7785H153.003V64.6594H151.695V56.9385ZM153.003 58.8585C153.003 59.0628 153.003 59.2262 153.043 59.3896C153.289 60.2883 154.065 60.9011 155.004 60.9011C156.393 60.9011 157.169 59.7572 157.169 58.1232C157.169 56.6934 156.393 55.4678 155.045 55.4678C154.146 55.4678 153.289 56.0806 153.084 57.061C153.043 57.2244 153.003 57.4287 153.003 57.5921V58.8585ZM141.687 58.4091C141.728 60.1658 142.831 60.9011 144.138 60.9011C145.077 60.9011 145.649 60.7377 146.139 60.5334L146.385 61.473C145.935 61.6773 145.118 61.9224 143.974 61.9224C141.768 61.9224 140.461 60.4517 140.461 58.2866C140.461 56.1215 141.728 54.4465 143.811 54.4465C146.18 54.4465 146.793 56.4891 146.793 57.7964C146.793 58.0823 146.793 58.2457 146.752 58.4091H141.687ZM145.527 57.4696C145.527 56.6525 145.2 55.3453 143.729 55.3453C142.381 55.3453 141.85 56.53 141.728 57.4696H145.527ZM132.985 51.2601H134.293V55.7538H134.333C134.538 55.3861 134.864 55.0593 135.273 54.8142C135.641 54.61 136.131 54.4465 136.621 54.4465C137.602 54.4465 139.113 55.0593 139.113 57.5104V61.7998H137.806V57.6738C137.806 56.53 137.356 55.5495 136.131 55.5495C135.273 55.5495 134.619 56.1623 134.374 56.8568C134.293 57.061 134.293 57.2244 134.293 57.4696V61.7998H132.985V51.2601Z" fill="#001680"/>
<path d="M58.5542 7.67156C58.5542 11.7159 55.2861 15.0248 51.2009 15.0248C47.1566 15.0248 43.8477 11.7567 43.8477 7.67156C43.8477 3.62727 47.1566 0.318298 51.2009 0.318298C55.2861 0.318298 58.5542 3.62727 58.5542 7.67156Z" fill="#001680"/>
<path d="M121.016 21.5202L119.096 23.5219C117.503 21.9696 115.95 21.1934 114.398 21.1934C113.417 21.1934 112.6 21.5202 111.906 22.1738C111.211 22.8275 110.885 23.5628 110.885 24.4615C110.885 25.2377 111.171 25.973 111.743 26.6675C112.314 27.362 113.499 28.2198 115.337 29.1594C117.543 30.3441 119.055 31.4471 119.872 32.5093C120.648 33.6122 121.057 34.7969 121.057 36.1859C121.057 38.1059 120.403 39.74 119.055 41.0472C117.707 42.3953 116.032 43.0489 114.03 43.0489C112.682 43.0489 111.416 42.763 110.19 42.191C108.965 41.6191 107.984 40.843 107.167 39.8625L109.046 37.6974C110.558 39.4131 112.192 40.271 113.908 40.271C115.092 40.271 116.114 39.8625 116.972 39.0863C117.829 38.3102 118.238 37.3706 118.238 36.3084C118.238 35.4506 117.952 34.6744 117.38 33.9799C116.808 33.3263 115.583 32.4684 113.622 31.4471C111.497 30.3441 110.068 29.282 109.332 28.2198C108.556 27.1577 108.188 25.9322 108.188 24.5841C108.188 22.8275 108.801 21.3159 109.986 20.1721C111.211 18.9874 112.723 18.4155 114.561 18.4155C116.686 18.4563 118.851 19.4776 121.016 21.5202ZM13.2497 42.6404H22.6455V16.4546H35.146C35.146 16.4546 35.5137 6.65027 26.363 6.65027H19.214H16.5995H9.53217C0.381442 6.65027 0.749104 16.4546 0.749104 16.4546H13.2497V42.6404ZM97.036 18.3746H76.406C76.406 18.3746 78.2852 19.2734 79.8375 21.5611C81.4307 23.8896 81.5124 25.9322 81.5124 25.9322H96.2598C96.7092 25.9322 97.036 26.1364 97.036 26.5858V27.4437H88.2938C84.4538 27.4437 81.2265 30.916 81.2265 35.3689C81.2265 39.8217 85.4342 42.6404 87.967 42.6404H104.92V26.9534C104.92 21.2751 100.794 18.3746 97.036 18.3746ZM97.036 35.614H90.4181C89.887 35.614 89.5602 35.1646 89.5602 34.6335C89.5602 34.1433 89.8461 33.6939 90.4181 33.6939H97.036V35.614ZM70.4417 42.6404V27.9747C70.4417 26.9943 69.543 26.2181 68.44 26.2181C67.337 26.2181 66.4383 26.9943 66.4383 27.9747V42.6404H57.4918V27.9747V27.8522V18.3746H68.44C74.4451 18.3746 79.3473 22.5823 79.3882 27.8522V27.9747V42.6404H70.4417ZM46.2576 42.6404H55.3267V18.3746H46.2576V42.6404ZM26.5672 42.6404V18.3746H35.1052V20.4581C39.3129 18.3338 43.5206 18.3338 44.1334 18.3746V26.2998C44.0925 26.2998 39.844 26.2181 37.352 28.465C36.2082 29.5271 35.3911 30.9569 35.1052 32.8361V42.6404H26.5672ZM180.332 19.0283H183.314V22.4598C184.213 21.1117 185.193 20.0904 186.215 19.4368C187.236 18.7832 188.257 18.4563 189.36 18.4563C190.177 18.4563 191.076 18.7423 192.016 19.2325L190.463 21.7653C189.851 21.4794 189.319 21.3568 188.87 21.3568C187.89 21.3568 186.909 21.7653 186.01 22.5823C185.071 23.3994 184.376 24.6658 183.886 26.4224C183.519 27.7705 183.314 30.4667 183.314 34.511V42.4362H180.332V19.0283ZM177.881 19.0283V42.3953H174.899V38.3919C173.632 39.9442 172.244 41.0881 170.691 41.8642C169.139 42.6404 167.423 43.0081 165.585 43.0081C162.317 43.0081 159.498 41.8234 157.169 39.4131C154.841 37.0029 153.697 34.1025 153.697 30.6709C153.697 27.3211 154.882 24.4207 157.21 22.0513C159.539 19.641 162.357 18.4563 165.666 18.4563C167.586 18.4563 169.302 18.8649 170.814 19.6819C172.366 20.4989 173.714 21.7245 174.858 23.3585V19.0283H177.881ZM165.912 21.3568C164.278 21.3568 162.725 21.7653 161.336 22.5823C159.947 23.3994 158.844 24.5432 157.986 26.0547C157.169 27.5254 156.761 29.1186 156.761 30.7526C156.761 32.3867 157.169 33.9799 158.027 35.4914C158.844 37.0029 159.988 38.1468 161.377 39.0046C162.807 39.8625 164.278 40.271 165.912 40.271C167.546 40.271 169.098 39.8625 170.528 39.0455C171.998 38.2285 173.101 37.0846 173.878 35.6957C174.654 34.2659 175.062 32.6727 175.062 30.916C175.062 28.2198 174.164 25.9322 172.407 24.1347C170.65 22.2964 168.485 21.3568 165.912 21.3568ZM148.754 10.0409H151.736V42.4362H148.754V10.0409ZM134.701 18.4563C138.255 18.4563 141.196 19.7636 143.566 22.3781C145.69 24.7475 146.752 27.5662 146.752 30.8343C146.752 34.1025 145.608 36.9621 143.362 39.4131C141.115 41.8642 138.214 43.0898 134.701 43.0898C131.147 43.0898 128.247 41.8642 126 39.4131C123.753 36.9621 122.65 34.1025 122.65 30.8343C122.65 27.6071 123.712 24.7883 125.836 22.4189C128.206 19.7636 131.147 18.4563 134.701 18.4563ZM134.701 21.3568C132.25 21.3568 130.126 22.2964 128.369 24.1347C126.612 26.0139 125.714 28.2607 125.714 30.8752C125.714 32.591 126.122 34.1842 126.939 35.6548C127.756 37.1255 128.818 38.2693 130.207 39.0455C131.555 39.8625 133.067 40.2302 134.701 40.2302C136.335 40.2302 137.847 39.8217 139.236 39.0455C140.625 38.2693 141.687 37.1255 142.504 35.6548C143.321 34.1842 143.729 32.591 143.729 30.8752C143.729 28.2607 142.83 26.0139 141.074 24.1347C139.276 22.2964 137.152 21.3568 134.701 21.3568Z" fill="#001680"/>
</g>
<defs>
<clipPath id="clip0_139_124">
<rect width="191.267" height="64.3819" fill="white" transform="translate(0.749023 0.318115)"/>
</clipPath>
</defs>
</svg>
